<?xml version="1.0" standalone="no"?>
<!DOCTYPE svg PUBLIC "-//W3C//DTD SVG 1.1//EN" "http://www.w3.org/Graphics/SVG/1.1/DTD/svg11.dtd" >
<svg xmlns="http://www.w3.org/2000/svg" xmlns:xlink="http://www.w3.org/1999/xlink" version="1.1">
<metadata>
Created by FontForge 20161003 at Thu Mar  2 04:41:16 2017
 By www-data
Copyright (c) 2012 by Fontfabric LLC. All rights reserved.
</metadata>
<defs>
<font id="PantonBlack" horiz-adv-x="556" >
  <font-face 
    font-family="PantonBlack"
    font-weight="900"
    font-stretch="normal"
    units-per-em="1000"
    panose-1="0 0 10 0 0 0 0 0 0 0"
    ascent="740"
    descent="-260"
    x-height="520"
    cap-height="710"
    bbox="-206.895 -260 1261 990.757"
    underline-thickness="50"
    underline-position="-150"
    unicode-range="U+0020-FB02"
  />
<missing-glyph horiz-adv-x="686" 
d="M638 42q0 -23 -9.5 -32.5t-33.5 -9.5h-499q-24 0 -33.5 9.5t-9.5 32.5v626q0 23 9.5 32.5t33.5 9.5h499q24 0 33.5 -9.5t9.5 -32.5v-626zM251 535v-360h189v360h-189z" />
    <glyph glyph-name="fi" unicode="fi" horiz-adv-x="619" 
d="M539 740q22 0 30.5 -8.5t8.5 -30.5v-73q0 -22 -8.5 -31t-30.5 -9h-200q-68 0 -68 -64v-4h268q22 0 30.5 -8.5t8.5 -29.5v-444q0 -21 -8.5 -29.5t-30.5 -8.5h-109q-22 0 -30.5 8.5t-8.5 29.5v330h-120v-330q0 -21 -8.5 -29.5t-30.5 -8.5h-108q-22 0 -30.5 8.5t-8.5 29.5
v330h-32q-22 0 -30.5 8.5t-8.5 30.5v75q0 21 8.5 29.5t30.5 8.5h32v3q0 217 241 217h213z" />
    <glyph glyph-name="fl" unicode="fl" horiz-adv-x="618" 
d="M535 740q22 0 30.5 -8.5t8.5 -30.5v-663q0 -21 -8 -29.5t-30 -8.5h-110q-21 0 -29.5 8.5t-8.5 29.5v550h-49q-68 0 -68 -64v-4h40q22 0 30 -8.5t8 -29.5v-75q0 -22 -8 -30.5t-30 -8.5h-40v-330q0 -21 -8.5 -29.5t-30.5 -8.5h-108q-22 0 -30.5 8.5t-8.5 29.5v330h-32
q-22 0 -30.5 8.5t-8.5 30.5v75q0 21 8.5 29.5t30.5 8.5h32v4q0 109 62.5 162.5t178.5 53.5h209z" />
    <glyph glyph-name=".notdef" horiz-adv-x="686" 
d="M638 42q0 -23 -9.5 -32.5t-33.5 -9.5h-499q-24 0 -33.5 9.5t-9.5 32.5v626q0 23 9.5 32.5t33.5 9.5h499q24 0 33.5 -9.5t9.5 -32.5v-626zM251 535v-360h189v360h-189z" />
    <glyph glyph-name=".null" horiz-adv-x="600" 
 />
    <glyph glyph-name="nonmarkingreturn" horiz-adv-x="333" 
 />
    <glyph glyph-name="space" unicode=" " horiz-adv-x="180" 
 />
    <glyph glyph-name="exclam" unicode="!" horiz-adv-x="284" 
d="M199 739q22 0 31 -8t8 -29l-18 -431q-1 -21 -8.5 -29.5t-28.5 -8.5h-82q-21 0 -29 8.5t-9 29.5l-16 431q-1 21 8 29t31 8h113zM166 183q45 0 62 -17t17 -61v-35q0 -44 -17 -61t-62 -17h-50q-44 0 -61 17t-17 61v35q0 44 17 61t61 17h50z" />
    <glyph glyph-name="quotedbl" unicode="&#x22;" horiz-adv-x="410" 
d="M177 478q-2 -21 -9.5 -26.5t-30.5 -5.5h-61q-22 0 -28.5 5.5t-6.5 26.5v198q0 22 6.5 28t28.5 6h88q22 0 29.5 -6.5t5.5 -27.5zM359 478q-3 -21 -10.5 -26.5t-30.5 -5.5h-61q-22 0 -28 5.5t-6 26.5v198q0 22 6.5 28t27.5 6h88q22 0 29.5 -6.5t5.5 -27.5z" />
    <glyph glyph-name="numbersign" unicode="#" horiz-adv-x="767" 
d="M715 539q22 0 28 -8t0 -29l-24 -83q-6 -19 -17.5 -27t-33.5 -8h-58l-29 -97h60q22 0 29 -8.5t0 -28.5l-27 -83q-6 -20 -17 -28t-34 -8h-57l-28 -93q-11 -38 -48 -38h-92q-22 0 -28 9t0 29l28 93h-88l-28 -93q-6 -21 -17 -29.5t-32 -8.5h-91q-40 0 -27 38l27 93h-59
q-21 0 -27 8.5t-1 29.5l26 83q6 20 17 27.5t34 7.5h57l29 97h-59q-22 0 -29 8.5t0 28.5l26 83q6 20 17 27.5t33 7.5h58l28 96q11 38 49 38h91q22 0 28 -9t0 -29l-28 -96h88l28 96q7 21 17.5 29.5t31.5 8.5h92q40 0 27 -38l-28 -96h58zM355 384l-30 -97h88l30 97h-88z" />
    <glyph glyph-name="dollar" unicode="$" horiz-adv-x="621" 
d="M364 761q21 0 29.5 -8t8.5 -30v-34q122 -21 172 -122q10 -21 5 -33t-28 -22l-97 -43q-20 -9 -31 -5t-22 26q-14 26 -33.5 37.5t-56.5 11.5q-44 0 -63.5 -10.5t-19.5 -34.5q0 -23 25.5 -33.5t77.5 -17.5q27 -3 38 -5l38.5 -7t41 -9.5t37 -13.5t36 -19.5t29 -26.5t24.5 -35
t14 -45t6 -56q0 -82 -49.5 -133.5t-143.5 -68.5v-35q0 -22 -8.5 -30.5t-29.5 -8.5h-104q-22 0 -30 8.5t-8 30.5v33q-150 22 -192 138q-14 39 26 53l93 33q22 9 34.5 4.5t22.5 -25.5q23 -49 99 -49q95 0 95 48q0 23 -24 33.5t-73 16.5q-115 17 -162 39q-109 50 -109 179
q0 80 48.5 130.5t141.5 66.5v34q0 22 8 30t30 8h104z" />
    <glyph glyph-name="percent" unicode="%" horiz-adv-x="903" 
d="M25 569q0 73 46 114.5t132 41.5t132 -41.5t46 -114.5v-76q0 -72 -46 -113t-132 -41t-132 41t-46 113v76zM763 710q21 0 26.5 -12t-6.5 -28l-464 -633q-18 -24 -32 -30.5t-51 -6.5h-91q-22 0 -28 13t7 29l465 633q16 23 29.5 29t48.5 6h96zM245 560q0 36 -42 36
q-43 0 -43 -36v-56q0 -37 43 -37q42 0 42 37v56zM522 215q0 74 46 115.5t132 41.5t132 -41.5t46 -115.5v-75q0 -73 -46 -114t-132 -41t-132 41t-46 114v75zM743 206q0 36 -42 36q-43 0 -43 -36v-56q0 -36 43 -36q42 0 42 36v56z" />
    <glyph glyph-name="ampersand" unicode="&#x26;" horiz-adv-x="698" 
d="M95 527q0 83 55 140.5t154 57.5q85 0 143.5 -53.5t58.5 -133.5q0 -113 -105 -175l-9 -5l65 -70l48 48q25 25 50 0l72 -71q20 -21 -3 -44l-55 -54l120 -130q15 -15 10.5 -26t-27.5 -11h-129q-36 0 -56 22l-33 35q-50 -41 -96 -56.5t-102 -15.5q-106 0 -170.5 60t-64.5 162
q0 124 119 191q-45 57 -45 129zM346 540q0 19 -11.5 30.5t-30.5 11.5q-21 0 -33 -13t-12 -33q0 -31 28 -64l21 11q38 22 38 57zM248 280q-50 -25 -50 -74q0 -29 19 -47t50 -18q37 0 77 36z" />
    <glyph glyph-name="quotesingle" unicode="'" horiz-adv-x="228" 
d="M177 478q-2 -21 -9.5 -26.5t-30.5 -5.5h-61q-22 0 -28.5 5.5t-6.5 26.5v198q0 22 6.5 28t28.5 6h88q22 0 29.5 -6.5t5.5 -27.5z" />
    <glyph glyph-name="parenleft" unicode="(" horiz-adv-x="318" 
d="M41 595q0 104 38 167.5t114 98.5q20 8 30.5 2.5t21.5 -27.5l48 -98q8 -21 4 -30.5t-25 -21.5q-50 -27 -50 -96v-469q0 -38 11.5 -59.5t38.5 -36.5q21 -12 25.5 -22t-4.5 -30l-48 -99q-11 -21 -21.5 -26.5t-30.5 2.5q-76 35 -114 98.5t-38 167.5v479z" />
    <glyph glyph-name="parenright" unicode=")" horiz-adv-x="318" 
d="M73 836q11 22 21.5 27.5t30.5 -2.5q75 -35 113 -98.5t38 -167.5v-479q0 -104 -38 -167.5t-113 -98.5q-20 -8 -30.5 -2.5t-21.5 26.5l-48 99q-9 21 -4.5 30.5t25.5 21.5q27 14 38 35.5t11 60.5v469q0 38 -11.5 60t-37.5 36q-21 12 -25.5 21.5t4.5 30.5z" />
    <glyph glyph-name="asterisk" unicode="*" horiz-adv-x="349" 
d="M193 680q31 0 25 -29l-11 -69l62 32q15 8 23 4.5t13 -19.5l13 -37q9 -28 -21 -32l-69 -11l49 -49q23 -22 -2 -38l-32 -22q-25 -18 -39 8l-30 60l-31 -60q-13 -29 -36 -11l-34 25q-23 18 -2 38l50 49l-69 11q-30 4 -21 33l13 36q9 29 36 15l62 -32l-12 69q-6 29 24 29h39z
" />
    <glyph glyph-name="plus" unicode="+" horiz-adv-x="552" 
d="M484 410q24 0 33 -9.5t9 -33.5v-79q0 -24 -9 -33.5t-33 -9.5h-126v-126q0 -24 -9.5 -33t-33.5 -9h-79q-24 0 -33.5 9t-9.5 33v126h-125q-24 0 -33 9.5t-9 33.5v79q0 24 9 33.5t33 9.5h125v125q0 24 9.5 33t33.5 9h79q24 0 33.5 -9t9.5 -33v-125h126z" />
    <glyph glyph-name="comma" unicode="," horiz-adv-x="261" 
d="M154 -84q-8 -21 -19 -29.5t-34 -8.5h-56q-19 0 -24.5 6t-3.5 23l28 228q3 28 14 39.5t37 11.5h93q57 0 39 -51z" />
    <glyph glyph-name="hyphen" unicode="-" horiz-adv-x="402" 
d="M317 349q23 0 32.5 -9t9.5 -33v-85q0 -24 -9.5 -33t-32.5 -9h-232q-23 0 -32.5 9t-9.5 33v85q0 24 9.5 33t32.5 9h232z" />
    <glyph glyph-name="period" unicode="." horiz-adv-x="263" 
d="M151 190q44 0 61 -17.5t17 -61.5v-41q0 -44 -17 -61t-61 -17h-38q-45 0 -62 17t-17 61v41q0 44 17 61.5t62 17.5h38z" />
    <glyph glyph-name="slash" unicode="/" horiz-adv-x="493" 
d="M211 -25q-8 -20 -18.5 -27.5t-32.5 -7.5h-112q-21 0 -27 8.5t1 26.5l261 700q8 21 18.5 28t32.5 7h112q21 0 26.5 -8t-1.5 -27z" />
    <glyph glyph-name="zero" unicode="0" horiz-adv-x="648" 
d="M39 465q0 120 75 190t210 70t210 -70t75 -190v-219q0 -122 -75 -191.5t-210 -69.5t-210 69.5t-75 191.5v219zM411 473q0 37 -23 57t-64 20t-64 -20t-23 -57v-235q0 -37 23 -57.5t64 -20.5t64 20.5t23 57.5v235z" />
    <glyph glyph-name="one" unicode="1" horiz-adv-x="449" 
d="M346 710q24 0 33 -9.5t9 -32.5v-626q0 -23 -9 -32.5t-33 -9.5h-113q-24 0 -33.5 9.5t-9.5 32.5v417l-67 -38q-43 -24 -65 17l-47 85q-10 22 -5.5 33.5t25.5 24.5l195 112q28 17 60 17h60z" />
    <glyph glyph-name="two" unicode="2" horiz-adv-x="613" 
d="M39 550q69 175 279 175q122 0 193 -66t71 -166q0 -111 -52 -167t-174 -99q-13 -4 -32.5 -9.5t-32.5 -9.5t-26.5 -9t-20 -11t-6.5 -13v-6h287q24 0 33.5 -9.5t9.5 -33.5v-84q0 -23 -9.5 -32.5t-33.5 -9.5h-450q-24 0 -33.5 9.5t-9.5 32.5v80q0 48 15.5 85t48.5 63.5t59 41
t71 33.5q35 15 48 21t39.5 20.5t37 26t20 30.5t9.5 41q0 29 -18 47.5t-50 18.5q-31 0 -50.5 -15t-36.5 -51q-11 -24 -21 -29t-33 2l-106 39q-22 8 -28 20t2 34z" />
    <glyph glyph-name="three" unicode="3" horiz-adv-x="626" 
d="M574 518q0 -95 -78 -146q99 -52 99 -168q0 -105 -67.5 -162t-202.5 -57q-231 0 -295 175q-15 40 27 54l98 35q23 8 34 2.5t20 -29.5q24 -65 101 -65q78 0 78 59t-66 59h-61q-24 0 -33 9.5t-9 32.5v83q0 24 9 33.5t33 9.5h44q68 0 68 55t-68 55q-40 0 -60 -14.5t-34 -50.5
q-8 -23 -20 -29t-34 2l-98 35q-22 7 -28.5 19.5t1.5 34.5q66 175 295 175q118 0 182.5 -56t64.5 -151z" />
    <glyph glyph-name="four" unicode="4" horiz-adv-x="657" 
d="M598 295q23 0 32.5 -9.5t9.5 -32.5v-70q0 -23 -9.5 -32.5t-32.5 -9.5h-51v-99q0 -23 -9.5 -32.5t-32.5 -9.5h-103q-24 0 -33 9.5t-9 32.5v99h-303q-23 0 -32.5 9.5t-9.5 32.5v66q0 26 4 38.5t18 29.5l304 363q15 18 28 24t37 6h99q23 0 32.5 -9.5t9.5 -32.5v-373h51z
M360 464l-140 -169h140v169z" />
    <glyph glyph-name="five" unicode="5" horiz-adv-x="613" 
d="M513 711q24 0 33.5 -9.5t9.5 -33.5v-90q0 -24 -9.5 -33t-33.5 -9h-248l-7 -70h67q131 0 196.5 -66t65.5 -172t-72.5 -174.5t-198.5 -68.5q-120 0 -189.5 40t-101.5 125q-8 23 -2 34.5t28 19.5l107 40q20 8 31.5 3t20.5 -28q23 -56 97 -56t74 74q0 68 -80 68h-208
q-27 0 -36.5 11.5t-7.5 37.5l31 297q4 34 18 47t49 13h366z" />
    <glyph glyph-name="six" unicode="6" horiz-adv-x="651" 
d="M236 443q40 8 104 8q143 0 211 -56.5t68 -174.5q0 -113 -76.5 -174t-213.5 -61q-142 0 -216 69.5t-74 199.5v202q0 130 74.5 199.5t215.5 69.5q217 0 279 -159q8 -23 2 -34.5t-29 -19.5l-95 -37q-23 -7 -32.5 -1t-22.5 29q-23 47 -99 47q-50 0 -73 -22t-23 -71v-14z
M236 232q0 -78 93 -78q50 0 71.5 16.5t21.5 48.5q0 33 -21 48t-72 15q-59 0 -93 -12v-38z" />
    <glyph glyph-name="seven" unicode="7" horiz-adv-x="568" 
d="M513 710q24 0 33 -9.5t9 -32.5v-68q0 -33 -12 -59l-237 -504q-11 -23 -25.5 -30t-53.5 -7h-110q-40 0 -21 42l230 493h-266q-24 0 -33.5 9.5t-9.5 33.5v90q0 23 9.5 32.5t33.5 9.5h453z" />
    <glyph glyph-name="eight" unicode="8" horiz-adv-x="648" 
d="M54 511q0 101 72 157.5t197 56.5q132 0 201.5 -52t69.5 -149q0 -86 -71 -147q94 -56 94 -169q0 -104 -71.5 -163.5t-222.5 -59.5q-293 0 -293 204q0 105 99 166q-75 52 -75 156zM398 507q0 53 -74 53q-70 0 -70 -53q0 -25 17 -38.5t54 -24.5l30 -8q43 28 43 71zM411 206
q0 8 -1.5 14.5t-5.5 11.5t-7.5 9.5t-12 8.5t-14 6.5t-18.5 7t-21 6.5t-25 7t-28 8q-50 -33 -50 -77q0 -60 94 -60q89 0 89 58z" />
    <glyph glyph-name="nine" unicode="9" horiz-adv-x="651" 
d="M415 267q-40 -8 -104 -8q-143 0 -211 56.5t-68 174.5q0 113 76.5 174t213.5 61q142 0 216 -69.5t74 -199.5v-202q0 -130 -74.5 -199.5t-215.5 -69.5q-217 0 -279 159q-8 23 -2 34.5t29 19.5l95 37q23 7 32.5 1t22.5 -29q24 -47 99 -47q50 0 73 22t23 71v14zM415 478
q0 78 -93 78q-50 0 -71.5 -16.5t-21.5 -48.5q0 -33 21 -48t72 -15q59 0 93 12v38z" />
    <glyph glyph-name="colon" unicode=":" horiz-adv-x="284" 
d="M161 540q45 0 62 -17.5t17 -61.5v-41q0 -44 -17 -61t-62 -17h-38q-45 0 -62 17t-17 61v41q0 44 17 61.5t62 17.5h38zM161 190q45 0 62 -17.5t17 -61.5v-41q0 -44 -17 -61t-62 -17h-38q-45 0 -62 17t-17 61v41q0 44 17 61.5t62 17.5h38z" />
    <glyph glyph-name="semicolon" unicode=";" horiz-adv-x="285" 
d="M169 540q45 0 62 -17.5t17 -61.5v-41q0 -44 -17 -61t-62 -17h-38q-44 0 -61.5 17t-17.5 61v41q0 44 17.5 61.5t61.5 17.5h38zM160 -84q-8 -21 -19 -29.5t-34 -8.5h-56q-18 0 -23.5 6t-4.5 23l28 228q3 28 14.5 39.5t37.5 11.5h92q57 0 39 -51z" />
    <glyph glyph-name="less" unicode="&#x3c;" horiz-adv-x="493" 
d="M403 605q44 25 44 -32v-95q0 -33 -7.5 -45t-30.5 -24l-162 -78v-4l161 -78q24 -12 31.5 -24t7.5 -45v-101q0 -57 -44 -32l-346 189q-20 10 -27 20.5t-7 31.5v76q0 21 7.5 32t26.5 21z" />
    <glyph glyph-name="equal" unicode="=" horiz-adv-x="596" 
d="M506 523q24 0 33 -9.5t9 -33.5v-85q0 -23 -9 -32.5t-33 -9.5h-416q-24 0 -33 9.5t-9 32.5v85q0 24 9 33.5t33 9.5h416zM506 300q24 0 33 -9.5t9 -32.5v-85q0 -24 -9 -33.5t-33 -9.5h-416q-24 0 -33 9.5t-9 33.5v85q0 23 9 32.5t33 9.5h416z" />
    <glyph glyph-name="greater" unicode="&#x3e;" horiz-adv-x="493" 
d="M46 574q0 28 9.5 35.5t34.5 -4.5l346 -188q19 -10 26.5 -21t7.5 -31v-77q0 -21 -7 -31.5t-27 -20.5l-346 -189q-25 -12 -34.5 -4.5t-9.5 36.5v99q0 33 7.5 45t31.5 24l160 77v5l-161 78q-24 12 -31 24t-7 45v98z" />
    <glyph glyph-name="question" unicode="?" horiz-adv-x="593" 
d="M25 564q71 175 280 175q123 0 193.5 -57.5t70.5 -150.5q0 -41 -11.5 -74t-34 -55.5t-41.5 -36t-48.5 -30t-40.5 -23.5q-37 -25 -37 -55q0 -23 -9 -31.5t-32 -8.5h-90q-23 0 -32 8.5t-9 31.5q0 65 22.5 101.5t61.5 59.5q10 6 29.5 16.5t29.5 17.5t22.5 18t18 25.5
t5.5 33.5q0 26 -17.5 41.5t-51.5 15.5q-38 0 -60 -19.5t-43 -65.5q-11 -24 -21 -29t-33 2l-96 36q-41 14 -26 54zM297 183q44 0 61 -17t17 -61v-35q0 -44 -17 -61t-61 -17h-50q-45 0 -62 17t-17 61v35q0 44 17 61t62 17h50z" />
    <glyph glyph-name="at" unicode="@" horiz-adv-x="905" 
d="M31 330q0 182 108.5 288.5t310.5 106.5q203 0 311.5 -106t108.5 -289v-75q0 -102 -51.5 -160.5t-129.5 -58.5q-32 0 -51 8.5t-41 28.5q-77 -25 -175 -25q-190 0 -190 176v136q0 177 190 177q114 0 199 -33q21 -8 27 -17.5t6 -31.5v-271q0 -30 34 -30q22 0 37.5 23.5
t15.5 75.5v79q0 132 -74.5 205.5t-216.5 73.5q-141 0 -215.5 -73.5t-74.5 -205.5v-79q0 -131 74 -200.5t216 -69.5q89 0 218 21q20 4 26 0t6 -21v-55q0 -19 -6 -26t-24 -11q-95 -23 -220 -23q-203 0 -311 103t-108 284v75zM509 407q-24 6 -71 6q-37 0 -53 -13.5t-16 -42.5
v-130q0 -29 16 -42t53 -13q61 0 79 6v220q0 8 -8 9z" />
    <glyph glyph-name="A" unicode="A" horiz-adv-x="688" 
d="M684 41q15 -41 -29 -41h-108q-38 0 -53.5 9t-21.5 33l-23 72h-216l-23 -72q-8 -24 -22.5 -33t-50.5 -9h-105q-42 0 -27 41l230 634q7 21 18 28t34 7h114q22 0 33.5 -7t18.5 -26zM367 388q-9 30 -14.5 65t-6.5 55l-1 20h-10q1 -72 -19 -139l-37 -118h125z" />
    <glyph glyph-name="B" unicode="B" horiz-adv-x="658" 
d="M386 711q104 0 162.5 -49.5t58.5 -140.5q0 -98 -72 -147v-4q101 -44 101 -172q0 -94 -68.5 -146t-177.5 -52h-297q-24 0 -33.5 9.5t-9.5 32.5v626q0 24 9.5 33.5t33.5 9.5h293zM406 494q0 56 -61 56h-97v-110h97q61 0 61 54zM428 221q0 58 -64 58h-116v-117h116
q64 0 64 59z" />
    <glyph glyph-name="C" unicode="C" horiz-adv-x="651" 
d="M33 445q0 131 80.5 205.5t227.5 74.5q226 0 292 -175q8 -22 1.5 -34.5t-28.5 -19.5l-107 -38q-23 -7 -34.5 -1.5t-19.5 28.5q-26 65 -104 65q-58 0 -84 -25.5t-26 -78.5v-182q0 -53 26 -78.5t84 -25.5q80 0 104 65q9 24 20 29.5t34 -2.5l107 -38q22 -7 28.5 -19.5
t-1.5 -34.5q-66 -175 -292 -175q-147 0 -227.5 74.5t-80.5 205.5v180z" />
    <glyph glyph-name="D" unicode="D" horiz-adv-x="677" 
d="M337 710q146 0 226.5 -74.5t80.5 -205.5v-150q0 -130 -80.5 -205t-226.5 -75h-244q-24 0 -33.5 9.5t-9.5 32.5v626q0 23 9.5 32.5t33.5 9.5h244zM446 427q0 108 -116 108h-82v-360h82q116 0 116 108v144z" />
    <glyph glyph-name="E" unicode="E" horiz-adv-x="588" 
d="M512 710q24 0 33.5 -9.5t9.5 -32.5v-90q0 -24 -9.5 -33.5t-33.5 -9.5h-264v-89h211q24 0 33.5 -9.5t9.5 -32.5v-90q0 -24 -9.5 -33.5t-33.5 -9.5h-211v-96h273q23 0 32.5 -9t9.5 -33v-91q0 -23 -9.5 -32.5t-32.5 -9.5h-428q-24 0 -33.5 9.5t-9.5 32.5v626q0 23 9.5 32.5
t33.5 9.5h419z" />
    <glyph glyph-name="F" unicode="F" horiz-adv-x="575" 
d="M512 710q24 0 33.5 -9.5t9.5 -32.5v-90q0 -24 -9.5 -33.5t-33.5 -9.5h-264v-116h211q24 0 33.5 -9.5t9.5 -32.5v-90q0 -24 -9.5 -33.5t-33.5 -9.5h-211v-202q0 -23 -9 -32.5t-33 -9.5h-113q-24 0 -33.5 9.5t-9.5 32.5v626q0 23 9.5 32.5t33.5 9.5h419z" />
    <glyph glyph-name="G" unicode="G" horiz-adv-x="677" 
d="M606 408q24 0 33 -9.5t9 -33.5v-132q0 -109 -81.5 -178.5t-225.5 -69.5q-147 0 -227.5 74.5t-80.5 205.5v180q0 131 80.5 205.5t227.5 74.5q226 0 292 -175q8 -22 1.5 -34.5t-28.5 -19.5l-107 -38q-23 -8 -34.5 -2t-19.5 29q-26 65 -104 65q-58 0 -84 -25.5t-26 -78.5
v-182q0 -53 26 -78.5t84 -25.5q50 0 79 18t29 50v20h-96q-23 0 -32.5 9t-9.5 33v75q0 24 9.5 33.5t32.5 9.5h253z" />
    <glyph glyph-name="H" unicode="H" horiz-adv-x="690" 
d="M598 711q23 0 32.5 -9.5t9.5 -33.5v-626q0 -23 -9.5 -32.5t-32.5 -9.5h-114q-23 0 -32.5 9.5t-9.5 32.5v230h-194v-230q0 -23 -9 -32.5t-33 -9.5h-113q-24 0 -33.5 9.5t-9.5 32.5v626q0 24 9.5 33.5t33.5 9.5h113q24 0 33 -9.5t9 -33.5v-221h194v221q0 24 9.5 33.5
t32.5 9.5h114z" />
    <glyph glyph-name="I" unicode="I" horiz-adv-x="299" 
d="M50 670q0 22 9 31t31 9h118q22 0 31 -9t9 -31v-630q0 -22 -9 -31t-31 -9h-118q-22 0 -31 9t-9 31v630z" />
    <glyph glyph-name="J" unicode="J" horiz-adv-x="587" 
d="M500 711q23 0 32 -9.5t9 -32.5v-422q0 -125 -70.5 -193.5t-204.5 -68.5q-198 0 -260 169q-15 39 26 54l104 37q22 8 34.5 3t21.5 -27q26 -61 78 -61q73 0 73 86v423q0 23 9 32.5t33 9.5h115z" />
    <glyph glyph-name="K" unicode="K" horiz-adv-x="655" 
d="M644 49q11 -20 4.5 -34.5t-30.5 -14.5h-108q-41 0 -59 8t-30 34l-87 179q-13 27 -27 38.5t-41 11.5h-18v-229q0 -23 -9 -32.5t-33 -9.5h-113q-24 0 -33.5 9.5t-9.5 32.5v626q0 23 9.5 32.5t33.5 9.5h113q24 0 33 -9.5t9 -32.5v-222h14h8l144 227q15 24 28.5 30.5
t51.5 6.5h115q23 0 29.5 -12t-5.5 -32l-182 -290q35 -25 61 -77z" />
    <glyph glyph-name="L" unicode="L" horiz-adv-x="542" 
d="M206 710q24 0 33 -9.5t9 -32.5v-493h241q23 0 32.5 -9t9.5 -33v-91q0 -23 -9.5 -32.5t-32.5 -9.5h-396q-24 0 -33.5 9.5t-9.5 32.5v626q0 23 9.5 32.5t33.5 9.5h113z" />
    <glyph glyph-name="M" unicode="M" horiz-adv-x="825" 
d="M732 711q24 0 33.5 -9t9.5 -33v-628q0 -23 -9.5 -32t-33.5 -9h-109q-24 0 -33 9t-9 32v143q0 108 44 262h-11q-8 -26 -30 -81t-37 -84l-56 -113q-9 -16 -19 -22.5t-29 -6.5h-67q-20 0 -30 6t-18 23l-59 113q-31 56 -62 165h-10q41 -164 41 -263v-142q0 -23 -9.5 -32
t-33.5 -9h-102q-24 0 -33.5 9t-9.5 32v628q0 24 9.5 33t33.5 9h94q26 0 37 -6t22 -25l165 -324l165 323q10 20 20.5 26t35.5 6h100z" />
    <glyph glyph-name="N" unicode="N" horiz-adv-x="700" 
d="M608 710q23 0 32.5 -9.5t9.5 -32.5v-626q0 -23 -9.5 -32.5t-32.5 -9.5h-113q-28 0 -41 20l-154 237q-31 49 -48.5 91t-39.5 115h-8q14 -62 19 -88t9.5 -71.5t4.5 -98.5v-163q0 -23 -9.5 -32.5t-33.5 -9.5h-101q-24 0 -33.5 9.5t-9.5 32.5v626q0 23 9.5 32.5t33.5 9.5h118
q29 0 42 -20l164 -256q16 -24 28 -48t18.5 -40t17.5 -45t20 -50h8q-26 85 -35.5 133t-9.5 120v164q0 23 9 32.5t33 9.5h102z" />
    <glyph glyph-name="O" unicode="O" horiz-adv-x="682" 
d="M33 445q0 131 80.5 205.5t227.5 74.5q146 0 226.5 -74.5t80.5 -205.5v-180q0 -131 -80.5 -205.5t-226.5 -74.5q-147 0 -227.5 74.5t-80.5 205.5v180zM450 454q0 47 -28.5 71.5t-80.5 24.5q-53 0 -81.5 -24.5t-28.5 -71.5v-198q0 -47 28.5 -71.5t81.5 -24.5
q52 0 80.5 24.5t28.5 71.5v198z" />
    <glyph glyph-name="P" unicode="P" horiz-adv-x="647" 
d="M369 710q118 0 188 -66t70 -184q0 -117 -69 -182t-187 -65h-123v-171q0 -23 -9 -32.5t-33 -9.5h-113q-24 0 -33.5 9.5t-9.5 32.5v626q0 23 9.5 32.5t33.5 9.5h276zM347 388q35 0 55 20t20 53t-20 53.5t-55 20.5h-99v-147h99z" />
    <glyph glyph-name="Q" unicode="Q" horiz-adv-x="695" 
d="M657 35q15 -18 14 -31t-19 -29l-74 -58q-32 -28 -59 5l-65 77q-51 -14 -113 -14q-147 0 -227.5 74.5t-80.5 205.5v180q0 131 80.5 205.5t227.5 74.5q146 0 226.5 -74.5t80.5 -205.5v-180q0 -100 -46 -165zM231 256q0 -47 28.5 -71.5t81.5 -24.5q52 0 80.5 24.5t28.5 71.5
v198q0 47 -28.5 71.5t-80.5 24.5q-53 0 -81.5 -24.5t-28.5 -71.5v-198z" />
    <glyph glyph-name="R" unicode="R" horiz-adv-x="661" 
d="M378 710q115 0 182 -63t67 -178q0 -146 -108 -206q16 -20 27 -43l90 -171q11 -20 4.5 -34.5t-30.5 -14.5h-108q-39 0 -59.5 10.5t-32.5 37.5l-64 137q-14 27 -30 39t-45 12h-23v-194q0 -23 -9 -32.5t-33 -9.5h-113q-24 0 -33.5 9.5t-9.5 32.5v626q0 23 9.5 32.5t33.5 9.5
h285zM422 470q0 30 -17 47.5t-49 17.5h-108v-132h108q31 0 48.5 18t17.5 49z" />
    <glyph glyph-name="S" unicode="S" horiz-adv-x="647" 
d="M28 501q0 101 78.5 162.5t218.5 61.5q110 0 177 -34t102 -106q19 -39 -24 -56l-100 -43q-20 -9 -31 -5t-23 26q-26 52 -101 52q-95 0 -95 -52q0 -29 32 -41t99 -20q44 -6 73 -12t69.5 -22.5t64.5 -39.5t41.5 -64t17.5 -95q0 -107 -86.5 -167.5t-223.5 -60.5
q-234 0 -291 155q-8 23 -1.5 35t28.5 20l94 34q22 8 35 3.5t24 -25.5q27 -53 113 -53q107 0 107 57q0 27 -29 39t-88 20q-28 4 -41 6t-41 7.5t-43.5 10.5t-39.5 15t-38 21t-31 28t-25.5 37.5t-15 47t-6.5 58.5z" />
    <glyph glyph-name="T" unicode="T" horiz-adv-x="603" 
d="M549 710q24 0 33.5 -9.5t9.5 -32.5v-90q0 -24 -9.5 -33.5t-33.5 -9.5h-148v-493q0 -23 -9.5 -32.5t-33.5 -9.5h-113q-24 0 -33 9.5t-9 32.5v493h-149q-24 0 -33 9.5t-9 33.5v90q0 23 9 32.5t33 9.5h495z" />
    <glyph glyph-name="U" unicode="U" horiz-adv-x="692" 
d="M243 252q0 -92 103 -92q104 0 104 92v416q0 23 9 32.5t33 9.5h113q24 0 33.5 -9.5t9.5 -32.5v-407q0 -128 -78 -202t-224 -74q-145 0 -223 74t-78 202v407q0 23 9 32.5t33 9.5h113q24 0 33.5 -9.5t9.5 -32.5v-416z" />
    <glyph glyph-name="V" unicode="V" horiz-adv-x="682" 
d="M650 710q42 0 27 -41l-221 -634q-7 -21 -18 -28t-34 -7h-125q-22 0 -33.5 7t-18.5 26l-222 636q-15 41 29 41h114q38 0 53.5 -9t21.5 -33l95 -342q7 -26 12.5 -58.5t7.5 -51.5l2 -19h9q4 69 21 128l95 343q6 24 21 33t51 9h113z" />
    <glyph glyph-name="W" unicode="W" horiz-adv-x="939" 
d="M899 710q22 0 27.5 -10t-0.5 -31l-159 -634q-5 -21 -16.5 -28t-34.5 -7h-117q-44 0 -52 33l-54 233q-17 84 -19 180h-8q-3 -93 -22 -180l-53 -231q-6 -21 -17.5 -28t-34.5 -7h-115q-45 0 -52 33l-158 636q-6 21 -0.5 31t27.5 10h123q28 0 40 -7.5t16 -29.5l44 -262
q14 -81 14 -177h7q0 92 19 177l62 262q5 23 17.5 30t38.5 7h108q25 0 38 -7.5t18 -29.5l61 -262q16 -74 19 -177h8q3 98 15 177l42 262q4 22 16.5 29.5t40.5 7.5h111z" />
    <glyph glyph-name="X" unicode="X" horiz-adv-x="664" 
d="M655 42q13 -16 7.5 -29t-28.5 -13h-129q-39 0 -53.5 6t-28.5 31l-95 164l-92 -164q-15 -24 -29 -30.5t-54 -6.5h-123q-22 0 -27.5 12t6.5 30l205 320l-196 308q-11 16 -5.5 28t26.5 12h119q40 0 54.5 -6t28.5 -29l90 -154l89 154q14 24 27.5 29.5t49.5 5.5h128
q20 0 25.5 -12t-5.5 -28l-198 -308z" />
    <glyph glyph-name="Y" unicode="Y" horiz-adv-x="675" 
d="M646 710q22 0 27 -12.5t-6 -29.5l-231 -393v-233q0 -23 -9 -32.5t-33 -9.5h-113q-24 0 -33.5 9.5t-9.5 32.5v233l-230 393q-11 17 -6 29.5t27 12.5h120q40 0 54.5 -6t28.5 -31l107 -204l110 204q14 25 28.5 31t53.5 6h115z" />
    <glyph glyph-name="Z" unicode="Z" horiz-adv-x="611" 
d="M537 710q24 0 33 -9.5t9 -32.5v-60q0 -25 -13 -44l-277 -389h253q24 0 33 -9t9 -33v-91q0 -23 -9 -32.5t-33 -9.5h-474q-23 0 -32.5 9.5t-9.5 32.5v61q0 23 14 42l277 390h-244q-23 0 -32.5 9.5t-9.5 33.5v90q0 23 9.5 32.5t32.5 9.5h464z" />
    <glyph glyph-name="bracketleft" unicode="[" horiz-adv-x="354" 
d="M300 856q24 0 30.5 -6.5t6.5 -30.5v-69q0 -24 -6.5 -30.5t-30.5 -6.5h-71v-715h71q24 0 30.5 -6.5t6.5 -30.5v-71q0 -24 -6.5 -30.5t-30.5 -6.5h-212q-24 0 -31 7t-7 31v927q0 23 7 30.5t31 7.5h212z" />
    <glyph glyph-name="backslash" unicode="\" horiz-adv-x="494" 
d="M22 675q-7 18 -1.5 26.5t26.5 8.5h112q22 0 33 -7t18 -28l262 -700q7 -18 1.5 -26.5t-26.5 -8.5h-112q-22 0 -33 7.5t-18 27.5z" />
    <glyph glyph-name="bracketright" unicode="]" horiz-adv-x="354" 
d="M266 856q24 0 31 -7.5t7 -30.5v-927q0 -24 -7 -31t-31 -7h-212q-24 0 -30.5 6.5t-6.5 30.5v71q0 24 6.5 30.5t30.5 6.5h71v715h-71q-24 0 -30.5 6.5t-6.5 30.5v69q0 24 6.5 30.5t30.5 6.5h212z" />
    <glyph glyph-name="asciicircum" unicode="^" horiz-adv-x="636" 
d="M350 810q24 0 35 -6.5t29 -27.5l183 -211q36 -45 -21 -45h-105q-35 0 -49.5 6t-31.5 28l-71 94h-4l-74 -94q-18 -22 -33 -28t-50 -6h-98q-27 0 -33 12t12 33l182 211q17 20 30 27t35 7h64z" />
    <glyph glyph-name="underscore" unicode="_" horiz-adv-x="505" 
d="M450 0q24 0 33 -9.5t9 -32.5v-85q0 -24 -9 -33t-33 -9h-395q-24 0 -33 9t-9 33v85q0 23 9 32.5t33 9.5h395z" />
    <glyph glyph-name="grave" unicode="`" horiz-adv-x="257" 
d="M60 732q25 27 66 2l139 -84q13 -7 13.5 -15.5t-11.5 -22.5l-28 -33q-12 -15 -47 -3l-180 60q-12 4 -15.5 10t-1 12.5t11.5 17.5z" />
    <glyph glyph-name="a" unicode="a" horiz-adv-x="529" 
d="M40 431q54 104 222 104q126 0 179.5 -56.5t53.5 -159.5v-246q0 -27 -7.5 -39t-30.5 -21q-66 -28 -198 -28q-136 0 -187 39t-51 127q0 95 55.5 131t187.5 36q9 0 24.5 -0.5t20.5 -0.5v25q0 51 -56 51q-40 0 -65 -34q-11 -15 -20.5 -18t-34.5 5l-72 30q-21 9 -26 21t5 34z
M309 191q-13 1 -53 1q-53 0 -53 -40q0 -19 11 -29.5t40 -10.5q35 0 50 3q5 0 5 5v71z" />
    <glyph glyph-name="b" unicode="b" horiz-adv-x="548" 
d="M188 739q22 0 30.5 -8t8.5 -30v-172q42 6 68 6q113 0 169 -55.5t56 -159.5v-108q0 -227 -244 -227q-118 0 -197 34q-25 12 -32 22.5t-7 36.5v623q0 22 8.5 30t30.5 8h109zM334 324q0 50 -57 50q-19 0 -50 -7v-210q0 -4 2 -5q14 -5 43 -5q62 0 62 55v122z" />
    <glyph glyph-name="c" unicode="c" horiz-adv-x="522" 
d="M28 315q0 104 61.5 162t186.5 58q89 0 146 -38.5t79 -100.5q7 -23 1 -34.5t-28 -19.5l-93 -31q-23 -7 -34.5 -1.5t-20.5 28.5q-16 41 -59 41q-53 0 -53 -54v-130q0 -54 53 -54q43 0 59 41q9 22 20.5 27.5t34.5 -2.5l96 -29q43 -13 26 -55q-57 -138 -238 -138
q-120 0 -178.5 57.5t-58.5 163.5v109z" />
    <glyph glyph-name="d" unicode="d" horiz-adv-x="548" 
d="M28 309q0 110 57.5 168t168.5 58q10 0 67 -3v170q0 21 8.5 29.5t30.5 8.5h109q22 0 30.5 -8.5t8.5 -29.5v-625q0 -25 -8 -35.5t-34 -21.5q-89 -35 -206 -35t-174.5 56t-57.5 160v108zM321 369q-23 5 -44 5q-62 0 -62 -55v-123q0 -49 57 -49q28 0 46 4q3 1 3 5v213z" />
    <glyph glyph-name="e" unicode="e" horiz-adv-x="549" 
d="M27 304q0 112 64 171.5t186 59.5q124 0 187.5 -61.5t63.5 -157.5v-55q0 -52 -55 -52h-260v-19q0 -65 65 -65q51 0 80 37q10 15 20.5 17.5t35.5 -7.5l69 -30q40 -19 19 -58q-57 -99 -226 -99q-128 0 -188.5 63t-60.5 168v88zM341 343q0 60 -64 60t-64 -60v-13h128v13z" />
    <glyph glyph-name="f" unicode="f" horiz-adv-x="388" 
d="M340 740q22 0 30.5 -8.5t8.5 -30.5v-73q0 -23 -8.5 -31.5t-30.5 -8.5q-36 0 -52 -15.5t-16 -48.5v-4h69q22 0 30 -8.5t8 -29.5v-75q0 -22 -8 -30.5t-30 -8.5h-69v-330q0 -21 -8.5 -29.5t-30.5 -8.5h-108q-22 0 -30.5 8.5t-8.5 29.5v330h-33q-22 0 -30 8.5t-8 30.5v75
q0 21 8 29.5t30 8.5h33v2q0 216 236 218h18z" />
    <glyph glyph-name="g" unicode="g" horiz-adv-x="547" 
d="M27 309q0 111 61 168.5t183 57.5q125 0 197 -34q25 -11 32 -22t7 -36v-442q0 -106 -58.5 -168.5t-182.5 -62.5q-160 0 -223 99q-23 36 19 58l84 41q34 17 54 -10q28 -36 65 -36q55 0 55 58v40q-40 -6 -68 -6q-113 0 -169 55.5t-56 159.5v80zM317 369q-15 4 -41 4
q-62 0 -62 -55v-93q0 -50 57 -50q9 0 18.5 1t18.5 2.5t12 1.5v184q0 4 -3 5z" />
    <glyph glyph-name="h" unicode="h" horiz-adv-x="558" 
d="M190 740q22 0 30 -8.5t8 -29.5v-171q36 4 68 4q113 0 169 -56t56 -160v-281q0 -21 -8 -29.5t-30 -8.5h-110q-21 0 -29.5 8.5t-8.5 29.5v274q0 55 -60 55q-31 0 -47 -4v-325q0 -21 -8 -29.5t-30 -8.5h-110q-22 0 -30 8.5t-8 29.5v664q0 21 8 29.5t30 8.5h110z" />
    <glyph glyph-name="i" unicode="i" horiz-adv-x="269" 
d="M160 722q42 0 58 -16t16 -58v-11q0 -42 -16 -58t-58 -16h-50q-43 0 -59 16t-16 58v11q0 42 16 58t59 16h50zM189 520q22 0 30.5 -8.5t8.5 -29.5v-444q0 -21 -8.5 -29.5t-30.5 -8.5h-109q-22 0 -30.5 8.5t-8.5 29.5v444q0 21 8.5 29.5t30.5 8.5h109z" />
    <glyph glyph-name="j" unicode="j" horiz-adv-x="271" 
d="M160 722q43 0 58.5 -16t15.5 -58v-11q0 -42 -15.5 -58t-58.5 -16h-50q-43 0 -58.5 16t-15.5 58v11q0 42 15.5 58t58.5 16h50zM189 520q22 0 30.5 -8.5t8.5 -29.5v-492q0 -113 -63 -166.5t-191 -53.5q-22 0 -31 8.5t-9 30.5v85q0 22 9 31t31 9q68 0 68 68v480
q0 21 8.5 29.5t30.5 8.5h108z" />
    <glyph glyph-name="k" unicode="k" horiz-adv-x="553" 
d="M533 51q14 -26 6.5 -38.5t-37.5 -12.5h-92q-35 0 -49.5 7t-23.5 31l-45 120q-13 30 -46 30h-18v-149q0 -22 -8.5 -30.5t-30.5 -8.5h-109q-22 0 -30 8.5t-8 30.5v662q0 22 8 30.5t30 8.5h109q22 0 30.5 -8.5t8.5 -30.5v-361h15h6l84 144q12 22 26 29t46 7h89q60 0 31 -49
l-113 -194q18 -15 33 -45z" />
    <glyph glyph-name="l" unicode="l" horiz-adv-x="272" 
d="M229 38q0 -21 -8.5 -29.5t-29.5 -8.5h-110q-22 0 -30 8.5t-8 29.5v664q0 21 8 29.5t30 8.5h110q21 0 29.5 -8.5t8.5 -29.5v-664z" />
    <glyph glyph-name="m" unicode="m" horiz-adv-x="814" 
d="M408 509q71 26 153 26q216 0 216 -216v-281q0 -21 -8 -29.5t-30 -8.5h-110q-21 0 -29.5 8.5t-8.5 29.5v276q0 53 -51 53q-19 0 -42 -5q4 -19 4 -46v-278q0 -21 -8.5 -29.5t-30.5 -8.5h-109q-22 0 -30.5 8.5t-8.5 29.5v276q0 53 -51 53q-18 0 -34 -3q-4 -1 -4 -6v-320
q0 -21 -8 -29.5t-30 -8.5h-110q-22 0 -30 8.5t-8 29.5v400q0 25 8 37.5t33 22.5q96 37 204 37q74 0 123 -26z" />
    <glyph glyph-name="n" unicode="n" 
d="M81 498q96 37 213 37q113 0 169 -56t56 -160v-281q0 -21 -8 -29.5t-30 -8.5h-110q-21 0 -29.5 8.5t-8.5 29.5v274q0 55 -60 55q-27 0 -44 -4q-3 -1 -3 -4v-321q0 -21 -8 -29.5t-30 -8.5h-110q-22 0 -30 8.5t-8 29.5v400q0 25 8 37.5t33 22.5z" />
    <glyph glyph-name="o" unicode="o" horiz-adv-x="552" 
d="M28 316q0 103 64 161t184 58q121 0 184.5 -57.5t63.5 -161.5v-112q0 -104 -63.5 -161.5t-184.5 -57.5q-120 0 -184 58t-64 161v112zM339 321q0 54 -63 54q-62 0 -62 -54v-122q0 -53 62 -53q63 0 63 53v122z" />
    <glyph glyph-name="p" unicode="p" horiz-adv-x="548" 
d="M82 501q86 34 209 34q115 0 172 -56t57 -160v-108q0 -111 -59 -168.5t-174 -57.5q-13 0 -60 5v-171q0 -22 -8.5 -30t-30.5 -8h-109q-22 0 -30.5 8t-8.5 30v624q0 25 8 36t34 22zM334 324q0 49 -57 49q-29 0 -46 -5q-4 -1 -4 -6v-211q23 -5 45 -5q62 0 62 55v123z" />
    <glyph glyph-name="q" unicode="q" horiz-adv-x="548" 
d="M272 535q125 0 197 -34q25 -12 32 -22.5t7 -35.5v-624q0 -22 -8.5 -30t-30.5 -8h-109q-22 0 -30.5 8t-8.5 30v172q-40 -6 -68 -6q-113 0 -169 55.5t-56 159.5v109q0 111 61 168.5t183 57.5zM215 196q0 -50 57 -50q9 0 18.5 1t18.5 2.5t12 1.5v211q0 6 -4 7q-16 4 -40 4
q-62 0 -62 -55v-122z" />
    <glyph glyph-name="r" unicode="r" horiz-adv-x="362" 
d="M285 535h31q22 0 30 -8.5t8 -29.5v-85q0 -22 -8 -30.5t-30 -8.5h-38q-27 0 -46 -4q-5 0 -5 -6v-325q0 -21 -8.5 -29.5t-30.5 -8.5h-109q-22 0 -30.5 8.5t-8.5 29.5v405q0 25 8.5 37.5t33.5 22.5q73 28 203 32z" />
    <glyph glyph-name="s" unicode="s" horiz-adv-x="518" 
d="M26 364q0 79 57 125t166 46q172 0 231 -107q20 -37 -21 -55l-76 -33q-12 -5 -19 -7t-14 2.5t-8.5 6.5t-10.5 12q-23 28 -72 28q-36 0 -49.5 -6t-13.5 -21q0 -16 16.5 -22.5t65.5 -10.5q120 -10 170.5 -45.5t50.5 -114.5q0 -82 -61 -129.5t-174 -47.5q-192 0 -238 119
q-15 37 24 52l79 28q25 7 34.5 3.5t18.5 -18.5q19 -32 75 -32q39 0 55.5 7t16.5 24q0 19 -18.5 26t-76.5 11q-102 7 -155 42t-53 117z" />
    <glyph glyph-name="t" unicode="t" horiz-adv-x="402" 
d="M236 640q22 0 30.5 -8.5t8.5 -29.5v-82h69q22 0 30 -8.5t8 -29.5v-75q0 -22 -8 -30.5t-30 -8.5h-69v-147q0 -40 15 -55t53 -15q23 0 31 -8.5t8 -30.5v-86q0 -22 -8 -30.5t-31 -8.5q-133 -2 -194 48t-61 173v160h-43q-22 0 -30 8.5t-8 30.5v75q0 21 8 29.5t30 8.5h43v82
q0 21 8.5 29.5t30.5 8.5h109z" />
    <glyph glyph-name="u" unicode="u" 
d="M478 520q22 0 30 -8.5t8 -29.5v-400q0 -25 -8 -37.5t-33 -22.5q-94 -37 -213 -37q-113 0 -169 56t-56 160v281q0 21 8 29.5t30 8.5h110q22 0 30 -8.5t8 -29.5v-274q0 -55 60 -55q20 0 40 4q7 1 7 9v316q0 21 8.5 29.5t29.5 8.5h110z" />
    <glyph glyph-name="v" unicode="v" horiz-adv-x="548" 
d="M507 520q28 0 34.5 -9t-2.5 -35l-160 -442q-8 -20 -19 -27t-33 -7h-109q-22 0 -34 7.5t-19 26.5l-154 442q-9 26 -2.5 35t34.5 9h96q32 0 44 -7.5t18 -30.5l52 -174q7 -23 11.5 -54.5t5.5 -51.5l1 -21h8q3 75 18 127l49 173q7 25 17.5 32t42.5 7h101z" />
    <glyph glyph-name="w" unicode="w" horiz-adv-x="775" 
d="M729 520q27 0 34 -9t-2 -35l-118 -442q-9 -34 -52 -34h-98q-45 0 -53 34l-32 134q-6 27 -10.5 62.5t-5.5 57.5l-2 22h-7q-7 -82 -21 -142l-33 -134q-9 -34 -52 -34h-91q-43 0 -53 34l-119 442q-9 26 -2 35t34 9h94q35 0 47.5 -7t16.5 -31l24 -133q4 -23 7 -62t4 -67
l1 -27h8q5 103 16 156l30 132q4 24 16.5 31.5t47.5 7.5h64q34 0 46 -7t17 -31l31 -133q5 -24 9 -63t5 -66l2 -27h8q2 98 12 156l24 132q4 24 16 31.5t47 7.5h90z" />
    <glyph glyph-name="x" unicode="x" horiz-adv-x="553" 
d="M503 520q57 0 26 -45l-137 -207l146 -223q16 -23 10 -34t-38 -11h-100q-34 0 -46 5.5t-24 27.5l-64 114l-62 -114q-11 -22 -24 -27.5t-45 -5.5h-100q-33 0 -39 11t10 34l147 222l-140 208q-31 45 30 45h98q32 0 45.5 -6t25.5 -27l56 -97l56 97q12 22 23.5 27.5t42.5 5.5
h103z" />
    <glyph glyph-name="y" unicode="y" horiz-adv-x="558" 
d="M478 520q22 0 30 -8.5t8 -29.5v-481q0 -106 -58 -168.5t-182 -62.5q-160 0 -223 99q-24 36 19 58l84 41q24 9 33.5 6t21.5 -19q24 -33 63 -33q56 0 56 58v39q-27 -4 -68 -4q-113 0 -169 56t-56 160v251q0 21 8 29.5t30 8.5h110q22 0 30 -8.5t8 -29.5v-244q0 -55 60 -55
q28 0 47 4v295q0 21 8.5 29.5t29.5 8.5h110z" />
    <glyph glyph-name="z" unicode="z" horiz-adv-x="493" 
d="M430 158q22 0 30 -8t8 -29v-83q0 -21 -8 -29.5t-30 -8.5h-366q-22 0 -30.5 8.5t-8.5 29.5v78q0 24 15 40l185 206h-156q-22 0 -30 8t-8 29v83q0 21 8 29.5t30 8.5h356q21 0 29.5 -8.5t8.5 -29.5v-78q0 -23 -20 -46l-190 -200h177z" />
    <glyph glyph-name="braceleft" unicode="{" horiz-adv-x="410" 
d="M355 856q21 0 29.5 -8.5t8.5 -29.5v-84q0 -22 -8.5 -30t-29.5 -8h-49q-10 0 -16.5 -6.5t-6.5 -16.5v-185q0 -89 -77 -136q77 -32 77 -137v-179q0 -10 6.5 -16.5t16.5 -6.5h49q21 0 29.5 -8t8.5 -30v-84q0 -21 -8.5 -29.5t-29.5 -8.5h-96q-85 0 -119.5 33t-34.5 110v183
q0 84 -63 84h-6q-32 0 -32 38v101q0 38 32 38h6q63 0 63 84v188q0 76 34 110t117 34h99z" />
    <glyph glyph-name="bar" unicode="|" horiz-adv-x="279" 
d="M192 856q22 0 30 -8.5t8 -29.5v-927q0 -21 -8 -29.5t-30 -8.5h-104q-22 0 -30 8.5t-8 29.5v927q0 21 8 29.5t30 8.5h104z" />
    <glyph glyph-name="braceright" unicode="}" horiz-adv-x="410" 
d="M154 856q83 0 117.5 -34t34.5 -110v-188q0 -84 62 -84h7q31 0 31 -38v-101q0 -38 -32 -38h-6q-62 0 -62 -84v-183q0 -76 -34.5 -109.5t-119.5 -33.5h-96q-22 0 -30 8.5t-8 29.5v84q0 22 8 30t30 8h49q10 0 16.5 6.5t6.5 16.5v179q0 105 76 137q-76 47 -76 136v185
q0 10 -7 16.5t-17 6.5h-48q-22 0 -30 8t-8 30v84q0 21 8 29.5t30 8.5h98z" />
    <glyph glyph-name="asciitilde" unicode="~" horiz-adv-x="570" 
d="M49 369q56 51 132 51q45 0 93.5 -17t71.5 -17q31 0 56 20q18 15 28 14.5t27 -16.5l63 -59q18 -16 18 -29.5t-18 -30.5q-56 -51 -132 -51q-45 0 -93 17t-71 17q-32 0 -56 -19q-19 -15 -29 -14.5t-26 16.5l-64 59q-32 31 0 59z" />
    <glyph glyph-name="exclamdown" unicode="&#xa1;" horiz-adv-x="277" 
d="M113 336q-45 0 -62 17t-17 62v34q0 45 17 61.5t62 16.5h50q45 0 62 -16.5t17 -61.5v-34q0 -45 -17 -62t-62 -17h-50zM82 -220q-22 0 -30.5 8.5t-7.5 29.5l16 430q1 22 8.5 30t29.5 8h81q22 0 29.5 -8t8.5 -30l17 -430q1 -21 -7.5 -29.5t-30.5 -8.5h-114z" />
    <glyph glyph-name="cent" unicode="&#xa2;" horiz-adv-x="545" 
d="M486 178q43 -13 26 -55q-41 -100 -146 -127v-41q0 -22 -8.5 -30t-29.5 -8h-92q-22 0 -30 8t-8 30v37q-161 33 -161 214v109q0 175 161 211v45q0 22 8 30t30 8h92q21 0 29.5 -8t8.5 -30v-46q108 -28 144 -129q7 -23 1 -34.5t-27 -19.5l-94 -31q-23 -7 -34.5 -1.5
t-20.5 28.5q-16 41 -59 41q-53 0 -53 -54v-130q0 -54 53 -54q43 0 59 41q9 22 20.5 27.5t34.5 -2.5z" />
    <glyph glyph-name="sterling" unicode="&#xa3;" horiz-adv-x="675" 
d="M107 497q0 98 69.5 163t190.5 65q207 0 275 -169q8 -23 2 -34t-28 -20l-106 -39q-23 -8 -32.5 -2.5t-21.5 29.5q-17 33 -35 46.5t-48 13.5t-47 -17t-17 -45v-89h168q24 0 33.5 -9.5t9.5 -33.5v-61q0 -24 -9.5 -33.5t-33.5 -9.5h-173v-18q-2 -50 -43 -78l1 -6
q76 19 154 19h179q24 0 33.5 -9.5t9.5 -33.5v-84q0 -23 -9.5 -32.5t-33.5 -9.5h-520q-24 0 -32.5 9t-8.5 33v85q0 34 20 38l6 1q40 13 43 65v21h-27q-23 0 -32.5 9.5t-9.5 33.5v61q0 24 9.5 33.5t32.5 9.5h31v98z" />
    <glyph glyph-name="currency" unicode="&#xa4;" horiz-adv-x="646" 
d="M598 188q15 -15 15 -27t-15 -27l-72 -72q-15 -15 -27 -15t-27 15l-54 54q-45 -20 -94 -20q-50 0 -96 20l-54 -54q-15 -15 -27 -15t-27 15l-72 72q-15 15 -15 27t15 27l55 55q-20 45 -20 94t20 94l-55 55q-15 15 -15 27t15 27l72 72q15 15 27 15t27 -15l54 -54
q46 20 96 20q49 0 94 -20l54 54q15 15 27 15t27 -15l72 -72q15 -15 15 -27t-15 -27l-53 -53q20 -50 20 -96t-20 -96zM324 418q-34 0 -57.5 -23.5t-25.5 -57.5q2 -35 25.5 -58.5t57.5 -23.5t57.5 24t23.5 58t-23.5 57.5t-57.5 23.5z" />
    <glyph glyph-name="yen" unicode="&#xa5;" horiz-adv-x="704" 
d="M656 710q22 0 27.5 -12.5t-5.5 -29.5l-177 -274h52q21 0 29.5 -8.5t8.5 -29.5v-48q0 -21 -8.5 -29.5t-29.5 -8.5h-106v-35h106q21 0 29.5 -8.5t8.5 -29.5v-48q0 -21 -8.5 -29.5t-29.5 -8.5h-102v-69q0 -23 -9 -32.5t-33 -9.5h-113q-24 0 -33.5 9.5t-9.5 32.5v69h-102
q-21 0 -29.5 8.5t-8.5 29.5v48q0 21 8.5 29.5t29.5 8.5h106v35h-106q-21 0 -29.5 8.5t-8.5 29.5v48q0 21 8.5 29.5t29.5 8.5h52l-176 274q-12 17 -6.5 29.5t27.5 12.5h116q40 0 54.5 -6t28.5 -31l107 -204l110 204q13 25 28 31t54 6h110z" />
    <glyph glyph-name="brokenbar" unicode="&#xa6;" horiz-adv-x="285" 
d="M195 856q21 0 29 -8.5t8 -29.5v-367q0 -21 -8 -29t-29 -8h-104q-22 0 -30 8t-8 29v367q0 21 8 29.5t30 8.5h104zM195 296q21 0 29 -8t8 -29v-367q0 -21 -8 -29.5t-29 -8.5h-104q-22 0 -30 8.5t-8 29.5v367q0 21 8 29t30 8h104z" />
    <glyph glyph-name="section" unicode="&#xa7;" horiz-adv-x="623" 
d="M50 520q0 97 68 151t201 54q99 0 159.5 -34t93.5 -105q11 -22 6 -35.5t-30 -24.5l-79 -34q-22 -10 -34 -5.5t-25 27.5q-26 51 -92 51q-70 0 -70 -48q0 -21 21 -31.5t63 -19.5q5 -1 30.5 -6t34 -7.5t32.5 -8.5t34.5 -11t30.5 -14.5t30 -19t23.5 -24t20 -30t11.5 -36.5
t5 -45q0 -81 -60 -130q65 -45 65 -148q0 -94 -72.5 -149.5t-206.5 -55.5q-217 0 -275 152q-15 41 29 57l82 32q24 9 36 3t22 -30q12 -31 35 -43t66 -12q84 0 84 51q0 33 -76 45q-11 2 -41 6.5t-46 7.5t-44.5 10.5t-45.5 15.5t-38.5 23t-33 32.5t-20 43.5t-8.5 58
q0 91 79 142q-65 46 -65 145zM300 313q-15 1 -30 6q-35 -30 -33 -67q1 -31 24 -44.5t67 -19.5l30 -3q31 29 28 65q-1 27 -23 40.5t-63 22.5z" />
    <glyph glyph-name="dieresis" unicode="&#xa8;" horiz-adv-x="439" 
d="M113 733q42 0 58 -15.5t16 -55.5v-13q0 -40 -16 -56t-58 -16h-8q-41 0 -56.5 16t-15.5 56v13q0 41 15.5 56t56.5 15h8zM328 733q42 0 57.5 -15t15.5 -56v-13q0 -40 -15.5 -56t-57.5 -16h-7q-42 0 -58 16t-16 56v13q0 40 16 55.5t58 15.5h7z" />
    <glyph glyph-name="copyright" unicode="&#xa9;" horiz-adv-x="777" 
d="M29 350q0 151 104.5 255.5t255.5 104.5t255 -104.5t104 -255.5t-104 -255t-255 -104q-150 0 -255 105t-105 254zM635 350q0 106 -70.5 176.5t-175.5 70.5t-176 -70.5t-71 -176.5q0 -104 71 -175.5t176 -71.5q104 0 175 71.5t71 175.5zM232 399q0 67 41 106t115 39
q120 0 153 -96q6 -21 2.5 -30t-20.5 -14l-48 -17q-17 -5 -24.5 -1t-14.5 22q-11 28 -48 28q-45 0 -45 -36v-101q0 -38 45 -38q35 0 47 29q8 18 15.5 22.5t24.5 -1.5l48 -17q17 -6 20.5 -14.5t-2.5 -28.5q-33 -97 -153 -97q-74 0 -115 39t-41 106v100z" />
    <glyph glyph-name="ordfeminine" unicode="&#xaa;" horiz-adv-x="354" 
d="M44 619q42 54 133 54q141 0 141 -127v-129q0 -22 -7.5 -32t-29.5 -18q-43 -15 -106 -15q-81 0 -112.5 24t-31.5 71q0 48 32.5 72.5t113.5 24.5q9 0 14 -1v16q0 20 -18 20q-11 0 -27 -14q-13 -13 -22.5 -14.5t-27.5 5.5l-37 19q-35 16 -15 44zM191 469h-18q-18 0 -18 -16
q0 -10 4 -13.5t14 -3.5h7.5h5.5l3 1q2 0 2 2v30z" />
    <glyph glyph-name="guillemotleft" unicode="&#xab;" horiz-adv-x="640" 
d="M328 152q23 -23 0 -48l-58 -58q-23 -23 -47 0l-192 192q-13 14 -13 24t13 24l197 199q25 25 48 0l54 -56q14 -13 14 -23t-14 -24l-116 -117zM592 152q23 -23 0 -48l-58 -58q-23 -22 -47 0l-192 192q-25 23 0 48l197 199q24 24 48 0l54 -56q14 -13 14 -23t-14 -24
l-116 -117z" />
    <glyph glyph-name="logicalnot" unicode="&#xac;" horiz-adv-x="598" 
d="M512 424q21 0 29.5 -8t8.5 -30v-221q0 -22 -8.5 -30.5t-29.5 -8.5h-109q-21 0 -29.5 8.5t-8.5 30.5v94h-291q-21 0 -29.5 8.5t-8.5 30.5v88q0 22 8.5 30t29.5 8h438z" />
    <glyph glyph-name="registered" unicode="&#xae;" horiz-adv-x="455" 
d="M27 516q0 82 59.5 141t141.5 59t140.5 -59t58.5 -141q0 -83 -58.5 -141.5t-140.5 -58.5q-83 0 -142 58.5t-59 141.5zM91 516q0 -57 40 -97.5t98 -40.5q56 0 96 40.5t40 97.5t-40 97t-96 40q-58 0 -98 -40t-40 -97zM245 615q34 0 54.5 -19.5t20.5 -52.5q0 -44 -33 -61
l25 -36q18 -29 -16 -29h-26q-12 0 -16.5 3t-10.5 12l-25 41h-9v-41q0 -9 -3 -12t-12 -3h-31q-10 0 -13.5 3t-3.5 12v166q0 10 3.5 13.5t13.5 3.5h82zM209 529h31q14 0 14 14q0 13 -14 13h-31v-27z" />
    <glyph glyph-name="macron" unicode="&#xaf;" horiz-adv-x="352" 
d="M300 710q21 0 28.5 -7t7.5 -29v-42q0 -22 -7.5 -29t-28.5 -7h-244q-21 0 -28.5 7t-7.5 29v42q0 21 8 28.5t28 7.5h244z" />
    <glyph glyph-name="degree" unicode="&#xb0;" horiz-adv-x="420" 
d="M400 555q0 -78 -55.5 -134.5t-133.5 -56.5q-81 0 -136 55.5t-55 135.5q0 81 55 135.5t136 54.5q80 0 134.5 -54.5t54.5 -135.5zM153 554q0 -23 17 -39.5t41 -16.5q23 0 40 16.5t17 39.5t-17 40.5t-40 17.5q-24 0 -41 -17.5t-17 -40.5z" />
    <glyph glyph-name="plusminus" unicode="&#xb1;" horiz-adv-x="587" 
d="M501 503q24 0 33.5 -9t9.5 -33v-75q0 -24 -9.5 -33t-33.5 -9h-127v-57q0 -24 -9.5 -33t-32.5 -9h-78q-24 0 -33.5 9t-9.5 33v57h-126q-24 0 -33 9t-9 33v75q0 24 9 33t33 9h126v58q0 24 9.5 33.5t33.5 9.5h78q23 0 32.5 -9.5t9.5 -33.5v-58h127zM502 221q24 0 33 -9.5
t9 -32.5v-80q0 -23 -9 -32.5t-33 -9.5h-416q-24 0 -33.5 9.5t-9.5 32.5v80q0 23 9.5 32.5t33.5 9.5h416z" />
    <glyph glyph-name="twosuperior" unicode="&#xb2;" horiz-adv-x="375" 
d="M31 715q38 94 163 94q73 0 114.5 -34.5t41.5 -92.5q0 -108 -95 -136l-43 -12q-21 -5 -21 -10v-2h116q21 0 28.5 -7.5t7.5 -27.5v-47q0 -19 -7 -26.5t-27 -7.5h-247q-20 0 -28 8t-8 26v33q0 57 20 86t75 48l53 19q20 7 27.5 15t7.5 25q0 23 -22 23q-23 0 -35 -23
q-11 -21 -19 -25.5t-31 1.5l-50 18q-20 8 -25 20t4 35z" />
    <glyph glyph-name="threesuperior" unicode="&#xb3;" horiz-adv-x="380" 
d="M26 718q34 96 168 96q72 0 112 -31t40 -86q0 -53 -39 -81q51 -26 51 -95q0 -56 -42 -87t-122 -31q-142 0 -173 95q-11 36 17 46l44 16q23 7 33 2.5t19 -23.5q13 -27 54 -27q34 0 34 20q0 23 -31 23h-28q-17 0 -22.5 5.5t-5.5 23.5v50q0 19 5.5 25t25.5 6h19q31 0 31 22
q0 21 -31 21q-37 0 -52 -31q-8 -19 -18 -23.5t-34 3.5l-37 16q-29 12 -18 45z" />
    <glyph glyph-name="acute" unicode="&#xb4;" horiz-adv-x="257" 
d="M147 734q41 25 66 -2l53 -56q26 -29 -5 -40l-180 -60q-35 -12 -46 3l-29 33q-11 14 -11 22.5t13 15.5z" />
    <glyph glyph-name="mu" unicode="&#xb5;" horiz-adv-x="571" 
d="M488 520q22 0 30 -8.5t8 -29.5v-400q0 -36 -33 -55q-66 -42 -158 -42q-58 0 -102 18v-185q0 -21 -8 -29.5t-30 -8.5h-110q-22 0 -30 8.5t-8 29.5v664q0 21 8 29.5t30 8.5h110q22 0 30 -8.5t8 -29.5v-274q0 -55 60 -55q22 0 39 4q8 2 8 9v316q0 21 8.5 29.5t29.5 8.5h110z
" />
    <glyph glyph-name="paragraph" unicode="&#xb6;" horiz-adv-x="699" 
d="M605 710q22 0 30.5 -8.5t8.5 -29.5v-723q0 -21 -8.5 -29.5t-30.5 -8.5h-87q-21 0 -29.5 8.5t-8.5 29.5v587h-51v-587q0 -21 -8 -29.5t-30 -8.5h-87q-22 0 -30 8.5t-8 29.5v263q-109 2 -176.5 71t-67.5 178q0 111 69 180t180 69h334z" />
    <glyph glyph-name="periodcentered" unicode="&#xb7;" horiz-adv-x="281" 
d="M160 408q44 0 61 -17.5t17 -61.5v-41q0 -44 -17 -61t-61 -17h-38q-45 0 -62 17t-17 61v41q0 44 17 61.5t62 17.5h38z" />
    <glyph glyph-name="cedilla" unicode="&#xb8;" horiz-adv-x="251" 
d="M164 -46h9q42 -1 64.5 -29t17.5 -70q-11 -100 -150 -100q-43 0 -75 11q-26 10 -26 31v42q0 33 31 16q30 -15 56 -15q34 0 34 23q0 12 -9 16.5t-33 5.5h-21q-27 0 -14 30l38 85h95z" />
    <glyph glyph-name="onesuperior" unicode="&#xb9;" horiz-adv-x="297" 
d="M212 806q29 0 37.5 -8t8.5 -34v-313q0 -22 -9.5 -31t-33.5 -9h-54q-24 0 -32.5 9t-8.5 31v191l-27 -15q-21 -11 -33.5 -7.5t-24.5 21.5l-24 40q-18 34 16 53l105 61q19 11 47 11h33z" />
    <glyph glyph-name="ordmasculine" unicode="&#xba;" horiz-adv-x="352" 
d="M30 543q0 62 38 96.5t108 34.5q71 0 108.5 -34.5t37.5 -96.5v-61q0 -62 -37.5 -96t-108.5 -34t-108.5 34.5t-37.5 95.5v61zM199 545q0 19 -23 19t-23 -19v-64q0 -19 23 -19t23 19v64z" />
    <glyph glyph-name="guillemotright" unicode="&#xbb;" horiz-adv-x="640" 
d="M46 382q-13 14 -13 23.5t13 23.5l54 56q25 25 48 0l198 -199q13 -14 13 -24t-13 -24l-193 -192q-24 -24 -47 0l-58 58q-23 25 0 48l115 113zM310 382q-14 14 -14 24t14 23l54 56q24 25 48 0l198 -199q23 -24 0 -48l-193 -192q-24 -23 -47 0l-58 58q-23 25 0 48l114 113z
" />
    <glyph glyph-name="onequarter" unicode="&#xbc;" horiz-adv-x="859" 
d="M728 710q22 0 27 -11.5t-7 -28.5l-465 -633q-18 -24 -32 -30.5t-51 -6.5h-67q-22 0 -28.5 12.5t7.5 29.5l466 633q16 23 29.5 29t48.5 6h72zM228 707q29 0 37.5 -8t8.5 -34v-313q0 -22 -9 -31t-33 -9h-54q-24 0 -33 9t-9 31v191l-26 -15q-36 -21 -58 14l-24 40
q-19 33 16 53l104 60q20 12 48 12h32zM747 395q24 0 32.5 -8.5t8.5 -31.5v-179h10q21 0 27.5 -6.5t6.5 -23.5v-46q0 -19 -6.5 -25t-27.5 -6h-10v-35q0 -19 -7.5 -26.5t-24.5 -7.5h-65q-18 0 -24.5 7.5t-6.5 26.5v35h-160q-20 0 -27.5 8t-7.5 27v30q0 28 13 44l160 192
q14 16 24 20.5t34 4.5h51zM605 176h55v66z" />
    <glyph glyph-name="onehalf" unicode="&#xbd;" horiz-adv-x="870" 
d="M228 710q29 0 37.5 -8t8.5 -34v-313q0 -22 -9 -31t-33 -9h-54q-24 0 -33 9t-9 31v191l-26 -15q-21 -11 -33.5 -7.5t-24.5 21.5l-24 40q-19 33 16 53l104 61q21 11 48 11h32zM714 710q22 0 27 -11.5t-7 -28.5l-465 -633q-18 -24 -31.5 -30.5t-50.5 -6.5h-67
q-23 0 -29 12.5t7 29.5l466 633q17 23 30 29t48 6h72zM519 308q39 95 164 95q73 0 114 -35t41 -93q0 -53 -21.5 -86.5t-73.5 -48.5l-43 -13q-21 -3 -21 -10v-1h117q20 0 27.5 -7.5t7.5 -27.5v-47q0 -19 -7 -26.5t-27 -7.5h-247q-20 0 -28 7.5t-8 26.5v33q0 57 20 86t75 48
l53 18q19 7 27 15.5t8 25.5q0 22 -22 22q-23 0 -35 -22q-11 -21 -19 -26t-31 2l-50 18q-20 8 -25 19.5t4 34.5z" />
    <glyph glyph-name="threequarters" unicode="&#xbe;" horiz-adv-x="878" 
d="M33 629q35 96 168 96q72 0 112 -31t40 -86q0 -29 -8.5 -47t-30.5 -34q51 -33 51 -99q0 -114 -164 -114q-143 0 -173 94q-10 36 17 46l44 16q23 7 33 3t19 -24q12 -26 54 -26q34 0 34 19q0 23 -31 23h-28q-17 0 -22.5 5.5t-5.5 23.5v50q0 19 5.5 25t25.5 6h19q31 0 31 22
q0 21 -31 21q-37 0 -52 -30q-8 -19 -18 -24t-34 3l-37 17q-29 12 -18 45zM761 710q22 0 27 -11.5t-7 -28.5l-465 -633q-18 -24 -32 -30.5t-51 -6.5h-67q-22 0 -28 12.5t7 29.5l466 633q16 23 29.5 29t48.5 6h72zM769 395q24 0 32 -8.5t8 -31.5v-179h11q21 0 27 -6.5t6 -23.5
v-46q0 -19 -6 -25t-27 -6h-11v-35q0 -19 -7 -26.5t-25 -7.5h-65q-18 0 -24.5 7.5t-6.5 26.5v35h-159q-21 0 -28.5 8t-7.5 27v30q0 26 14 44l160 192q14 16 24 20.5t34 4.5h51zM681 176v66l-54 -66h54z" />
    <glyph glyph-name="questiondown" unicode="&#xbf;" horiz-adv-x="589" 
d="M295 335q-45 0 -62 16.5t-17 61.5v35q0 44 17 61t62 17h50q44 0 61.5 -17t17.5 -61v-35q0 -45 -17 -61.5t-62 -16.5h-50zM566 -47q-69 -174 -279 -174q-124 0 -194 57t-70 150q0 42 11.5 74.5t33.5 55t41.5 36.5t48.5 30t40 24q38 26 38 55q0 23 9 31.5t31 8.5h91
q22 0 31 -9t9 -31q0 -65 -22.5 -101.5t-61.5 -59.5q-9 -6 -36 -21t-37 -23t-21 -26t-11 -41q0 -26 17.5 -41.5t52.5 -15.5q37 0 59 19.5t43 65.5q11 23 21.5 28.5t32.5 -1.5l96 -36q22 -8 28 -20t-2 -35z" />
    <glyph glyph-name="Agrave" unicode="&#xc0;" horiz-adv-x="688" 
d="M271 914q23 27 66 3l141 -83q24 -13 3 -38l-28 -34q-12 -15 -46 -4l-181 56q-12 4 -16 9.5t-1.5 12.5t11.5 18zM684 41q15 -41 -29 -41h-108q-38 0 -53.5 9t-21.5 33l-23 72h-216l-23 -72q-8 -24 -22.5 -33t-50.5 -9h-105q-42 0 -27 41l230 634q7 21 18 28t34 7h114
q22 0 33.5 -7t18.5 -26zM367 388q-9 30 -14.5 65t-6.5 55l-1 20h-10q1 -72 -19 -139l-37 -118h125z" />
    <glyph glyph-name="Aacute" unicode="&#xc1;" horiz-adv-x="688" 
d="M354 914q42 24 66 -3l51 -58q26 -29 -5 -40l-182 -56q-17 -6 -27.5 -5.5t-18.5 10.5l-27 33q-21 25 2 38zM684 41q15 -41 -29 -41h-108q-38 0 -53.5 9t-21.5 33l-23 72h-216l-23 -72q-8 -24 -22.5 -33t-50.5 -9h-105q-42 0 -27 41l230 634q7 21 18 28t34 7h114
q22 0 33.5 -7t18.5 -26zM367 388q-9 30 -14.5 65t-6.5 55l-1 20h-10q1 -72 -19 -139l-37 -118h125z" />
    <glyph glyph-name="Acircumflex" unicode="&#xc2;" horiz-adv-x="688" 
d="M365 920q27 0 39 -5t32 -25l102 -102q14 -12 11 -23t-26 -11h-84q-31 0 -43 3.5t-23 17.5l-29 36l-31 -35q-12 -14 -24 -18t-41 -4h-79q-23 0 -25.5 11t10.5 23l102 102q20 20 32.5 25t44.5 5h32zM684 41q15 -41 -29 -41h-108q-38 0 -53.5 9t-21.5 33l-23 72h-216
l-23 -72q-8 -24 -22.5 -33t-50.5 -9h-105q-42 0 -27 41l230 634q7 21 18 28t34 7h114q22 0 33.5 -7t18.5 -26zM367 388q-9 30 -14.5 65t-6.5 55l-1 20h-10q1 -72 -19 -139l-37 -118h125z" />
    <glyph glyph-name="Atilde" unicode="&#xc3;" horiz-adv-x="688" 
d="M490 909q14 0 19 -5.5t5 -17.5q0 -67 -24.5 -95t-73.5 -28q-42 0 -82 21t-51 21q-15 0 -15 -22q0 -20 -19 -20h-61q-23 0 -23 23q0 68 24 95.5t71 27.5q44 0 84.5 -20.5t51.5 -20.5q15 0 15 22q0 11 4 15t15 4h60zM684 41q15 -41 -29 -41h-108q-38 0 -53.5 9t-21.5 33
l-23 72h-216l-23 -72q-8 -24 -22.5 -33t-50.5 -9h-105q-42 0 -27 41l230 634q7 21 18 28t34 7h114q22 0 33.5 -7t18.5 -26zM367 388q-9 30 -14.5 65t-6.5 55l-1 20h-10q1 -72 -19 -139l-37 -118h125z" />
    <glyph glyph-name="Adieresis" unicode="&#xc4;" horiz-adv-x="688" 
d="M240 914q42 0 58 -15.5t16 -55.5v-13q0 -40 -16 -55.5t-58 -15.5h-8q-41 0 -56.5 15.5t-15.5 55.5v13q0 41 15.5 56t56.5 15h8zM455 914q42 0 57.5 -15t15.5 -56v-13q0 -40 -15.5 -55.5t-57.5 -15.5h-7q-42 0 -58 15.5t-16 55.5v13q0 40 16 55.5t58 15.5h7zM684 41
q15 -41 -29 -41h-108q-38 0 -53.5 9t-21.5 33l-23 72h-216l-23 -72q-8 -24 -22.5 -33t-50.5 -9h-105q-42 0 -27 41l230 634q7 21 18 28t34 7h114q22 0 33.5 -7t18.5 -26zM367 388q-9 30 -14.5 65t-6.5 55l-1 20h-10q1 -72 -19 -139l-37 -118h125z" />
    <glyph glyph-name="Aring" unicode="&#xc5;" horiz-adv-x="688" 
d="M200 761q0 62 40.5 97t105.5 35q64 0 103 -36t39 -96q0 -57 -37 -88l233 -632q15 -41 -29 -41h-108q-38 0 -53.5 9t-21.5 33l-23 72h-216l-23 -72q-8 -24 -22.5 -33t-50.5 -9h-105q-42 0 -27 41l233 631q-38 33 -38 89zM386 759q0 19 -11 30t-29 11q-20 0 -32.5 -11
t-12.5 -30q0 -17 12.5 -28.5t32.5 -11.5q18 0 29 11t11 29zM368 388q-9 30 -14.5 64.5t-7.5 53.5l-1 20h-10q0 -70 -20 -137l-36 -118h125z" />
    <glyph glyph-name="AE" unicode="&#xc6;" horiz-adv-x="905" 
d="M838 175q24 0 33 -9t9 -33v-91q0 -23 -9 -32.5t-33 -9.5h-345q-24 0 -33.5 9.5t-9.5 32.5v63h-200l-43 -68q-13 -22 -27 -29.5t-51 -7.5h-103q-23 0 -30.5 11t3.5 30l414 634q13 21 22.5 28t29.5 7h365q24 0 33 -9.5t9 -32.5v-90q0 -24 -9 -33.5t-33 -9.5h-196v-89h143
q23 0 32.5 -9.5t9.5 -32.5v-90q0 -24 -9.5 -33.5t-32.5 -9.5h-143v-96h204zM450 419l-103 -163h103v163z" />
    <glyph glyph-name="Ccedilla" unicode="&#xc7;" horiz-adv-x="651" 
d="M606 214q22 -7 28.5 -19.5t-1.5 -34.5q-59 -158 -248 -173l-13 -33h9q42 -1 65 -29.5t18 -69.5q-11 -100 -151 -100q-43 0 -74 11q-27 10 -27 31v42q0 33 31 16q30 -15 56 -15q34 0 34 23q0 12 -9 16.5t-33 5.5h-21q-27 0 -13 30l32 73q-122 13 -189 86t-67 191v180
q0 131 80.5 205.5t227.5 74.5q226 0 292 -175q8 -22 1.5 -34.5t-28.5 -19.5l-107 -38q-23 -7 -34.5 -1.5t-19.5 28.5q-26 65 -104 65q-58 0 -84 -25.5t-26 -78.5v-182q0 -53 26 -78.5t84 -25.5q80 0 104 65q9 24 20 29.5t34 -2.5z" />
    <glyph glyph-name="Egrave" unicode="&#xc8;" horiz-adv-x="588" 
d="M230 914q23 27 66 3l141 -83q24 -13 2 -38l-27 -34q-13 -15 -46 -4l-182 56q-12 4 -15.5 9.5t-1 12.5t11.5 18zM512 710q24 0 33.5 -9.5t9.5 -32.5v-90q0 -24 -9.5 -33.5t-33.5 -9.5h-264v-89h211q24 0 33.5 -9.5t9.5 -32.5v-90q0 -24 -9.5 -33.5t-33.5 -9.5h-211v-96
h273q23 0 32.5 -9t9.5 -33v-91q0 -23 -9.5 -32.5t-32.5 -9.5h-428q-24 0 -33.5 9.5t-9.5 32.5v626q0 23 9.5 32.5t33.5 9.5h419z" />
    <glyph glyph-name="Eacute" unicode="&#xc9;" horiz-adv-x="588" 
d="M313 914q42 24 66 -3l51 -58q9 -10 12 -17t-1.5 -13t-16.5 -10l-181 -56q-18 -6 -28.5 -5.5t-17.5 10.5l-28 33q-20 25 3 38zM512 710q24 0 33.5 -9.5t9.5 -32.5v-90q0 -24 -9.5 -33.5t-33.5 -9.5h-264v-89h211q24 0 33.5 -9.5t9.5 -32.5v-90q0 -24 -9.5 -33.5
t-33.5 -9.5h-211v-96h273q23 0 32.5 -9t9.5 -33v-91q0 -23 -9.5 -32.5t-32.5 -9.5h-428q-24 0 -33.5 9.5t-9.5 32.5v626q0 23 9.5 32.5t33.5 9.5h419z" />
    <glyph glyph-name="Ecircumflex" unicode="&#xca;" horiz-adv-x="588" 
d="M323 920q27 0 39 -5t33 -25l102 -102q13 -12 10.5 -23t-25.5 -11h-84q-31 0 -43.5 3.5t-22.5 17.5l-29 36l-31 -35q-12 -15 -24 -18.5t-42 -3.5h-78q-23 0 -26 11t11 23l102 102q19 20 31.5 25t44.5 5h32zM512 710q24 0 33.5 -9.5t9.5 -32.5v-90q0 -24 -9.5 -33.5
t-33.5 -9.5h-264v-89h211q24 0 33.5 -9.5t9.5 -32.5v-90q0 -24 -9.5 -33.5t-33.5 -9.5h-211v-96h273q23 0 32.5 -9t9.5 -33v-91q0 -23 -9.5 -32.5t-32.5 -9.5h-428q-24 0 -33.5 9.5t-9.5 32.5v626q0 23 9.5 32.5t33.5 9.5h419z" />
    <glyph glyph-name="Edieresis" unicode="&#xcb;" horiz-adv-x="588" 
d="M199 914q41 0 57 -15.5t16 -55.5v-13q0 -40 -16 -55.5t-57 -15.5h-8q-41 0 -56.5 15.5t-15.5 55.5v13q0 41 15.5 56t56.5 15h8zM414 914q41 0 56.5 -15t15.5 -56v-13q0 -40 -15.5 -55.5t-56.5 -15.5h-7q-42 0 -58 15.5t-16 55.5v13q0 40 16 55.5t58 15.5h7zM512 710
q24 0 33.5 -9.5t9.5 -32.5v-90q0 -24 -9.5 -33.5t-33.5 -9.5h-264v-89h211q24 0 33.5 -9.5t9.5 -32.5v-90q0 -24 -9.5 -33.5t-33.5 -9.5h-211v-96h273q23 0 32.5 -9t9.5 -33v-91q0 -23 -9.5 -32.5t-32.5 -9.5h-428q-24 0 -33.5 9.5t-9.5 32.5v626q0 23 9.5 32.5t33.5 9.5
h419z" />
    <glyph glyph-name="Igrave" unicode="&#xcc;" horiz-adv-x="299" 
d="M77 914q23 27 66 3l141 -83q24 -13 2 -38l-27 -34q-13 -15 -46 -4l-182 56q-12 4 -15.5 9.5t-1 12.5t11.5 18zM50 670q0 22 9 31t31 9h118q22 0 31 -9t9 -31v-630q0 -22 -9 -31t-31 -9h-118q-22 0 -31 9t-9 31v630z" />
    <glyph glyph-name="Iacute" unicode="&#xcd;" horiz-adv-x="299" 
d="M160 914q42 24 66 -3l51 -58q9 -10 11.5 -17t-1.5 -13t-16 -10l-181 -56q-18 -6 -28.5 -5.5t-17.5 10.5l-28 33q-11 14 -10.5 22.5t13.5 15.5zM50 670q0 22 9 31t31 9h118q22 0 31 -9t9 -31v-630q0 -22 -9 -31t-31 -9h-118q-22 0 -31 9t-9 31v630z" />
    <glyph glyph-name="Icircumflex" unicode="&#xce;" horiz-adv-x="299" 
d="M170 920q27 0 39 -5t32 -25l103 -102q13 -12 10.5 -23t-25.5 -11h-84q-31 0 -43.5 3.5t-23.5 17.5l-28 36l-32 -35q-12 -15 -23.5 -18.5t-41.5 -3.5h-78q-23 0 -26 11t10 23l102 102q20 20 32.5 25t44.5 5h32zM50 670q0 22 9 31t31 9h118q22 0 31 -9t9 -31v-630
q0 -22 -9 -31t-31 -9h-118q-22 0 -31 9t-9 31v630z" />
    <glyph glyph-name="Idieresis" unicode="&#xcf;" horiz-adv-x="299" 
d="M46 914q41 0 57 -15.5t16 -55.5v-13q0 -40 -16 -55.5t-57 -15.5h-8q-42 0 -57 15.5t-15 55.5v13q0 41 15 56t57 15h8zM261 914q41 0 56.5 -15t15.5 -56v-13q0 -40 -15.5 -55.5t-56.5 -15.5h-7q-42 0 -58 15.5t-16 55.5v13q0 40 16 55.5t58 15.5h7zM50 670q0 22 9 31t31 9
h118q22 0 31 -9t9 -31v-630q0 -22 -9 -31t-31 -9h-118q-22 0 -31 9t-9 31v630z" />
    <glyph glyph-name="Eth" unicode="&#xd0;" horiz-adv-x="706" 
d="M366 710q147 0 227.5 -74.5t80.5 -205.5v-150q0 -130 -80.5 -205t-227.5 -75h-244q-23 0 -32.5 9.5t-9.5 32.5v254h-46q-14 0 -19.5 5t-5.5 21v76q0 26 25 26h46v244q0 23 9.5 32.5t32.5 9.5h244zM476 427q0 108 -117 108h-81v-111h82q14 0 19 -5.5t5 -20.5v-76
q0 -16 -5 -21t-19 -5h-82v-121h81q117 0 117 108v144z" />
    <glyph glyph-name="Ntilde" unicode="&#xd1;" horiz-adv-x="700" 
d="M499 909q14 0 19 -5.5t5 -17.5q0 -67 -24.5 -95t-73.5 -28q-42 0 -82 21t-51 21q-15 0 -15 -22q0 -20 -19 -20h-61q-23 0 -23 23q0 68 24 95.5t71 27.5q44 0 84.5 -20.5t51.5 -20.5q15 0 15 22q0 11 4 15t15 4h60zM608 710q23 0 32.5 -9.5t9.5 -32.5v-626
q0 -23 -9.5 -32.5t-32.5 -9.5h-113q-28 0 -41 20l-154 237q-31 49 -48.5 91t-39.5 115h-8q14 -62 19 -88t9.5 -71.5t4.5 -98.5v-163q0 -23 -9.5 -32.5t-33.5 -9.5h-101q-24 0 -33.5 9.5t-9.5 32.5v626q0 23 9.5 32.5t33.5 9.5h118q29 0 42 -20l164 -256q16 -24 28 -48
t18.5 -40t17.5 -45t20 -50h8q-26 85 -35.5 133t-9.5 120v164q0 23 9 32.5t33 9.5h102z" />
    <glyph glyph-name="Ograve" unicode="&#xd2;" horiz-adv-x="682" 
d="M268 924q23 27 66 3l141 -83q24 -13 2 -38l-27 -34q-13 -15 -46 -4l-182 56q-12 4 -15.5 9.5t-1 12.5t11.5 18zM33 445q0 131 80.5 205.5t227.5 74.5q146 0 226.5 -74.5t80.5 -205.5v-180q0 -131 -80.5 -205.5t-226.5 -74.5q-147 0 -227.5 74.5t-80.5 205.5v180zM450 454
q0 47 -28.5 71.5t-80.5 24.5q-53 0 -81.5 -24.5t-28.5 -71.5v-198q0 -47 28.5 -71.5t81.5 -24.5q52 0 80.5 24.5t28.5 71.5v198z" />
    <glyph glyph-name="Oacute" unicode="&#xd3;" horiz-adv-x="682" 
d="M351 924q42 24 66 -3l51 -58q9 -10 12 -17t-1.5 -13t-16.5 -10l-181 -56q-18 -6 -28.5 -5.5t-17.5 10.5l-28 33q-20 25 3 38zM33 445q0 131 80.5 205.5t227.5 74.5q146 0 226.5 -74.5t80.5 -205.5v-180q0 -131 -80.5 -205.5t-226.5 -74.5q-147 0 -227.5 74.5t-80.5 205.5
v180zM450 454q0 47 -28.5 71.5t-80.5 24.5q-53 0 -81.5 -24.5t-28.5 -71.5v-198q0 -47 28.5 -71.5t81.5 -24.5q52 0 80.5 24.5t28.5 71.5v198z" />
    <glyph glyph-name="Ocircumflex" unicode="&#xd4;" horiz-adv-x="682" 
d="M361 930q27 0 39 -5t33 -25l102 -102q13 -12 10.5 -23t-25.5 -11h-84q-31 0 -43.5 3.5t-22.5 17.5l-29 36l-31 -35q-12 -15 -24 -18.5t-42 -3.5h-78q-23 0 -26 11t11 23l102 102q19 20 31.5 25t44.5 5h32zM33 445q0 131 80.5 205.5t227.5 74.5q146 0 226.5 -74.5
t80.5 -205.5v-180q0 -131 -80.5 -205.5t-226.5 -74.5q-147 0 -227.5 74.5t-80.5 205.5v180zM450 454q0 47 -28.5 71.5t-80.5 24.5q-53 0 -81.5 -24.5t-28.5 -71.5v-198q0 -47 28.5 -71.5t81.5 -24.5q52 0 80.5 24.5t28.5 71.5v198z" />
    <glyph glyph-name="Otilde" unicode="&#xd5;" horiz-adv-x="682" 
d="M487 919q23 0 23 -23q0 -67 -24 -95t-73 -28q-42 0 -82 21t-51 21q-15 0 -15 -22q0 -20 -19 -20h-61q-24 0 -24 23q0 68 24.5 95.5t71.5 27.5q44 0 84.5 -20.5t51.5 -20.5q15 0 15 22q0 11 4 15t15 4h60zM33 445q0 131 80.5 205.5t227.5 74.5q146 0 226.5 -74.5
t80.5 -205.5v-180q0 -131 -80.5 -205.5t-226.5 -74.5q-147 0 -227.5 74.5t-80.5 205.5v180zM450 454q0 47 -28.5 71.5t-80.5 24.5q-53 0 -81.5 -24.5t-28.5 -71.5v-198q0 -47 28.5 -71.5t81.5 -24.5q52 0 80.5 24.5t28.5 71.5v198z" />
    <glyph glyph-name="Odieresis" unicode="&#xd6;" horiz-adv-x="682" 
d="M237 924q41 0 57 -15.5t16 -55.5v-13q0 -40 -16 -55.5t-57 -15.5h-8q-41 0 -56.5 15.5t-15.5 55.5v13q0 41 15.5 56t56.5 15h8zM452 924q41 0 56.5 -15t15.5 -56v-13q0 -40 -15.5 -55.5t-56.5 -15.5h-7q-42 0 -58 15.5t-16 55.5v13q0 40 16 55.5t58 15.5h7zM33 445
q0 131 80.5 205.5t227.5 74.5q146 0 226.5 -74.5t80.5 -205.5v-180q0 -131 -80.5 -205.5t-226.5 -74.5q-147 0 -227.5 74.5t-80.5 205.5v180zM450 454q0 47 -28.5 71.5t-80.5 24.5q-53 0 -81.5 -24.5t-28.5 -71.5v-198q0 -47 28.5 -71.5t81.5 -24.5q52 0 80.5 24.5
t28.5 71.5v198z" />
    <glyph glyph-name="multiply" unicode="&#xd7;" horiz-adv-x="535" 
d="M488 219q16 -16 16 -28.5t-16 -28.5l-58 -58q-16 -16 -28 -16t-29 16l-106 106l-104 -105q-17 -16 -29 -16t-28 16l-59 58q-15 16 -15.5 28t15.5 29l105 105l-105 105q-16 17 -16 29t16 28l59 58q16 16 28.5 16t28.5 -16l104 -105l106 106q17 16 29 16t28 -16l58 -58
q16 -17 16 -29t-16 -28l-105 -106z" />
    <glyph glyph-name="Oslash" unicode="&#xd8;" horiz-adv-x="682" 
d="M654 753q20 0 9 -18l-72 -109q57 -69 57 -181v-180q0 -131 -80 -205t-227 -75q-90 0 -153 27l-25 -38q-8 -11 -13 -13.5t-22 -2.5h-94q-9 0 -11.5 6t3.5 13l67 103q-60 72 -60 185v180q0 131 80.5 205.5t227.5 74.5q90 0 156 -29l27 41q7 11 13 13.5t21 2.5h96zM400 538
q-24 12 -59 12q-53 0 -81.5 -24.5t-28.5 -71.5v-146q0 -8 2 -26zM285 170q27 -10 56 -10q52 0 80.5 24.5t28.5 71.5v142q0 17 -1 24z" />
    <glyph glyph-name="Ugrave" unicode="&#xd9;" horiz-adv-x="692" 
d="M273 914q23 27 66 3l141 -83q24 -13 3 -38l-28 -34q-12 -15 -46 -4l-181 56q-12 4 -16 9.5t-1.5 12.5t11.5 18zM243 252q0 -92 103 -92q104 0 104 92v416q0 23 9 32.5t33 9.5h113q24 0 33.5 -9.5t9.5 -32.5v-407q0 -128 -78 -202t-224 -74q-145 0 -223 74t-78 202v407
q0 23 9 32.5t33 9.5h113q24 0 33.5 -9.5t9.5 -32.5v-416z" />
    <glyph glyph-name="Uacute" unicode="&#xda;" horiz-adv-x="692" 
d="M356 914q42 24 66 -3l51 -58q26 -29 -5 -40l-182 -56q-17 -6 -27.5 -5.5t-18.5 10.5l-27 33q-21 25 2 38zM243 252q0 -92 103 -92q104 0 104 92v416q0 23 9 32.5t33 9.5h113q24 0 33.5 -9.5t9.5 -32.5v-407q0 -128 -78 -202t-224 -74q-145 0 -223 74t-78 202v407
q0 23 9 32.5t33 9.5h113q24 0 33.5 -9.5t9.5 -32.5v-416z" />
    <glyph glyph-name="Ucircumflex" unicode="&#xdb;" horiz-adv-x="692" 
d="M367 920q27 0 39 -5t32 -25l103 -102q13 -12 10 -23t-26 -11h-83q-31 0 -43.5 3.5t-23.5 17.5l-29 36l-31 -35q-12 -14 -24 -18t-41 -4h-79q-23 0 -25.5 11t10.5 23l102 102q20 20 32.5 25t44.5 5h32zM243 252q0 -92 103 -92q104 0 104 92v416q0 23 9 32.5t33 9.5h113
q24 0 33.5 -9.5t9.5 -32.5v-407q0 -128 -78 -202t-224 -74q-145 0 -223 74t-78 202v407q0 23 9 32.5t33 9.5h113q24 0 33.5 -9.5t9.5 -32.5v-416z" />
    <glyph glyph-name="Udieresis" unicode="&#xdc;" horiz-adv-x="692" 
d="M242 914q42 0 58 -15.5t16 -55.5v-13q0 -40 -16 -55.5t-58 -15.5h-7q-42 0 -57 15.5t-15 55.5v13q0 41 15 56t57 15h7zM457 914q42 0 57.5 -15t15.5 -56v-13q0 -40 -15.5 -55.5t-57.5 -15.5h-7q-41 0 -57 15.5t-16 55.5v13q0 40 16 55.5t57 15.5h7zM243 252
q0 -92 103 -92q104 0 104 92v416q0 23 9 32.5t33 9.5h113q24 0 33.5 -9.5t9.5 -32.5v-407q0 -128 -78 -202t-224 -74q-145 0 -223 74t-78 202v407q0 23 9 32.5t33 9.5h113q24 0 33.5 -9.5t9.5 -32.5v-416z" />
    <glyph glyph-name="Yacute" unicode="&#xdd;" horiz-adv-x="675" 
d="M351 914q42 24 66 -3l51 -58q9 -10 11.5 -17t-1.5 -13t-16 -10l-181 -56q-18 -6 -28.5 -5.5t-17.5 10.5l-28 33q-11 14 -10.5 22.5t13.5 15.5zM646 710q22 0 27 -12.5t-6 -29.5l-231 -393v-233q0 -23 -9 -32.5t-33 -9.5h-113q-24 0 -33.5 9.5t-9.5 32.5v233l-230 393
q-11 17 -6 29.5t27 12.5h120q40 0 54.5 -6t28.5 -31l107 -204l110 204q14 25 28.5 31t53.5 6h115z" />
    <glyph glyph-name="Thorn" unicode="&#xde;" horiz-adv-x="636" 
d="M355 620q121 0 193 -70t72 -191q0 -120 -72 -189.5t-193 -69.5h-108v-58q0 -23 -9 -32.5t-33 -9.5h-113q-24 0 -33 9.5t-9 32.5v626q0 23 9 32.5t33 9.5h113q24 0 33 -9.5t9 -32.5v-48h108zM330 275q39 0 62 24t23 61t-23 61t-62 24h-83v-170h83z" />
    <glyph glyph-name="germandbls" unicode="&#xdf;" horiz-adv-x="589" 
d="M42 527q0 104 62 163.5t181 59.5q126 0 189.5 -53t63.5 -153q0 -101 -72 -150v-4q49 -22 74.5 -62.5t25.5 -119.5q0 -103 -60 -155.5t-170 -52.5h-41q-24 0 -33 9.5t-9 32.5v91q0 24 9 33t33 9h14q56 1 56 59q0 60 -56 60h-14q-24 0 -33 9.5t-9 33.5v86q0 24 8 33t28 9h8
q46 0 46 56q0 54 -58 54q-57 0 -57 -57v-476q0 -23 -9.5 -32.5t-33.5 -9.5h-101q-24 0 -33 9.5t-9 32.5v485z" />
    <glyph glyph-name="agrave" unicode="&#xe0;" horiz-adv-x="529" 
d="M192 732q25 27 66 2l139 -84q23 -13 2 -38l-29 -33q-11 -15 -46 -3l-180 60q-31 11 -5 40zM40 431q54 104 222 104q126 0 179.5 -56.5t53.5 -159.5v-246q0 -27 -7.5 -39t-30.5 -21q-66 -28 -198 -28q-136 0 -187 39t-51 127q0 95 55.5 131t187.5 36q9 0 24.5 -0.5
t20.5 -0.5v25q0 51 -56 51q-40 0 -65 -34q-11 -15 -20.5 -18t-34.5 5l-72 30q-21 9 -26 21t5 34zM309 191q-13 1 -53 1q-53 0 -53 -40q0 -19 11 -29.5t40 -10.5q35 0 50 3q5 0 5 5v71z" />
    <glyph glyph-name="aacute" unicode="&#xe1;" horiz-adv-x="529" 
d="M271 734q41 25 66 -2l53 -56q9 -11 11.5 -17.5t-1 -12.5t-15.5 -10l-181 -60q-34 -12 -46 3l-28 33q-12 14 -11.5 22.5t13.5 15.5zM40 431q54 104 222 104q126 0 179.5 -56.5t53.5 -159.5v-246q0 -27 -7.5 -39t-30.5 -21q-66 -28 -198 -28q-136 0 -187 39t-51 127
q0 95 55.5 131t187.5 36q9 0 24.5 -0.5t20.5 -0.5v25q0 51 -56 51q-40 0 -65 -34q-11 -15 -20.5 -18t-34.5 5l-72 30q-21 9 -26 21t5 34zM309 191q-13 1 -53 1q-53 0 -53 -40q0 -19 11 -29.5t40 -10.5q35 0 50 3q5 0 5 5v71z" />
    <glyph glyph-name="acircumflex" unicode="&#xe2;" horiz-adv-x="529" 
d="M283 740q27 0 39 -4.5t32 -24.5l103 -102q13 -12 10.5 -23.5t-25.5 -11.5h-84q-31 0 -43.5 4t-23.5 18l-29 35l-31 -35q-13 -14 -25 -18t-40 -4h-74q-23 0 -25.5 11.5t10.5 23.5l102 102q20 20 32.5 24.5t44.5 4.5h27zM40 431q54 104 222 104q126 0 179.5 -56.5
t53.5 -159.5v-246q0 -27 -7.5 -39t-30.5 -21q-66 -28 -198 -28q-136 0 -187 39t-51 127q0 95 55.5 131t187.5 36q9 0 24.5 -0.5t20.5 -0.5v25q0 51 -56 51q-40 0 -65 -34q-11 -15 -20.5 -18t-34.5 5l-72 30q-21 9 -26 21t5 34zM309 191q-13 1 -53 1q-53 0 -53 -40
q0 -19 11 -29.5t40 -10.5q35 0 50 3q5 0 5 5v71z" />
    <glyph glyph-name="atilde" unicode="&#xe3;" horiz-adv-x="529" 
d="M409 731q23 0 23 -23q0 -68 -24 -95.5t-74 -27.5q-42 0 -81.5 20.5t-51.5 20.5q-14 0 -14 -22q0 -19 -19 -19h-62q-23 0 -23 23q0 67 24.5 95t71.5 28q43 0 84 -21t52 -21q14 0 14 22q0 20 19 20h61zM40 431q54 104 222 104q126 0 179.5 -56.5t53.5 -159.5v-246
q0 -27 -7.5 -39t-30.5 -21q-66 -28 -198 -28q-136 0 -187 39t-51 127q0 95 55.5 131t187.5 36q9 0 24.5 -0.5t20.5 -0.5v25q0 51 -56 51q-40 0 -65 -34q-11 -15 -20.5 -18t-34.5 5l-72 30q-21 9 -26 21t5 34zM309 191q-13 1 -53 1q-53 0 -53 -40q0 -19 11 -29.5t40 -10.5
q35 0 50 3q5 0 5 5v71z" />
    <glyph glyph-name="adieresis" unicode="&#xe4;" horiz-adv-x="529" 
d="M158 733q42 0 58 -15.5t16 -55.5v-13q0 -40 -16 -56t-58 -16h-7q-41 0 -56.5 16t-15.5 56v13q0 41 15 56t57 15h7zM373 733q42 0 57.5 -15t15.5 -56v-13q0 -40 -15.5 -56t-57.5 -16h-7q-41 0 -57 16t-16 56v13q0 40 16 55.5t57 15.5h7zM40 431q54 104 222 104
q126 0 179.5 -56.5t53.5 -159.5v-246q0 -27 -7.5 -39t-30.5 -21q-66 -28 -198 -28q-136 0 -187 39t-51 127q0 95 55.5 131t187.5 36q9 0 24.5 -0.5t20.5 -0.5v25q0 51 -56 51q-40 0 -65 -34q-11 -15 -20.5 -18t-34.5 5l-72 30q-21 9 -26 21t5 34zM309 191q-13 1 -53 1
q-53 0 -53 -40q0 -19 11 -29.5t40 -10.5q35 0 50 3q5 0 5 5v71z" />
    <glyph glyph-name="aring" unicode="&#xe5;" horiz-adv-x="529" 
d="M134 680q0 54 36 85.5t94 31.5q57 0 92.5 -32t35.5 -85t-35.5 -84.5t-92.5 -31.5t-93.5 31t-36.5 85zM299 680q0 16 -9.5 26t-25.5 10q-17 0 -27.5 -10t-10.5 -26q0 -15 10.5 -24.5t27.5 -9.5q16 0 25.5 9t9.5 25zM40 431q54 104 222 104q126 0 179.5 -56.5t53.5 -159.5
v-246q0 -27 -7.5 -39t-30.5 -21q-66 -28 -198 -28q-136 0 -187 39t-51 127q0 95 55.5 131t187.5 36q9 0 24.5 -0.5t20.5 -0.5v25q0 51 -56 51q-40 0 -65 -34q-11 -15 -20.5 -18t-34.5 5l-72 30q-21 9 -26 21t5 34zM309 191q-13 1 -53 1q-53 0 -53 -40q0 -19 11 -29.5
t40 -10.5q35 0 50 3q5 0 5 5v71z" />
    <glyph glyph-name="ae" unicode="&#xe6;" horiz-adv-x="781" 
d="M41 431q54 104 210 104q80 0 132 -38q56 38 135 38q122 0 181.5 -61t59.5 -158v-55q0 -52 -55 -52h-242v-24q0 -60 57 -60q43 0 70 38q11 16 21.5 19t35.5 -8l67 -33q41 -19 19 -58q-55 -98 -215 -98q-65 0 -116 27q-64 -27 -153 -27q-92 0 -142 19t-67 53t-17 94
q0 96 50.5 131.5t179.5 35.5q8 0 21.5 -0.5t17.5 -0.5v31q0 23 -10.5 34t-37.5 11q-33 0 -56 -36q-9 -15 -17.5 -17.5t-32.5 6.5l-75 30q-21 9 -26 21t5 34zM572 343q0 31 -12.5 45.5t-41.5 14.5q-55 0 -55 -60v-13h109v13zM292 191q-11 1 -45 1q-25 0 -34 -10t-9 -30
q0 -21 8 -30.5t33 -9.5l47 4v33v42z" />
    <glyph glyph-name="ccedilla" unicode="&#xe7;" horiz-adv-x="522" 
d="M477 178q43 -13 26 -55q-47 -113 -177 -134l-13 -35h9q42 -1 64.5 -29t17.5 -70q-11 -100 -150 -100q-43 0 -75 11q-26 10 -26 31v42q0 32 31 16q28 -15 56 -15q33 0 33 23q0 12 -9 16.5t-33 5.5h-20q-27 0 -14 30l32 72q-201 16 -201 219v109q0 104 61.5 162t186.5 58
q89 0 146 -38.5t79 -100.5q7 -23 1 -34.5t-28 -19.5l-93 -31q-23 -7 -34.5 -1.5t-20.5 28.5q-16 41 -59 41q-53 0 -53 -54v-130q0 -54 53 -54q43 0 59 41q9 22 20.5 27.5t34.5 -2.5z" />
    <glyph glyph-name="egrave" unicode="&#xe8;" horiz-adv-x="549" 
d="M207 732q25 27 66 2l139 -84q13 -7 13 -15.5t-11 -22.5l-29 -33q-11 -15 -46 -3l-180 60q-31 11 -5 40zM27 304q0 112 64 171.5t186 59.5q124 0 187.5 -61.5t63.5 -157.5v-55q0 -52 -55 -52h-260v-19q0 -65 65 -65q51 0 80 37q10 15 20.5 17.5t35.5 -7.5l69 -30
q40 -19 19 -58q-57 -99 -226 -99q-128 0 -188.5 63t-60.5 168v88zM341 343q0 60 -64 60t-64 -60v-13h128v13z" />
    <glyph glyph-name="eacute" unicode="&#xe9;" horiz-adv-x="549" 
d="M286 734q41 25 66 -2l52 -56q9 -11 12 -17.5t-1 -12.5t-16 -10l-180 -60q-18 -7 -28 -6.5t-18 9.5l-29 33q-11 14 -11 22.5t13 15.5zM27 304q0 112 64 171.5t186 59.5q124 0 187.5 -61.5t63.5 -157.5v-55q0 -52 -55 -52h-260v-19q0 -65 65 -65q51 0 80 37
q10 15 20.5 17.5t35.5 -7.5l69 -30q40 -19 19 -58q-57 -99 -226 -99q-128 0 -188.5 63t-60.5 168v88zM341 343q0 60 -64 60t-64 -60v-13h128v13z" />
    <glyph glyph-name="ecircumflex" unicode="&#xea;" horiz-adv-x="549" 
d="M297 735q27 0 38.5 -4.5t31.5 -24.5l100 -99q13 -12 10.5 -23t-25.5 -11h-82q-30 0 -42 4t-23 17l-28 35l-31 -34q-12 -14 -23.5 -18t-39.5 -4h-73q-22 0 -24.5 11t10.5 23l99 99q20 20 32 24.5t43 4.5h27zM27 304q0 112 64 171.5t186 59.5q124 0 187.5 -61.5
t63.5 -157.5v-55q0 -52 -55 -52h-260v-19q0 -65 65 -65q51 0 80 37q10 15 20.5 17.5t35.5 -7.5l69 -30q40 -19 19 -58q-57 -99 -226 -99q-128 0 -188.5 63t-60.5 168v88zM341 343q0 60 -64 60t-64 -60v-13h128v13z" />
    <glyph glyph-name="edieresis" unicode="&#xeb;" horiz-adv-x="549" 
d="M173 733q42 0 58 -15.5t16 -55.5v-13q0 -40 -16 -56t-58 -16h-7q-41 0 -56.5 16t-15.5 56v13q0 41 15 56t57 15h7zM388 733q42 0 57.5 -15t15.5 -56v-13q0 -40 -15.5 -56t-57.5 -16h-7q-41 0 -57 16t-16 56v13q0 40 16 55.5t57 15.5h7zM27 304q0 112 64 171.5t186 59.5
q124 0 187.5 -61.5t63.5 -157.5v-55q0 -52 -55 -52h-260v-19q0 -65 65 -65q51 0 80 37q10 15 20.5 17.5t35.5 -7.5l69 -30q40 -19 19 -58q-57 -99 -226 -99q-128 0 -188.5 63t-60.5 168v88zM341 343q0 60 -64 60t-64 -60v-13h128v13z" />
    <glyph glyph-name="igrave" unicode="&#xec;" horiz-adv-x="269" 
d="M72 736q27 26 66 -2l127 -91q12 -9 12 -17t-12 -21l-31 -31q-14 -15 -46 0l-169 69q-12 5 -15.5 11t-0.5 12.5t13 16.5zM189 520q22 0 30.5 -8.5t8.5 -29.5v-444q0 -21 -8.5 -29.5t-30.5 -8.5h-109q-22 0 -30.5 8.5t-8.5 29.5v444q0 21 8.5 29.5t30.5 8.5h109z" />
    <glyph glyph-name="iacute" unicode="&#xed;" horiz-adv-x="269" 
d="M130 734q39 28 66 2l56 -53q9 -10 12 -17t-0.5 -12.5t-14.5 -10.5l-169 -69q-32 -15 -46 0l-31 31q-12 13 -12 21t12 17zM189 520q22 0 30.5 -8.5t8.5 -29.5v-444q0 -21 -8.5 -29.5t-30.5 -8.5h-109q-22 0 -30.5 8.5t-8.5 29.5v444q0 21 8.5 29.5t30.5 8.5h109z" />
    <glyph glyph-name="icircumflex" unicode="&#xee;" horiz-adv-x="269" 
d="M317 607q14 -12 11 -23t-26 -11h-80q-31 0 -43.5 3.5t-21.5 17.5l-24 35l-25 -35q-11 -14 -23 -17.5t-41 -3.5h-71q-22 0 -25 11t10 23l94 100q18 19 30.5 23.5t44.5 4.5h26q27 0 39.5 -4.5t30.5 -23.5zM189 520q22 0 30.5 -8.5t8.5 -29.5v-444q0 -21 -8.5 -29.5
t-30.5 -8.5h-109q-22 0 -30.5 8.5t-8.5 29.5v444q0 21 8.5 29.5t30.5 8.5h109z" />
    <glyph glyph-name="idieresis" unicode="&#xef;" horiz-adv-x="269" 
d="M35 733q42 0 58 -15.5t16 -55.5v-13q0 -40 -16 -56t-58 -16h-8q-41 0 -56.5 16t-15.5 56v13q0 41 15.5 56t56.5 15h8zM241 733q42 0 57.5 -15t15.5 -56v-13q0 -40 -15.5 -56t-57.5 -16h-7q-41 0 -57 16t-16 56v13q0 40 16 55.5t57 15.5h7zM189 520q22 0 30.5 -8.5
t8.5 -29.5v-444q0 -21 -8.5 -29.5t-30.5 -8.5h-109q-22 0 -30.5 8.5t-8.5 29.5v444q0 21 8.5 29.5t30.5 8.5h109z" />
    <glyph glyph-name="eth" unicode="&#xf0;" horiz-adv-x="559" 
d="M399 758q7 8 12.5 8.5t13.5 -7.5l37 -29q15 -11 2 -27l-28 -30q87 -79 87 -288v-181q0 -103 -63.5 -161t-183.5 -58q-122 0 -185.5 54.5t-63.5 157.5v94q0 96 60 149t162 53q76 0 114 -27q-7 54 -38 85l-34 -37q-9 -8 -13 -7.5t-14 6.5l-33 21q-15 10 -1 27l21 25
q-30 6 -113 6q-24 0 -33 8.5t-9 31.5l-1 71q0 23 9 32t32 9q150 0 228 -27zM337 291q0 54 -61 54q-63 0 -63 -54v-92q0 -53 63 -53q61 0 61 53v92z" />
    <glyph glyph-name="ntilde" unicode="&#xf1;" 
d="M424 731q23 0 23 -23q0 -68 -24 -95.5t-74 -27.5q-42 0 -81.5 20.5t-50.5 20.5q-15 0 -15 -22q0 -19 -19 -19h-62q-23 0 -23 23q0 67 24.5 95t71.5 28q43 0 84 -21t52 -21q14 0 14 22q0 20 20 20h60zM81 498q96 37 213 37q113 0 169 -56t56 -160v-281q0 -21 -8 -29.5
t-30 -8.5h-110q-21 0 -29.5 8.5t-8.5 29.5v274q0 55 -60 55q-27 0 -44 -4q-3 -1 -3 -4v-321q0 -21 -8 -29.5t-30 -8.5h-110q-22 0 -30 8.5t-8 29.5v400q0 25 8 37.5t33 22.5z" />
    <glyph glyph-name="ograve" unicode="&#xf2;" horiz-adv-x="552" 
d="M205 732q25 27 66 2l139 -84q13 -7 13.5 -15.5t-11.5 -22.5l-28 -33q-12 -15 -47 -3l-180 60q-12 4 -15.5 10t-1 12.5t11.5 17.5zM28 316q0 103 64 161t184 58q121 0 184.5 -57.5t63.5 -161.5v-112q0 -104 -63.5 -161.5t-184.5 -57.5q-120 0 -184 58t-64 161v112z
M339 321q0 54 -63 54q-62 0 -62 -54v-122q0 -53 62 -53q63 0 63 53v122z" />
    <glyph glyph-name="oacute" unicode="&#xf3;" horiz-adv-x="552" 
d="M284 734q41 25 66 -2l53 -56q9 -11 11.5 -17.5t-1 -12.5t-15.5 -10l-180 -60q-35 -12 -47 3l-28 33q-12 14 -11.5 22.5t13.5 15.5zM28 316q0 103 64 161t184 58q121 0 184.5 -57.5t63.5 -161.5v-112q0 -104 -63.5 -161.5t-184.5 -57.5q-120 0 -184 58t-64 161v112z
M339 321q0 54 -63 54q-62 0 -62 -54v-122q0 -53 62 -53q63 0 63 53v122z" />
    <glyph glyph-name="ocircumflex" unicode="&#xf4;" horiz-adv-x="552" 
d="M296 735q26 0 38 -4.5t31 -24.5l100 -99q13 -12 10.5 -23t-24.5 -11h-82q-30 0 -42.5 4t-22.5 17l-29 35l-30 -34q-12 -15 -23.5 -18.5t-40.5 -3.5h-72q-22 0 -25 11t10 23l100 99q20 20 32 24.5t43 4.5h27zM28 316q0 103 64 161t184 58q121 0 184.5 -57.5t63.5 -161.5
v-112q0 -104 -63.5 -161.5t-184.5 -57.5q-120 0 -184 58t-64 161v112zM339 321q0 54 -63 54q-62 0 -62 -54v-122q0 -53 62 -53q63 0 63 53v122z" />
    <glyph glyph-name="otilde" unicode="&#xf5;" horiz-adv-x="552" 
d="M422 731q23 0 23 -23q0 -68 -24 -95.5t-74 -27.5q-42 0 -81.5 20.5t-50.5 20.5q-15 0 -15 -22q0 -19 -19 -19h-62q-23 0 -23 23q0 67 24.5 95t71.5 28q43 0 84 -21t52 -21q14 0 14 22q0 20 20 20h60zM28 316q0 103 64 161t184 58q121 0 184.5 -57.5t63.5 -161.5v-112
q0 -104 -63.5 -161.5t-184.5 -57.5q-120 0 -184 58t-64 161v112zM339 321q0 54 -63 54q-62 0 -62 -54v-122q0 -53 62 -53q63 0 63 53v122z" />
    <glyph glyph-name="odieresis" unicode="&#xf6;" horiz-adv-x="552" 
d="M172 733q41 0 57 -15.5t16 -55.5v-13q0 -40 -16 -56t-57 -16h-8q-41 0 -56.5 16t-15.5 56v13q0 41 15 56t57 15h8zM387 733q41 0 56.5 -15t15.5 -56v-13q0 -40 -15.5 -56t-56.5 -16h-7q-42 0 -58 16t-16 56v13q0 40 16 55.5t58 15.5h7zM28 316q0 103 64 161t184 58
q121 0 184.5 -57.5t63.5 -161.5v-112q0 -104 -63.5 -161.5t-184.5 -57.5q-120 0 -184 58t-64 161v112zM339 321q0 54 -63 54q-62 0 -62 -54v-122q0 -53 62 -53q63 0 63 53v122z" />
    <glyph glyph-name="divide" unicode="&#xf7;" horiz-adv-x="555" 
d="M303 605q43 0 59 -16t16 -59v-11q0 -43 -16 -59.5t-59 -16.5h-50q-43 0 -59.5 16.5t-16.5 59.5v11q0 43 16.5 59t59.5 16h50zM486 411q23 0 32.5 -9.5t9.5 -33.5v-85q0 -24 -9.5 -33t-32.5 -9h-416q-24 0 -33.5 9t-9.5 33v85q0 24 9.5 33.5t33.5 9.5h416zM303 208
q43 0 59 -16t16 -59v-11q0 -43 -16 -59.5t-59 -16.5h-50q-43 0 -59.5 16.5t-16.5 59.5v11q0 43 16.5 59t59.5 16h50z" />
    <glyph glyph-name="oslash" unicode="&#xf8;" horiz-adv-x="552" 
d="M494 552q19 0 8 -18l-38 -60q60 -57 60 -158v-112q0 -104 -63.5 -161.5t-184.5 -57.5q-60 0 -110 16l-15 -22q-9 -14 -32 -14h-57q-20 0 -9 18l39 60q-64 57 -64 161v112q0 103 64 161t184 58q66 0 115 -18l13 21q9 14 32 14h58zM317 387q-15 12 -41 12q-62 0 -62 -54
v-104v-16zM236 132q14 -10 40 -10q63 0 63 53v102q0 3 -0.5 8t-0.5 8z" />
    <glyph glyph-name="ugrave" unicode="&#xf9;" 
d="M206 732q25 27 66 2l139 -84q13 -7 13.5 -15.5t-11.5 -22.5l-28 -33q-12 -15 -47 -3l-180 60q-12 4 -15.5 10t-1 12.5t11.5 17.5zM478 520q22 0 30 -8.5t8 -29.5v-400q0 -25 -8 -37.5t-33 -22.5q-94 -37 -213 -37q-113 0 -169 56t-56 160v281q0 21 8 29.5t30 8.5h110
q22 0 30 -8.5t8 -29.5v-274q0 -55 60 -55q20 0 40 4q7 1 7 9v316q0 21 8.5 29.5t29.5 8.5h110z" />
    <glyph glyph-name="uacute" unicode="&#xfa;" 
d="M285 734q41 25 66 -2l53 -56q9 -11 11.5 -17.5t-1 -12.5t-15.5 -10l-180 -60q-35 -12 -47 3l-28 33q-12 14 -11.5 22.5t13.5 15.5zM478 520q22 0 30 -8.5t8 -29.5v-400q0 -25 -8 -37.5t-33 -22.5q-94 -37 -213 -37q-113 0 -169 56t-56 160v281q0 21 8 29.5t30 8.5h110
q22 0 30 -8.5t8 -29.5v-274q0 -55 60 -55q20 0 40 4q7 1 7 9v316q0 21 8.5 29.5t29.5 8.5h110z" />
    <glyph glyph-name="ucircumflex" unicode="&#xfb;" 
d="M297 740q28 0 39.5 -4.5t31.5 -24.5l103 -102q13 -12 10.5 -23.5t-25.5 -11.5h-84q-31 0 -43.5 4t-23.5 18l-28 35l-32 -35q-12 -14 -24 -18t-41 -4h-74q-23 0 -25.5 11.5t10.5 23.5l102 102q20 19 32.5 24t44.5 5h27zM478 520q22 0 30 -8.5t8 -29.5v-400q0 -25 -8 -37.5
t-33 -22.5q-94 -37 -213 -37q-113 0 -169 56t-56 160v281q0 21 8 29.5t30 8.5h110q22 0 30 -8.5t8 -29.5v-274q0 -55 60 -55q20 0 40 4q7 1 7 9v316q0 21 8.5 29.5t29.5 8.5h110z" />
    <glyph glyph-name="udieresis" unicode="&#xfc;" 
d="M173 733q41 0 57 -15.5t16 -55.5v-13q0 -40 -16 -56t-57 -16h-8q-41 0 -56.5 16t-15.5 56v13q0 41 15 56t57 15h8zM388 733q41 0 56.5 -15t15.5 -56v-13q0 -40 -15.5 -56t-56.5 -16h-7q-42 0 -58 16t-16 56v13q0 40 16 55.5t58 15.5h7zM478 520q22 0 30 -8.5t8 -29.5
v-400q0 -25 -8 -37.5t-33 -22.5q-94 -37 -213 -37q-113 0 -169 56t-56 160v281q0 21 8 29.5t30 8.5h110q22 0 30 -8.5t8 -29.5v-274q0 -55 60 -55q20 0 40 4q7 1 7 9v316q0 21 8.5 29.5t29.5 8.5h110z" />
    <glyph glyph-name="yacute" unicode="&#xfd;" horiz-adv-x="558" 
d="M285 734q41 25 66 -2l53 -56q9 -11 11.5 -17.5t-1 -12.5t-15.5 -10l-180 -60q-35 -12 -47 3l-28 33q-12 14 -11.5 22.5t13.5 15.5zM478 520q22 0 30 -8.5t8 -29.5v-481q0 -106 -58 -168.5t-182 -62.5q-160 0 -223 99q-24 36 19 58l84 41q24 9 33.5 6t21.5 -19
q24 -33 63 -33q56 0 56 58v39q-27 -4 -68 -4q-113 0 -169 56t-56 160v251q0 21 8 29.5t30 8.5h110q22 0 30 -8.5t8 -29.5v-244q0 -55 60 -55q28 0 47 4v295q0 21 8.5 29.5t29.5 8.5h110z" />
    <glyph glyph-name="thorn" unicode="&#xfe;" horiz-adv-x="550" 
d="M42 701q0 22 8.5 30.5t30.5 8.5h110q22 0 30 -8.5t8 -30.5v-169q29 3 64 3q115 0 172 -56t57 -160v-108q0 -111 -59 -168.5t-174 -57.5q-13 0 -60 5v-171q0 -22 -8.5 -30t-30.5 -8h-109q-22 0 -30.5 8t-8.5 30v882zM336 324q0 49 -57 49q-24 0 -50 -6v-216q23 -5 45 -5
q62 0 62 55v123z" />
    <glyph glyph-name="ydieresis" unicode="&#xff;" horiz-adv-x="558" 
d="M173 733q41 0 57 -15.5t16 -55.5v-13q0 -40 -16 -56t-57 -16h-8q-41 0 -56.5 16t-15.5 56v13q0 41 15 56t57 15h8zM388 733q41 0 56.5 -15t15.5 -56v-13q0 -40 -15.5 -56t-56.5 -16h-7q-42 0 -58 16t-16 56v13q0 40 16 55.5t58 15.5h7zM478 520q22 0 30 -8.5t8 -29.5
v-481q0 -106 -58 -168.5t-182 -62.5q-160 0 -223 99q-24 36 19 58l84 41q24 9 33.5 6t21.5 -19q24 -33 63 -33q56 0 56 58v39q-27 -4 -68 -4q-113 0 -169 56t-56 160v251q0 21 8 29.5t30 8.5h110q22 0 30 -8.5t8 -29.5v-244q0 -55 60 -55q28 0 47 4v295q0 21 8.5 29.5
t29.5 8.5h110z" />
    <glyph glyph-name="Amacron" unicode="&#x100;" horiz-adv-x="688" 
d="M466 892q21 0 28.5 -7t7.5 -29v-42q0 -22 -7.5 -29t-28.5 -7h-244q-21 0 -28.5 7t-7.5 29v42q0 21 8 28.5t28 7.5h244zM684 41q15 -41 -29 -41h-108q-38 0 -53.5 9t-21.5 33l-23 72h-216l-23 -72q-8 -24 -22.5 -33t-50.5 -9h-105q-42 0 -27 41l230 634q7 21 18 28t34 7
h114q22 0 33.5 -7t18.5 -26zM367 388q-9 30 -14.5 65t-6.5 55l-1 20h-10q1 -72 -19 -139l-37 -118h125z" />
    <glyph glyph-name="amacron" unicode="&#x101;" horiz-adv-x="529" 
d="M384 710q22 0 29 -7t7 -29v-42q0 -22 -7 -29t-29 -7h-244q-21 0 -28.5 7t-7.5 29v42q0 21 8 28.5t28 7.5h244zM40 431q54 104 222 104q126 0 179.5 -56.5t53.5 -159.5v-246q0 -27 -7.5 -39t-30.5 -21q-66 -28 -198 -28q-136 0 -187 39t-51 127q0 95 55.5 131t187.5 36
q9 0 24.5 -0.5t20.5 -0.5v25q0 51 -56 51q-40 0 -65 -34q-11 -15 -20.5 -18t-34.5 5l-72 30q-21 9 -26 21t5 34zM309 191q-13 1 -53 1q-53 0 -53 -40q0 -19 11 -29.5t40 -10.5q35 0 50 3q5 0 5 5v71z" />
    <glyph glyph-name="Abreve" unicode="&#x102;" horiz-adv-x="688" 
d="M521 860q-41 -106 -177 -106q-135 0 -176 106q-9 24 17 35l66 25q17 6 23.5 3.5t14.5 -15.5q18 -33 55 -33q34 0 54 33q7 13 14 15.5t22 -2.5l70 -26q27 -10 17 -35zM684 41q15 -41 -29 -41h-108q-38 0 -53.5 9t-21.5 33l-23 72h-216l-23 -72q-8 -24 -22.5 -33t-50.5 -9
h-105q-42 0 -27 41l230 634q7 21 18 28t34 7h114q22 0 33.5 -7t18.5 -26zM367 388q-9 30 -14.5 65t-6.5 55l-1 20h-10q1 -72 -19 -139l-37 -118h125z" />
    <glyph glyph-name="abreve" unicode="&#x103;" horiz-adv-x="529" 
d="M440 680q-40 -106 -178 -106q-136 0 -176 106q-5 14 -1 21.5t19 13.5l65 25q17 6 24 3t15 -15q17 -33 54 -33q36 0 55 33q8 12 14 14.5t21 -2.5l71 -25q26 -11 17 -35zM40 431q54 104 222 104q126 0 179.5 -56.5t53.5 -159.5v-246q0 -27 -7.5 -39t-30.5 -21
q-66 -28 -198 -28q-136 0 -187 39t-51 127q0 95 55.5 131t187.5 36q9 0 24.5 -0.5t20.5 -0.5v25q0 51 -56 51q-40 0 -65 -34q-11 -15 -20.5 -18t-34.5 5l-72 30q-21 9 -26 21t5 34zM309 191q-13 1 -53 1q-53 0 -53 -40q0 -19 11 -29.5t40 -10.5q35 0 50 3q5 0 5 5v71z" />
    <glyph glyph-name="Aogonek" unicode="&#x104;" horiz-adv-x="688" 
d="M401 710q22 0 33.5 -7t18.5 -26l232 -637q8 -24 -4 -35q-38 -35 -55 -68t-14 -53q3 -18 18 -18q8 0 19 6q16 11 23 -6l21 -47q8 -20 -6 -30q-45 -35 -111 -35q-94 0 -107 67q-17 87 75 179q-38 1 -51.5 9.5t-20.5 32.5l-22 72h-217l-23 -72q-7 -24 -21.5 -33t-50.5 -9
h-106q-42 0 -27 41l231 634q7 21 18 28t34 7h113zM368 388q-9 30 -15 65t-7 55l-1 20h-9q0 -72 -20 -139l-37 -118h125z" />
    <glyph glyph-name="aogonek" unicode="&#x105;" horiz-adv-x="530" 
d="M40 431q54 104 222 104q126 0 179.5 -56.5t53.5 -159.5v-246q0 -32 -12 -45q-77 -89 -70 -144q3 -18 19 -18q8 0 18 6q16 10 24 -6l20 -47q8 -20 -5 -30q-45 -35 -112 -35q-93 0 -106 67q-16 78 66 168q-44 -4 -78 -4q-136 0 -187 39t-51 127q0 95 55.5 131t187.5 36
q9 0 24.5 -0.5t20.5 -0.5v25q0 51 -56 51q-40 0 -65 -34q-11 -15 -20.5 -18t-34.5 5l-72 30q-21 9 -26 21t5 34zM309 191q-13 1 -53 1q-53 0 -53 -40q0 -19 11 -29.5t40 -10.5q35 0 50 3q5 0 5 5v71z" />
    <glyph glyph-name="Cacute" unicode="&#x106;" horiz-adv-x="651" 
d="M353 914q42 24 66 -3l51 -58q9 -10 11.5 -17t-1.5 -13t-16 -10l-181 -56q-18 -6 -28.5 -5.5t-17.5 10.5l-28 33q-11 14 -10.5 22.5t13.5 15.5zM33 445q0 131 80.5 205.5t227.5 74.5q226 0 292 -175q8 -22 1.5 -34.5t-28.5 -19.5l-107 -38q-23 -7 -34.5 -1.5t-19.5 28.5
q-26 65 -104 65q-58 0 -84 -25.5t-26 -78.5v-182q0 -53 26 -78.5t84 -25.5q80 0 104 65q9 24 20 29.5t34 -2.5l107 -38q22 -7 28.5 -19.5t-1.5 -34.5q-66 -175 -292 -175q-147 0 -227.5 74.5t-80.5 205.5v180z" />
    <glyph glyph-name="cacute" unicode="&#x107;" horiz-adv-x="522" 
d="M281 734q41 25 66 -2l53 -56q9 -11 11.5 -17.5t-1 -12.5t-15.5 -10l-180 -60q-35 -12 -47 3l-28 33q-12 14 -11.5 22.5t13.5 15.5zM28 315q0 104 61.5 162t186.5 58q89 0 146 -38.5t79 -100.5q7 -23 1 -34.5t-28 -19.5l-93 -31q-23 -7 -34.5 -1.5t-20.5 28.5
q-16 41 -59 41q-53 0 -53 -54v-130q0 -54 53 -54q43 0 59 41q9 22 20.5 27.5t34.5 -2.5l96 -29q43 -13 26 -55q-57 -138 -238 -138q-120 0 -178.5 57.5t-58.5 163.5v109z" />
    <glyph glyph-name="Ccircumflex" unicode="&#x108;" horiz-adv-x="651" 
d="M363 920q27 0 39 -5t32 -25l103 -102q13 -12 10.5 -23t-25.5 -11h-84q-31 0 -43.5 3.5t-23.5 17.5l-28 36l-32 -35q-12 -15 -23.5 -18.5t-41.5 -3.5h-78q-23 0 -26 11t10 23l102 102q20 20 32.5 25t44.5 5h32zM33 445q0 131 80.5 205.5t227.5 74.5q226 0 292 -175
q8 -22 1.5 -34.5t-28.5 -19.5l-107 -38q-23 -7 -34.5 -1.5t-19.5 28.5q-26 65 -104 65q-58 0 -84 -25.5t-26 -78.5v-182q0 -53 26 -78.5t84 -25.5q80 0 104 65q9 24 20 29.5t34 -2.5l107 -38q22 -7 28.5 -19.5t-1.5 -34.5q-66 -175 -292 -175q-147 0 -227.5 74.5
t-80.5 205.5v180z" />
    <glyph glyph-name="ccircumflex" unicode="&#x109;" horiz-adv-x="522" 
d="M293 735q26 0 38 -4.5t31 -24.5l100 -99q13 -12 10.5 -23t-24.5 -11h-82q-30 0 -42.5 4t-22.5 17l-29 35l-30 -34q-12 -15 -23.5 -18.5t-40.5 -3.5h-72q-22 0 -25 11t10 23l100 99q20 20 32 24.5t43 4.5h27zM28 315q0 104 61.5 162t186.5 58q89 0 146 -38.5t79 -100.5
q7 -23 1 -34.5t-28 -19.5l-93 -31q-23 -7 -34.5 -1.5t-20.5 28.5q-16 41 -59 41q-53 0 -53 -54v-130q0 -54 53 -54q43 0 59 41q9 22 20.5 27.5t34.5 -2.5l96 -29q43 -13 26 -55q-57 -138 -238 -138q-120 0 -178.5 57.5t-58.5 163.5v109z" />
    <glyph glyph-name="Cdotaccent" unicode="&#x10a;" horiz-adv-x="651" 
d="M346 915q43 0 58.5 -15.5t15.5 -59.5v-8q0 -44 -15.5 -59.5t-58.5 -15.5h-6q-44 0 -60 15.5t-16 59.5v8q0 44 16 59.5t60 15.5h6zM33 445q0 131 80.5 205.5t227.5 74.5q226 0 292 -175q8 -22 1.5 -34.5t-28.5 -19.5l-107 -38q-23 -7 -34.5 -1.5t-19.5 28.5
q-26 65 -104 65q-58 0 -84 -25.5t-26 -78.5v-182q0 -53 26 -78.5t84 -25.5q80 0 104 65q9 24 20 29.5t34 -2.5l107 -38q22 -7 28.5 -19.5t-1.5 -34.5q-66 -175 -292 -175q-147 0 -227.5 74.5t-80.5 205.5v180z" />
    <glyph glyph-name="cdotaccent" unicode="&#x10b;" horiz-adv-x="522" 
d="M276 736q43 0 58.5 -15.5t15.5 -59.5v-8q0 -44 -15.5 -59.5t-58.5 -15.5h-6q-44 0 -60 15.5t-16 59.5v8q0 44 16 59.5t60 15.5h6zM28 315q0 104 61.5 162t186.5 58q89 0 146 -38.5t79 -100.5q7 -23 1 -34.5t-28 -19.5l-93 -31q-23 -7 -34.5 -1.5t-20.5 28.5
q-16 41 -59 41q-53 0 -53 -54v-130q0 -54 53 -54q43 0 59 41q9 22 20.5 27.5t34.5 -2.5l96 -29q43 -13 26 -55q-57 -138 -238 -138q-120 0 -178.5 57.5t-58.5 163.5v109z" />
    <glyph glyph-name="Ccaron" unicode="&#x10c;" horiz-adv-x="651" 
d="M518 920q23 0 25 -11.5t-12 -23.5l-100 -102q-20 -20 -32 -24.5t-43 -4.5h-27q-29 0 -41 4.5t-32 24.5l-101 102q-14 12 -12.5 23.5t24.5 11.5h84q30 0 42 -4t23 -18l31 -34l29 34q12 14 25 18t41 4h76zM33 445q0 131 80.5 205.5t227.5 74.5q226 0 292 -175
q8 -22 1.5 -34.5t-28.5 -19.5l-107 -38q-23 -7 -34.5 -1.5t-19.5 28.5q-26 65 -104 65q-58 0 -84 -25.5t-26 -78.5v-182q0 -53 26 -78.5t84 -25.5q80 0 104 65q9 24 20 29.5t34 -2.5l107 -38q22 -7 28.5 -19.5t-1.5 -34.5q-66 -175 -292 -175q-147 0 -227.5 74.5
t-80.5 205.5v180z" />
    <glyph glyph-name="ccaron" unicode="&#x10d;" horiz-adv-x="522" 
d="M434 723q20 0 22 -10.5t-11 -21.5l-91 -94q-18 -19 -29.5 -23.5t-39.5 -4.5h-25q-27 0 -38 4.5t-29 23.5l-92 94q-13 11 -11.5 21.5t22.5 10.5h76q28 0 39 -3.5t22 -16.5l28 -32l27 31q11 13 22.5 17t37.5 4h70zM28 315q0 104 61.5 162t186.5 58q89 0 146 -38.5
t79 -100.5q7 -23 1 -34.5t-28 -19.5l-93 -31q-23 -7 -34.5 -1.5t-20.5 28.5q-16 41 -59 41q-53 0 -53 -54v-130q0 -54 53 -54q43 0 59 41q9 22 20.5 27.5t34.5 -2.5l96 -29q43 -13 26 -55q-57 -138 -238 -138q-120 0 -178.5 57.5t-58.5 163.5v109z" />
    <glyph glyph-name="Dcaron" unicode="&#x10e;" horiz-adv-x="677" 
d="M492 920q22 0 24 -11.5t-11 -23.5l-101 -102q-20 -20 -32 -24.5t-42 -4.5h-28q-29 0 -41 4.5t-32 24.5l-101 102q-8 9 -11 16.5t2.5 13t20.5 5.5h84q30 0 42 -4t24 -18l30 -34l30 34q12 14 24.5 18t41.5 4h76zM337 710q146 0 226.5 -74.5t80.5 -205.5v-150
q0 -130 -80.5 -205t-226.5 -75h-244q-24 0 -33.5 9.5t-9.5 32.5v626q0 23 9.5 32.5t33.5 9.5h244zM446 427q0 108 -116 108h-82v-360h82q116 0 116 108v144z" />
    <glyph glyph-name="dcaron" unicode="&#x10f;" horiz-adv-x="644" 
d="M28 309q0 110 57.5 168t168.5 58q10 0 67 -3v170q0 21 8.5 29.5t30.5 8.5h109q22 0 30.5 -8.5t8.5 -29.5v-625q0 -25 -8 -35.5t-34 -21.5q-89 -35 -206 -35t-174.5 56t-57.5 160v108zM669 543q-7 -20 -17 -27t-31 -7h-52q-17 0 -22 5.5t-3 22.5l17 161q3 25 13 33.5
t35 8.5h79q26 0 33 -10t0 -32zM321 369q-23 5 -44 5q-62 0 -62 -55v-123q0 -49 57 -49q28 0 46 4q3 1 3 5v213z" />
    <glyph glyph-name="Dcroat" unicode="&#x110;" horiz-adv-x="706" 
d="M366 710q147 0 227.5 -74.5t80.5 -205.5v-150q0 -130 -80.5 -205t-227.5 -75h-244q-23 0 -32.5 9.5t-9.5 32.5v254h-46q-14 0 -19.5 5t-5.5 21v76q0 26 25 26h46v244q0 23 9.5 32.5t32.5 9.5h244zM476 427q0 108 -117 108h-81v-111h82q14 0 19 -5.5t5 -20.5v-76
q0 -16 -5 -21t-19 -5h-82v-121h81q117 0 117 108v144z" />
    <glyph glyph-name="dcroat" unicode="&#x111;" horiz-adv-x="548" 
d="M551 682q14 0 19 -5.5t5 -20.5v-47q0 -16 -5 -21.5t-19 -5.5h-43v-505q0 -25 -8 -35.5t-34 -21.5q-89 -35 -206 -35t-174.5 56t-57.5 160v108q0 110 57.5 168t168.5 58q10 0 67 -3v50h-86q-14 0 -19 5.5t-5 21.5v47q0 15 5.5 20.5t18.5 5.5h86v20q0 21 8.5 29.5t30.5 8.5
h109q22 0 30.5 -8.5t8.5 -29.5v-20h43zM321 369q-23 5 -44 5q-62 0 -62 -55v-123q0 -49 57 -49q28 0 46 4q3 1 3 5v213z" />
    <glyph glyph-name="Emacron" unicode="&#x112;" horiz-adv-x="588" 
d="M424 892q22 0 29.5 -7t7.5 -29v-42q0 -22 -7.5 -29t-29.5 -7h-243q-22 0 -29 7t-7 29v42q0 21 8 28.5t28 7.5h243zM512 710q24 0 33.5 -9.5t9.5 -32.5v-90q0 -24 -9.5 -33.5t-33.5 -9.5h-264v-89h211q24 0 33.5 -9.5t9.5 -32.5v-90q0 -24 -9.5 -33.5t-33.5 -9.5h-211v-96
h273q23 0 32.5 -9t9.5 -33v-91q0 -23 -9.5 -32.5t-32.5 -9.5h-428q-24 0 -33.5 9.5t-9.5 32.5v626q0 23 9.5 32.5t33.5 9.5h419z" />
    <glyph glyph-name="emacron" unicode="&#x113;" horiz-adv-x="549" 
d="M389 702q20 0 26.5 -7t6.5 -27v-41q0 -20 -6.5 -27t-26.5 -7h-224q-19 0 -25.5 7t-6.5 27v41q0 20 7 27t25 7h224zM27 304q0 112 64 171.5t186 59.5q124 0 187.5 -61.5t63.5 -157.5v-55q0 -52 -55 -52h-260v-19q0 -65 65 -65q51 0 80 37q10 15 20.5 17.5t35.5 -7.5
l69 -30q40 -19 19 -58q-57 -99 -226 -99q-128 0 -188.5 63t-60.5 168v88zM341 343q0 60 -64 60t-64 -60v-13h128v13z" />
    <glyph glyph-name="Ebreve" unicode="&#x114;" horiz-adv-x="588" 
d="M480 860q-41 -106 -177 -106q-66 0 -111.5 27.5t-64.5 78.5q-9 24 17 35l66 25q17 6 23.5 3.5t14.5 -15.5q18 -33 55 -33q35 0 54 33q8 13 14 15t22 -2l70 -26q26 -10 17 -35zM512 710q24 0 33.5 -9.5t9.5 -32.5v-90q0 -24 -9.5 -33.5t-33.5 -9.5h-264v-89h211
q24 0 33.5 -9.5t9.5 -32.5v-90q0 -24 -9.5 -33.5t-33.5 -9.5h-211v-96h273q23 0 32.5 -9t9.5 -33v-91q0 -23 -9.5 -32.5t-32.5 -9.5h-428q-24 0 -33.5 9.5t-9.5 32.5v626q0 23 9.5 32.5t33.5 9.5h419z" />
    <glyph glyph-name="ebreve" unicode="&#x115;" horiz-adv-x="549" 
d="M455 680q-40 -106 -178 -106q-136 0 -176 106q-9 24 17 35l66 25q17 6 24 3t15 -15q17 -33 54 -33q36 0 55 33q8 12 14 14.5t21 -2.5l70 -25q15 -6 19 -13.5t-1 -21.5zM27 304q0 112 64 171.5t186 59.5q124 0 187.5 -61.5t63.5 -157.5v-55q0 -52 -55 -52h-260v-19
q0 -65 65 -65q51 0 80 37q10 15 20.5 17.5t35.5 -7.5l69 -30q40 -19 19 -58q-57 -99 -226 -99q-128 0 -188.5 63t-60.5 168v88zM341 343q0 60 -64 60t-64 -60v-13h128v13z" />
    <glyph glyph-name="Edotaccent" unicode="&#x116;" horiz-adv-x="588" 
d="M306 915q43 0 58.5 -15.5t15.5 -59.5v-8q0 -44 -15.5 -59.5t-58.5 -15.5h-6q-44 0 -59.5 15.5t-15.5 59.5v8q0 44 15.5 59.5t59.5 15.5h6zM512 710q24 0 33.5 -9.5t9.5 -32.5v-90q0 -24 -9.5 -33.5t-33.5 -9.5h-264v-89h211q24 0 33.5 -9.5t9.5 -32.5v-90
q0 -24 -9.5 -33.5t-33.5 -9.5h-211v-96h273q23 0 32.5 -9t9.5 -33v-91q0 -23 -9.5 -32.5t-32.5 -9.5h-428q-24 0 -33.5 9.5t-9.5 32.5v626q0 23 9.5 32.5t33.5 9.5h419z" />
    <glyph glyph-name="edotaccent" unicode="&#x117;" horiz-adv-x="549" 
d="M280 736q44 0 59.5 -16t15.5 -59v-8q0 -43 -15.5 -59t-59.5 -16h-6q-44 0 -59.5 16t-15.5 59v8q0 43 15.5 59t59.5 16h6zM27 304q0 112 64 171.5t186 59.5q124 0 187.5 -61.5t63.5 -157.5v-55q0 -52 -55 -52h-260v-19q0 -65 65 -65q51 0 80 37q10 15 20.5 17.5t35.5 -7.5
l69 -30q40 -19 19 -58q-57 -99 -226 -99q-128 0 -188.5 63t-60.5 168v88zM341 343q0 60 -64 60t-64 -60v-13h128v13z" />
    <glyph glyph-name="Eogonek" unicode="&#x118;" horiz-adv-x="588" 
d="M512 710q24 0 33.5 -9.5t9.5 -32.5v-90q0 -24 -9.5 -33.5t-33.5 -9.5h-264v-89h211q24 0 33.5 -9.5t9.5 -32.5v-90q0 -24 -9.5 -33.5t-33.5 -9.5h-211v-96h273q23 0 32.5 -9t9.5 -33v-91q0 -22 -10 -33q-52 -60 -62 -84q-10 -21 -7 -40q2 -17 18 -17q10 0 17 5
q16 10 24 -6l20 -47q8 -19 -5 -30q-43 -34 -111 -34q-93 0 -107 67q-9 43 13 90.5t64 86.5h-324q-24 0 -33.5 9.5t-9.5 32.5v626q0 23 9.5 32.5t33.5 9.5h419z" />
    <glyph glyph-name="eogonek" unicode="&#x119;" horiz-adv-x="550" 
d="M27 304q0 112 64 171.5t186 59.5q124 0 187.5 -61.5t63.5 -157.5v-55q0 -52 -55 -52h-260v-19q0 -65 65 -65q51 0 80 37q10 15 20.5 17.5t35.5 -7.5l69 -30q40 -19 19 -58q-12 -22 -30 -39q-83 -95 -74 -161q2 -18 18 -18q9 0 18 6q17 11 24 -6l20 -47q9 -20 -5 -30
q-45 -35 -111 -35q-94 0 -107 67q-15 78 66 166q-28 -2 -45 -2q-128 0 -188.5 63t-60.5 168v88zM341 343q0 60 -64 60t-64 -60v-13h128v13z" />
    <glyph glyph-name="Ecaron" unicode="&#x11a;" horiz-adv-x="588" 
d="M479 920q22 0 24 -11.5t-12 -23.5l-100 -102q-20 -20 -32 -24.5t-43 -4.5h-27q-29 0 -41 4.5t-32 24.5l-101 102q-14 12 -12.5 23.5t24.5 11.5h84q30 0 42 -4t24 -18l30 -34l30 34q12 14 24.5 18t41.5 4h76zM512 710q24 0 33.5 -9.5t9.5 -32.5v-90q0 -24 -9.5 -33.5
t-33.5 -9.5h-264v-89h211q24 0 33.5 -9.5t9.5 -32.5v-90q0 -24 -9.5 -33.5t-33.5 -9.5h-211v-96h273q23 0 32.5 -9t9.5 -33v-91q0 -23 -9.5 -32.5t-32.5 -9.5h-428q-24 0 -33.5 9.5t-9.5 32.5v626q0 23 9.5 32.5t33.5 9.5h419z" />
    <glyph glyph-name="ecaron" unicode="&#x11b;" horiz-adv-x="549" 
d="M438 723q21 0 23 -10.5t-11 -21.5l-92 -94q-18 -19 -29 -23.5t-39 -4.5h-25q-27 0 -38 4.5t-29 23.5l-93 94q-12 11 -11 21.5t22 10.5h77q28 0 38.5 -3.5t21.5 -16.5l28 -32l27 31q11 13 22.5 17t38.5 4h69zM27 304q0 112 64 171.5t186 59.5q124 0 187.5 -61.5
t63.5 -157.5v-55q0 -52 -55 -52h-260v-19q0 -65 65 -65q51 0 80 37q10 15 20.5 17.5t35.5 -7.5l69 -30q40 -19 19 -58q-57 -99 -226 -99q-128 0 -188.5 63t-60.5 168v88zM341 343q0 60 -64 60t-64 -60v-13h128v13z" />
    <glyph glyph-name="Gcircumflex" unicode="&#x11c;" horiz-adv-x="677" 
d="M361 930q27 0 39 -5t33 -25l102 -102q13 -12 10.5 -23t-25.5 -11h-84q-31 0 -43.5 3.5t-22.5 17.5l-29 36l-31 -35q-12 -15 -24 -18.5t-42 -3.5h-78q-23 0 -26 11t11 23l102 102q19 20 31.5 25t44.5 5h32zM606 408q24 0 33 -9.5t9 -33.5v-132q0 -109 -81.5 -178.5
t-225.5 -69.5q-147 0 -227.5 74.5t-80.5 205.5v180q0 131 80.5 205.5t227.5 74.5q226 0 292 -175q8 -22 1.5 -34.5t-28.5 -19.5l-107 -38q-23 -8 -34.5 -2t-19.5 29q-26 65 -104 65q-58 0 -84 -25.5t-26 -78.5v-182q0 -53 26 -78.5t84 -25.5q50 0 79 18t29 50v20h-96
q-23 0 -32.5 9t-9.5 33v75q0 24 9.5 33.5t32.5 9.5h253z" />
    <glyph glyph-name="gcircumflex" unicode="&#x11d;" horiz-adv-x="547" 
d="M299 735q27 0 38.5 -4.5t31.5 -24.5l100 -99q13 -12 10.5 -23t-25.5 -11h-82q-30 0 -42 4t-23 17l-28 35l-31 -34q-12 -14 -23.5 -18t-39.5 -4h-73q-22 0 -24.5 11t10.5 23l99 99q20 20 32 24.5t43 4.5h27zM27 309q0 111 61 168.5t183 57.5q125 0 197 -34q25 -11 32 -22
t7 -36v-442q0 -106 -58.5 -168.5t-182.5 -62.5q-160 0 -223 99q-23 36 19 58l84 41q34 17 54 -10q28 -36 65 -36q55 0 55 58v40q-40 -6 -68 -6q-113 0 -169 55.5t-56 159.5v80zM317 369q-15 4 -41 4q-62 0 -62 -55v-93q0 -50 57 -50q9 0 18.5 1t18.5 2.5t12 1.5v184
q0 4 -3 5z" />
    <glyph glyph-name="Gbreve" unicode="&#x11e;" horiz-adv-x="677" 
d="M518 870q-41 -106 -177 -106q-66 0 -111.5 27.5t-64.5 78.5q-9 24 17 35l66 25q17 6 23.5 3.5t14.5 -15.5q18 -33 55 -33q35 0 54 33q8 13 14 15t22 -2l70 -26q26 -10 17 -35zM606 408q24 0 33 -9.5t9 -33.5v-132q0 -109 -81.5 -178.5t-225.5 -69.5q-147 0 -227.5 74.5
t-80.5 205.5v180q0 131 80.5 205.5t227.5 74.5q226 0 292 -175q8 -22 1.5 -34.5t-28.5 -19.5l-107 -38q-23 -8 -34.5 -2t-19.5 29q-26 65 -104 65q-58 0 -84 -25.5t-26 -78.5v-182q0 -53 26 -78.5t84 -25.5q50 0 79 18t29 50v20h-96q-23 0 -32.5 9t-9.5 33v75q0 24 9.5 33.5
t32.5 9.5h253z" />
    <glyph glyph-name="gbreve" unicode="&#x11f;" horiz-adv-x="547" 
d="M457 680q-40 -106 -178 -106q-136 0 -176 106q-9 24 17 35l66 25q17 6 24 3t15 -15q17 -33 54 -33q36 0 55 33q8 12 14 14.5t21 -2.5l70 -25q15 -6 19 -13.5t-1 -21.5zM27 309q0 111 61 168.5t183 57.5q125 0 197 -34q25 -11 32 -22t7 -36v-442q0 -106 -58.5 -168.5
t-182.5 -62.5q-160 0 -223 99q-23 36 19 58l84 41q34 17 54 -10q28 -36 65 -36q55 0 55 58v40q-40 -6 -68 -6q-113 0 -169 55.5t-56 159.5v80zM317 369q-15 4 -41 4q-62 0 -62 -55v-93q0 -50 57 -50q9 0 18.5 1t18.5 2.5t12 1.5v184q0 4 -3 5z" />
    <glyph glyph-name="Gdotaccent" unicode="&#x120;" horiz-adv-x="677" 
d="M344 925q43 0 58.5 -15.5t15.5 -59.5v-8q0 -44 -15.5 -59.5t-58.5 -15.5h-6q-44 0 -59.5 15.5t-15.5 59.5v8q0 44 15.5 59.5t59.5 15.5h6zM606 408q24 0 33 -9.5t9 -33.5v-132q0 -109 -81.5 -178.5t-225.5 -69.5q-147 0 -227.5 74.5t-80.5 205.5v180q0 131 80.5 205.5
t227.5 74.5q226 0 292 -175q8 -22 1.5 -34.5t-28.5 -19.5l-107 -38q-23 -8 -34.5 -2t-19.5 29q-26 65 -104 65q-58 0 -84 -25.5t-26 -78.5v-182q0 -53 26 -78.5t84 -25.5q50 0 79 18t29 50v20h-96q-23 0 -32.5 9t-9.5 33v75q0 24 9.5 33.5t32.5 9.5h253z" />
    <glyph glyph-name="gdotaccent" unicode="&#x121;" horiz-adv-x="547" 
d="M282 736q44 0 59.5 -16t15.5 -59v-8q0 -43 -15.5 -59t-59.5 -16h-6q-44 0 -59.5 16t-15.5 59v8q0 43 15.5 59t59.5 16h6zM27 309q0 111 61 168.5t183 57.5q125 0 197 -34q25 -11 32 -22t7 -36v-442q0 -106 -58.5 -168.5t-182.5 -62.5q-160 0 -223 99q-23 36 19 58l84 41
q34 17 54 -10q28 -36 65 -36q55 0 55 58v40q-40 -6 -68 -6q-113 0 -169 55.5t-56 159.5v80zM317 369q-15 4 -41 4q-62 0 -62 -55v-93q0 -50 57 -50q9 0 18.5 1t18.5 2.5t12 1.5v184q0 4 -3 5z" />
    <glyph glyph-name="Gcommaaccent" unicode="&#x122;" horiz-adv-x="677" 
d="M606 408q24 0 33 -9.5t9 -33.5v-132q0 -109 -81.5 -178.5t-225.5 -69.5q-147 0 -227.5 74.5t-80.5 205.5v180q0 131 80.5 205.5t227.5 74.5q226 0 292 -175q8 -22 1.5 -34.5t-28.5 -19.5l-107 -38q-23 -8 -34.5 -2t-19.5 29q-26 65 -104 65q-58 0 -84 -25.5t-26 -78.5
v-182q0 -53 26 -78.5t84 -25.5q50 0 79 18t29 50v20h-96q-23 0 -32.5 9t-9.5 33v75q0 24 9.5 33.5t32.5 9.5h253zM390 -227q-11 -33 -46 -33h-63q-17 0 -23 7t-4 23l16 140q3 23 12.5 32.5t31.5 9.5h90q50 0 34 -42z" />
    <glyph glyph-name="gcommaaccent" unicode="&#x123;" horiz-adv-x="548" 
d="M231 706q8 21 19 28t33 7h58q18 0 23 -6t3 -23l-9 -100q-3 -26 -13.5 -35.5t-36.5 -9.5h-84q-53 0 -33 45zM27 309q0 111 61 168.5t183 57.5q125 0 197 -34q25 -11 32 -22t7 -36v-442q0 -106 -58.5 -168.5t-182.5 -62.5q-160 0 -223 99q-23 36 19 58l84 41q34 17 54 -10
q28 -36 65 -36q55 0 55 58v40q-40 -6 -68 -6q-113 0 -169 55.5t-56 159.5v80zM317 369q-15 4 -41 4q-62 0 -62 -55v-93q0 -50 57 -50q9 0 18.5 1t18.5 2.5t12 1.5v184q0 4 -3 5z" />
    <glyph glyph-name="Hcircumflex" unicode="&#x124;" horiz-adv-x="690" 
d="M366 920q27 0 39 -5t32 -25l103 -102q13 -12 10 -23t-26 -11h-83q-31 0 -43.5 3.5t-23.5 17.5l-29 36l-31 -35q-12 -14 -24 -18t-41 -4h-79q-23 0 -25.5 11t10.5 23l102 102q20 20 32.5 25t44.5 5h32zM598 711q23 0 32.5 -9.5t9.5 -33.5v-626q0 -23 -9.5 -32.5
t-32.5 -9.5h-114q-23 0 -32.5 9.5t-9.5 32.5v230h-194v-230q0 -23 -9 -32.5t-33 -9.5h-113q-24 0 -33.5 9.5t-9.5 32.5v626q0 24 9.5 33.5t33.5 9.5h113q24 0 33 -9.5t9 -33.5v-221h194v221q0 24 9.5 33.5t32.5 9.5h114z" />
    <glyph glyph-name="hcircumflex" unicode="&#x125;" horiz-adv-x="558" 
d="M155 941q26 0 37.5 -5t30.5 -24l99 -98q13 -11 10 -22t-25 -11h-81q-29 0 -41 4t-22 17l-28 34l-30 -34q-12 -14 -23.5 -17.5t-39.5 -3.5h-71q-22 0 -24.5 11t10.5 22l98 98q20 20 31.5 24.5t42.5 4.5h26zM189 740q22 0 30.5 -8.5t8.5 -29.5v-171q32 4 68 4
q113 0 169 -56t56 -160v-281q0 -21 -8.5 -29.5t-29.5 -8.5h-110q-22 0 -30 8.5t-8 29.5v274q0 55 -60 55q-31 0 -47 -4v-325q0 -21 -8.5 -29.5t-30.5 -8.5h-109q-22 0 -30.5 8.5t-8.5 29.5v664q0 21 8.5 29.5t30.5 8.5h109z" />
    <glyph glyph-name="Hbar" unicode="&#x126;" horiz-adv-x="722" 
d="M693 629q14 0 19 -5.5t5 -20.5v-54q0 -16 -5 -21t-19 -5h-38v-481q0 -23 -9 -32.5t-33 -9.5h-113q-24 0 -33.5 9.5t-9.5 32.5v230h-193v-230q0 -23 -9.5 -32.5t-33.5 -9.5h-113q-24 0 -33 9.5t-9 32.5v481h-37q-14 0 -19 5t-5 21v54q0 26 24 26h37v39q0 24 9 33.5t33 9.5
h113q24 0 33.5 -9.5t9.5 -33.5v-39h193v39q0 24 9.5 33.5t33.5 9.5h113q24 0 33 -9.5t9 -33.5v-39h38zM264 523v-76h193v76h-193z" />
    <glyph glyph-name="hbar" unicode="&#x127;" horiz-adv-x="559" 
d="M229 531q32 4 68 4q113 0 169 -56t56 -160v-281q0 -21 -8.5 -29.5t-29.5 -8.5h-110q-22 0 -30 8.5t-8 29.5v274q0 55 -60 55q-31 0 -47 -4v-325q0 -21 -8.5 -29.5t-30.5 -8.5h-109q-22 0 -30.5 8.5t-8.5 29.5v543h-28q-14 0 -19 5.5t-5 21.5v45q0 15 5.5 20.5t18.5 5.5
h28v23q0 21 8.5 29.5t30.5 8.5h109q22 0 30.5 -8.5t8.5 -29.5v-23h91q14 0 19.5 -5.5t5.5 -20.5v-45q0 -16 -5 -21.5t-20 -5.5h-91v-50z" />
    <glyph glyph-name="Itilde" unicode="&#x128;" horiz-adv-x="299" 
d="M296 909q23 0 23 -23q0 -67 -24 -95t-74 -28q-42 0 -81.5 21t-50.5 21q-15 0 -15 -22q0 -20 -19 -20h-62q-23 0 -23 23q0 68 24.5 95.5t71.5 27.5q43 0 84 -20.5t52 -20.5q14 0 14 22q0 19 20 19h60zM50 670q0 22 9 31t31 9h118q22 0 31 -9t9 -31v-630q0 -22 -9 -31
t-31 -9h-118q-22 0 -31 9t-9 31v630z" />
    <glyph glyph-name="itilde" unicode="&#x129;" horiz-adv-x="269" 
d="M251 738q19 0 19 -24q0 -70 -20 -98t-61 -28q-34 0 -65.5 20t-40.5 20q-13 0 -13 -20t-16 -20h-52q-19 0 -19 24q0 126 80 126q35 0 67 -21t41 -21q14 0 14 22q0 20 16 20h50zM189 520q22 0 30.5 -8.5t8.5 -29.5v-444q0 -21 -8.5 -29.5t-30.5 -8.5h-109q-22 0 -30.5 8.5
t-8.5 29.5v444q0 21 8.5 29.5t30.5 8.5h109z" />
    <glyph glyph-name="Imacron" unicode="&#x12a;" horiz-adv-x="299" 
d="M271 892q22 0 29.5 -7t7.5 -29v-42q0 -22 -7.5 -29t-29.5 -7h-244q-21 0 -28 7t-7 29v42q0 21 8 28.5t27 7.5h244zM50 670q0 22 9 31t31 9h118q22 0 31 -9t9 -31v-630q0 -22 -9 -31t-31 -9h-118q-22 0 -31 9t-9 31v630z" />
    <glyph glyph-name="imacron" unicode="&#x12b;" horiz-adv-x="269" 
d="M222 707q16 0 21.5 -7t5.5 -28v-42q0 -22 -5.5 -29t-21.5 -7h-176q-16 0 -21 7t-5 29v42q0 20 6 27.5t20 7.5h176zM189 520q22 0 30.5 -8.5t8.5 -29.5v-444q0 -21 -8.5 -29.5t-30.5 -8.5h-109q-22 0 -30.5 8.5t-8.5 29.5v444q0 21 8.5 29.5t30.5 8.5h109z" />
    <glyph glyph-name="Ibreve" unicode="&#x12c;" horiz-adv-x="299" 
d="M327 860q-41 -106 -177 -106q-66 0 -111.5 27.5t-64.5 78.5q-10 24 17 35l66 25q16 6 23 3.5t15 -15.5q18 -33 55 -33q34 0 54 33q8 13 14 15t21 -2l71 -26q26 -10 17 -35zM50 670q0 22 9 31t31 9h118q22 0 31 -9t9 -31v-630q0 -22 -9 -31t-31 -9h-118q-22 0 -31 9t-9 31
v630z" />
    <glyph glyph-name="ibreve" unicode="&#x12d;" horiz-adv-x="269" 
d="M291 715q26 -11 17 -35q-40 -106 -173 -106q-134 0 -172 106q-10 24 17 35l66 25q16 6 23 3t15 -15q16 -32 51 -32q33 0 50 32q8 12 14 14.5t21 -2.5zM189 520q22 0 30.5 -8.5t8.5 -29.5v-444q0 -21 -8.5 -29.5t-30.5 -8.5h-109q-22 0 -30.5 8.5t-8.5 29.5v444
q0 21 8.5 29.5t30.5 8.5h109z" />
    <glyph glyph-name="Iogonek" unicode="&#x12e;" horiz-adv-x="299" 
d="M259 -181q8 -20 -6 -30q-45 -35 -111 -35q-94 0 -107 67q-9 43 11 90t61 89q-34 0 -45.5 10t-11.5 35v625q0 22 9 31t31 9h118q22 0 31 -9t9 -31v-630q0 -26 -13 -36q-64 -67 -57 -120q3 -18 18 -18q8 0 19 6q16 11 23 -6z" />
    <glyph glyph-name="iogonek" unicode="&#x12f;" horiz-adv-x="269" 
d="M110 563q-43 0 -59 16t-16 58v11q0 42 16 58t59 16h50q42 0 58 -16t16 -58v-11q0 -42 -16 -58t-58 -16h-50zM245 -181q8 -20 -5 -30q-45 -35 -110 -35q-93 0 -106 67q-17 83 65 179q-28 0 -38 9.5t-10 33.5v439q0 21 8.5 29.5t30.5 8.5h109q22 0 30.5 -8.5t8.5 -29.5
v-444q0 -22 -10 -31q-59 -70 -52 -123q3 -18 19 -18q8 0 17 5q16 11 24 -6z" />
    <glyph glyph-name="Idotaccent" unicode="&#x130;" horiz-adv-x="299" 
d="M153 915q43 0 58.5 -15.5t15.5 -59.5v-8q0 -44 -15.5 -59.5t-58.5 -15.5h-6q-44 0 -60 15.5t-16 59.5v8q0 44 16 59.5t60 15.5h6zM50 670q0 22 9 31t31 9h118q22 0 31 -9t9 -31v-630q0 -22 -9 -31t-31 -9h-118q-22 0 -31 9t-9 31v630z" />
    <glyph glyph-name="dotlessi" unicode="&#x131;" horiz-adv-x="269" 
d="M189 520q22 0 30.5 -8.5t8.5 -29.5v-444q0 -21 -8.5 -29.5t-30.5 -8.5h-109q-22 0 -30.5 8.5t-8.5 29.5v444q0 21 8.5 29.5t30.5 8.5h109z" />
    <glyph glyph-name="IJ" unicode="&#x132;" horiz-adv-x="884" 
d="M798 711q23 0 32 -9.5t9 -32.5v-422q0 -125 -70.5 -193.5t-205.5 -68.5q-197 0 -260 169q-7 22 -1 34t28 20l104 37q22 8 34.5 3t21.5 -27q26 -61 78 -61q73 0 73 86v423q0 23 9 32.5t32 9.5h116zM50 670q0 22 9 31t31 9h118q22 0 31 -9t9 -31v-630q0 -22 -9 -31t-31 -9
h-118q-22 0 -31 9t-9 31v630z" />
    <glyph glyph-name="ij" unicode="&#x133;" horiz-adv-x="540" 
d="M160 722q42 0 58 -16t16 -58v-11q0 -42 -16 -58t-58 -16h-50q-43 0 -59 16t-16 58v11q0 42 16 58t59 16h50zM429 722q43 0 58.5 -16t15.5 -58v-11q0 -42 -15.5 -58t-58.5 -16h-50q-43 0 -58.5 16t-15.5 58v11q0 42 15.5 58t58.5 16h50zM189 520q22 0 30.5 -8.5t8.5 -29.5
v-444q0 -21 -8.5 -29.5t-30.5 -8.5h-109q-22 0 -30.5 8.5t-8.5 29.5v444q0 21 8.5 29.5t30.5 8.5h109zM458 520q22 0 30.5 -8.5t8.5 -29.5v-492q0 -113 -63 -166.5t-191 -53.5q-22 0 -31 8.5t-9 30.5v85q0 22 8.5 31t31.5 9q68 0 68 68v480q0 21 8.5 29.5t30.5 8.5h108z" />
    <glyph glyph-name="Jcircumflex" unicode="&#x134;" horiz-adv-x="587" 
d="M463 920q27 0 39 -5t32 -25l103 -102q13 -12 10.5 -23t-25.5 -11h-84q-31 0 -43.5 3.5t-23.5 17.5l-29 36l-31 -35q-12 -14 -24 -18t-41 -4h-79q-23 0 -25.5 11t10.5 23l102 102q20 20 32.5 25t44.5 5h32zM500 711q23 0 32 -9.5t9 -32.5v-422q0 -125 -70.5 -193.5
t-204.5 -68.5q-198 0 -260 169q-15 39 26 54l104 37q22 8 34.5 3t21.5 -27q26 -61 78 -61q73 0 73 86v423q0 23 9 32.5t33 9.5h115z" />
    <glyph glyph-name="jcircumflex" unicode="&#x135;" horiz-adv-x="270" 
d="M155 735q26 0 38 -4.5t32 -23.5l100 -100q13 -12 10.5 -23t-25.5 -11h-82q-30 0 -42.5 4t-22.5 17l-29 35l-30 -35q-12 -13 -24 -17t-39 -4h-73q-22 0 -25 11t10 23l100 100q20 19 32 23.5t43 4.5h27zM189 520q22 0 30.5 -8.5t8.5 -29.5v-492q0 -113 -63 -166.5
t-191 -53.5q-22 0 -31 8.5t-9 30.5v85q0 22 9 31t31 9q68 0 68 68v480q0 21 8.5 29.5t30.5 8.5h108z" />
    <glyph glyph-name="Kcommaaccent" unicode="&#x136;" horiz-adv-x="655" 
d="M644 49q11 -20 4.5 -34.5t-30.5 -14.5h-108q-41 0 -59 8t-30 34l-87 179q-13 27 -27 38.5t-41 11.5h-18v-229q0 -23 -9 -32.5t-33 -9.5h-113q-24 0 -33.5 9.5t-9.5 32.5v626q0 23 9.5 32.5t33.5 9.5h113q24 0 33 -9.5t9 -32.5v-222h14h8l144 227q15 24 28.5 30.5
t51.5 6.5h115q23 0 29.5 -12t-5.5 -32l-182 -290q35 -25 61 -77zM374 -227q-11 -33 -45 -33h-64q-16 0 -22.5 6.5t-4.5 23.5l16 140q3 23 12.5 32.5t32.5 9.5h89q50 0 34 -42z" />
    <glyph glyph-name="kcommaaccent" unicode="&#x137;" horiz-adv-x="553" 
d="M533 51q14 -26 6.5 -38.5t-37.5 -12.5h-92q-35 0 -49.5 7t-23.5 31l-45 120q-13 30 -46 30h-18v-149q0 -22 -8.5 -30.5t-30.5 -8.5h-109q-22 0 -30 8.5t-8 30.5v662q0 22 8 30.5t30 8.5h109q22 0 30.5 -8.5t8.5 -30.5v-361h15h6l84 144q12 22 26 29t46 7h89q60 0 31 -49
l-113 -194q18 -15 33 -45zM339 -195q-8 -21 -19 -28t-33 -7h-58q-18 0 -23 6t-3 23l10 114q2 25 12.5 34.5t36.5 9.5h85q49 0 32 -44z" />
    <glyph glyph-name="kgreenlandic" unicode="&#x138;" horiz-adv-x="549" 
d="M530 49q26 -49 -31 -49h-92q-36 0 -51 7t-26 29l-68 125l-34 -44v-77q0 -23 -9 -31.5t-32 -8.5h-105q-23 0 -32 8.5t-9 31.5v441q0 22 9 30.5t32 8.5h105q23 0 32 -8.5t9 -30.5v-109l88 114q17 21 29 27.5t42 6.5h114q28 0 33.5 -13t-9.5 -31l-131 -164z" />
    <glyph glyph-name="Lacute" unicode="&#x139;" horiz-adv-x="542" 
d="M160 914q42 24 66 -3l51 -58q9 -10 11.5 -17t-1.5 -13t-16 -10l-181 -56q-18 -6 -28.5 -5.5t-17.5 10.5l-28 33q-11 14 -10.5 22.5t13.5 15.5zM206 710q24 0 33 -9.5t9 -32.5v-493h241q23 0 32.5 -9t9.5 -33v-91q0 -23 -9.5 -32.5t-32.5 -9.5h-396q-24 0 -33.5 9.5
t-9.5 32.5v626q0 23 9.5 32.5t33.5 9.5h113z" />
    <glyph glyph-name="lacute" unicode="&#x13a;" horiz-adv-x="272" 
d="M145 931q41 23 64 -4l50 -61q9 -10 11.5 -17.5t-1 -13t-15.5 -9.5l-177 -54q-34 -12 -46 3l-28 35q-12 14 -11.5 22.5t13.5 15.5zM229 38q0 -21 -8.5 -29.5t-30.5 -8.5h-109q-22 0 -30.5 8.5t-8.5 29.5v664q0 21 8.5 29.5t30.5 8.5h109q22 0 30.5 -8.5t8.5 -29.5v-664z
" />
    <glyph glyph-name="Lcommaaccent" unicode="&#x13b;" horiz-adv-x="542" 
d="M206 710q24 0 33 -9.5t9 -32.5v-493h241q23 0 32.5 -9t9.5 -33v-91q0 -23 -9.5 -32.5t-32.5 -9.5h-396q-24 0 -33.5 9.5t-9.5 32.5v626q0 23 9.5 32.5t33.5 9.5h113zM320 -227q-11 -33 -45 -33h-64q-16 0 -22.5 6.5t-4.5 23.5l17 140q2 23 12 32.5t32 9.5h89q50 0 34 -42
z" />
    <glyph glyph-name="lcommaaccent" unicode="&#x13c;" horiz-adv-x="272" 
d="M229 38q0 -21 -8.5 -29.5t-29.5 -8.5h-110q-22 0 -30 8.5t-8 29.5v664q0 21 8 29.5t30 8.5h110q21 0 29.5 -8.5t8.5 -29.5v-664zM175 -187q-8 -21 -19 -28t-33 -7h-61q-18 0 -23.5 6t-3.5 23l10 111q2 26 13 35.5t36 9.5h89q49 0 32 -45z" />
    <glyph glyph-name="Lcaron" unicode="&#x13d;" horiz-adv-x="545" 
d="M205 710q24 0 33.5 -9.5t9.5 -32.5v-493h240q24 0 33 -9t9 -33v-91q0 -23 -9 -32.5t-33 -9.5h-396q-24 0 -33 9.5t-9 32.5v626q0 23 9 32.5t33 9.5h113zM442 513q-8 -20 -17 -27t-30 -7h-58q-16 0 -21 5.5t-3 20.5l19 166q2 23 11.5 31t32.5 8h90q48 0 34 -39z" />
    <glyph glyph-name="lcaron" unicode="&#x13e;" horiz-adv-x="338" 
d="M229 38q0 -21 -8.5 -29.5t-29.5 -8.5h-110q-22 0 -30 8.5t-8 29.5v664q0 21 8 29.5t30 8.5h110q21 0 29.5 -8.5t8.5 -29.5v-664zM394 558q-8 -21 -17 -27.5t-30 -6.5h-58q-16 0 -21 5t-3 20l16 152q2 23 11.5 31t32.5 8h90q50 0 34 -39z" />
    <glyph glyph-name="Ldot" unicode="&#x13f;" horiz-adv-x="545" 
d="M206 710q24 0 33 -9.5t9 -32.5v-493h241q23 0 32.5 -9t9.5 -33v-91q0 -23 -9.5 -32.5t-32.5 -9.5h-396q-24 0 -33.5 9.5t-9.5 32.5v626q0 23 9.5 32.5t33.5 9.5h113zM419 500q42 0 58 -16t16 -58v-38q0 -42 -16 -58t-58 -16h-36q-42 0 -58 16t-16 58v38q0 42 16 58t58 16
h36z" />
    <glyph glyph-name="ldot" unicode="&#x140;" horiz-adv-x="479" 
d="M229 38q0 -21 -8.5 -29.5t-29.5 -8.5h-110q-22 0 -30 8.5t-8 29.5v664q0 21 8 29.5t30 8.5h110q21 0 29.5 -8.5t8.5 -29.5v-664zM395 476q45 0 62 -17t17 -61v-41q0 -44 -17 -61t-62 -17h-38q-44 0 -61 17t-17 61v41q0 44 17 61t61 17h38z" />
    <glyph glyph-name="Lslash" unicode="&#x141;" horiz-adv-x="590" 
d="M536 175q24 0 33 -9t9 -33v-91q0 -23 -9 -32.5t-33 -9.5h-396q-24 0 -33 9.5t-9 32.5v206l-40 -17q-18 -7 -26 -4.5t-15 16.5l-25 51q-12 25 13 36l93 42v296q0 23 9 32.5t33 9.5h113q24 0 33.5 -9.5t9.5 -32.5v-208l112 50q28 14 41 -13l25 -50q12 -25 -13 -36l-165 -74
v-162h240z" />
    <glyph glyph-name="lslash" unicode="&#x142;" horiz-adv-x="377" 
d="M377 440q13 -23 -10 -37l-86 -45v-320q0 -21 -8.5 -29.5t-30.5 -8.5h-109q-22 0 -30.5 8.5t-8.5 29.5v220l-26 -14q-27 -15 -42 10l-25 43q-13 23 11 37l82 44v324q0 21 8.5 29.5t30.5 8.5h109q22 0 30.5 -8.5t8.5 -29.5v-225l29 16q27 15 42 -10z" />
    <glyph glyph-name="Nacute" unicode="&#x143;" horiz-adv-x="700" 
d="M363 914q42 24 66 -3l51 -58q26 -29 -5 -40l-182 -56q-17 -6 -27.5 -5.5t-18.5 10.5l-27 33q-21 25 2 38zM608 710q23 0 32.5 -9.5t9.5 -32.5v-626q0 -23 -9.5 -32.5t-32.5 -9.5h-113q-28 0 -41 20l-154 237q-31 49 -48.5 91t-39.5 115h-8q14 -62 19 -88t9.5 -71.5
t4.5 -98.5v-163q0 -23 -9.5 -32.5t-33.5 -9.5h-101q-24 0 -33.5 9.5t-9.5 32.5v626q0 23 9.5 32.5t33.5 9.5h118q29 0 42 -20l164 -256q16 -24 28 -48t18.5 -40t17.5 -45t20 -50h8q-26 85 -35.5 133t-9.5 120v164q0 23 9 32.5t33 9.5h102z" />
    <glyph glyph-name="nacute" unicode="&#x144;" 
d="M286 734q41 25 66 -2l53 -56q9 -11 11.5 -17.5t-1 -12.5t-15.5 -10l-180 -60q-35 -12 -47 3l-28 33q-12 14 -11.5 22.5t13.5 15.5zM81 498q96 37 213 37q113 0 169 -56t56 -160v-281q0 -21 -8 -29.5t-30 -8.5h-110q-21 0 -29.5 8.5t-8.5 29.5v274q0 55 -60 55
q-27 0 -44 -4q-3 -1 -3 -4v-321q0 -21 -8 -29.5t-30 -8.5h-110q-22 0 -30 8.5t-8 29.5v400q0 25 8 37.5t33 22.5z" />
    <glyph glyph-name="Ncommaaccent" unicode="&#x145;" horiz-adv-x="700" 
d="M608 710q23 0 32.5 -9.5t9.5 -32.5v-626q0 -23 -9.5 -32.5t-32.5 -9.5h-113q-28 0 -41 20l-154 237q-31 49 -48.5 91t-39.5 115h-8q14 -62 19 -88t9.5 -71.5t4.5 -98.5v-163q0 -23 -9.5 -32.5t-33.5 -9.5h-101q-24 0 -33.5 9.5t-9.5 32.5v626q0 23 9.5 32.5t33.5 9.5h118
q29 0 42 -20l164 -256q16 -24 28 -48t18.5 -40t17.5 -45t20 -50h8q-26 85 -35.5 133t-9.5 120v164q0 23 9 32.5t33 9.5h102zM392 -227q-11 -33 -45 -33h-64q-16 0 -22.5 6.5t-4.5 23.5l17 140q2 23 12 32.5t32 9.5h89q50 0 34 -42z" />
    <glyph glyph-name="ncommaaccent" unicode="&#x146;" 
d="M81 498q96 37 213 37q113 0 169 -56t56 -160v-281q0 -21 -8 -29.5t-30 -8.5h-110q-21 0 -29.5 8.5t-8.5 29.5v274q0 55 -60 55q-27 0 -44 -4q-3 -1 -3 -4v-321q0 -21 -8 -29.5t-30 -8.5h-110q-22 0 -30 8.5t-8 29.5v400q0 25 8 37.5t33 22.5zM328 -185q-8 -21 -19 -28
t-33 -7h-58q-18 0 -23 6t-3 23l9 114q3 25 13.5 34.5t36.5 9.5h84q50 0 33 -44z" />
    <glyph glyph-name="Ncaron" unicode="&#x147;" horiz-adv-x="700" 
d="M529 920q22 0 24 -11.5t-11 -23.5l-101 -102q-20 -20 -32 -24.5t-42 -4.5h-28q-29 0 -41 4.5t-32 24.5l-101 102q-8 9 -11 16.5t2.5 13t20.5 5.5h84q30 0 42 -4t24 -18l30 -34l30 34q12 14 24.5 18t41.5 4h76zM608 710q23 0 32.5 -9.5t9.5 -32.5v-626q0 -23 -9.5 -32.5
t-32.5 -9.5h-113q-28 0 -41 20l-154 237q-31 49 -48.5 91t-39.5 115h-8q14 -62 19 -88t9.5 -71.5t4.5 -98.5v-163q0 -23 -9.5 -32.5t-33.5 -9.5h-101q-24 0 -33.5 9.5t-9.5 32.5v626q0 23 9.5 32.5t33.5 9.5h118q29 0 42 -20l164 -256q16 -24 28 -48t18.5 -40t17.5 -45
t20 -50h8q-26 85 -35.5 133t-9.5 120v164q0 23 9 32.5t33 9.5h102z" />
    <glyph glyph-name="ncaron" unicode="&#x148;" 
d="M439 723q20 0 22 -10.5t-11 -21.5l-91 -94q-18 -19 -29.5 -23.5t-39.5 -4.5h-25q-27 0 -38 4.5t-29 23.5l-92 94q-13 11 -11.5 21.5t22.5 10.5h76q28 0 39 -3.5t22 -16.5l28 -32l27 31q11 13 22.5 17t37.5 4h70zM81 498q96 37 213 37q113 0 169 -56t56 -160v-281
q0 -21 -8 -29.5t-30 -8.5h-110q-21 0 -29.5 8.5t-8.5 29.5v274q0 55 -60 55q-27 0 -44 -4q-3 -1 -3 -4v-321q0 -21 -8 -29.5t-30 -8.5h-110q-22 0 -30 8.5t-8 29.5v400q0 25 8 37.5t33 22.5z" />
    <glyph glyph-name="napostrophe" unicode="&#x149;" 
d="M162 564q-12 -16 -21 -20.5t-30 -4.5h-70q-15 0 -19.5 5.5t0.5 19.5l52 142q8 21 16.5 27.5t31.5 6.5h107q25 0 31.5 -11t-6.5 -28zM81 498q96 37 213 37q113 0 169 -56t56 -160v-281q0 -21 -8 -29.5t-30 -8.5h-110q-21 0 -29.5 8.5t-8.5 29.5v274q0 55 -60 55
q-27 0 -44 -4q-3 -1 -3 -4v-321q0 -21 -8 -29.5t-30 -8.5h-110q-22 0 -30 8.5t-8 29.5v400q0 25 8 37.5t33 22.5z" />
    <glyph glyph-name="Eng" unicode="&#x14a;" horiz-adv-x="700" 
d="M608 710q23 0 32.5 -9.5t9.5 -32.5v-678q0 -113 -63 -166.5t-191 -53.5q-22 0 -31 8.5t-9 30.5v85q0 22 9 31t31 9q35 0 50 17t15 51v9l-161 246q-31 49 -48.5 91t-39.5 115h-8q14 -62 19 -88t9.5 -71.5t4.5 -98.5v-163q0 -23 -9.5 -32.5t-33.5 -9.5h-101
q-24 0 -33.5 9.5t-9.5 32.5v626q0 23 9.5 32.5t33.5 9.5h118q29 0 42 -20l164 -256q16 -24 28 -48t18.5 -40t17.5 -45t20 -50h8q-26 85 -35.5 133t-9.5 120v164q0 23 9 32.5t33 9.5h102z" />
    <glyph glyph-name="eng" unicode="&#x14b;" horiz-adv-x="557" 
d="M81 498q96 37 213 37q113 0 169 -56t56 -160v-333q0 -112 -62 -164t-188 -52q-22 0 -30.5 8.5t-8.5 30.5v84q0 22 8.5 30t30.5 8q64 0 64 67v314q0 55 -60 55q-27 0 -44 -4q-3 -1 -3 -4v-321q0 -21 -8 -29.5t-30 -8.5h-110q-22 0 -30 8.5t-8 29.5v400q0 25 8 37.5
t33 22.5z" />
    <glyph glyph-name="Omacron" unicode="&#x14c;" horiz-adv-x="682" 
d="M462 902q22 0 29.5 -7t7.5 -29v-42q0 -22 -7.5 -29t-29.5 -7h-243q-22 0 -29 7t-7 29v42q0 21 8 28.5t28 7.5h243zM33 445q0 131 80.5 205.5t227.5 74.5q146 0 226.5 -74.5t80.5 -205.5v-180q0 -131 -80.5 -205.5t-226.5 -74.5q-147 0 -227.5 74.5t-80.5 205.5v180z
M450 454q0 47 -28.5 71.5t-80.5 24.5q-53 0 -81.5 -24.5t-28.5 -71.5v-198q0 -47 28.5 -71.5t81.5 -24.5q52 0 80.5 24.5t28.5 71.5v198z" />
    <glyph glyph-name="omacron" unicode="&#x14d;" horiz-adv-x="552" 
d="M387 702q20 0 27 -7t7 -27v-41q0 -20 -7 -27t-27 -7h-223q-20 0 -26.5 7t-6.5 27v41q0 20 7.5 27t25.5 7h223zM28 316q0 103 64 161t184 58q121 0 184.5 -57.5t63.5 -161.5v-112q0 -104 -63.5 -161.5t-184.5 -57.5q-120 0 -184 58t-64 161v112zM339 321q0 54 -63 54
q-62 0 -62 -54v-122q0 -53 62 -53q63 0 63 53v122z" />
    <glyph glyph-name="Obreve" unicode="&#x14e;" horiz-adv-x="682" 
d="M518 870q-41 -106 -177 -106q-66 0 -111.5 27.5t-64.5 78.5q-9 24 17 35l66 25q17 6 23.5 3.5t14.5 -15.5q18 -33 55 -33q35 0 54 33q8 13 14 15t22 -2l70 -26q26 -10 17 -35zM33 445q0 131 80.5 205.5t227.5 74.5q146 0 226.5 -74.5t80.5 -205.5v-180
q0 -131 -80.5 -205.5t-226.5 -74.5q-147 0 -227.5 74.5t-80.5 205.5v180zM450 454q0 47 -28.5 71.5t-80.5 24.5q-53 0 -81.5 -24.5t-28.5 -71.5v-198q0 -47 28.5 -71.5t81.5 -24.5q52 0 80.5 24.5t28.5 71.5v198z" />
    <glyph glyph-name="obreve" unicode="&#x14f;" horiz-adv-x="552" 
d="M453 680q-40 -106 -177 -106q-66 0 -111.5 27t-64.5 79q-10 24 17 35l66 25q16 6 23 3t15 -15q17 -33 55 -33q35 0 54 33q8 12 14 14.5t21 -2.5l71 -25q26 -11 17 -35zM28 316q0 103 64 161t184 58q121 0 184.5 -57.5t63.5 -161.5v-112q0 -104 -63.5 -161.5t-184.5 -57.5
q-120 0 -184 58t-64 161v112zM339 321q0 54 -63 54q-62 0 -62 -54v-122q0 -53 62 -53q63 0 63 53v122z" />
    <glyph glyph-name="Ohungarumlaut" unicode="&#x150;" horiz-adv-x="682" 
d="M229 907q24 34 65 26l67 -15q20 -4 23 -16.5t-12 -25.5l-113 -95q-25 -21 -44 -15l-45 8q-34 7 -12 38zM427 907q28 34 66 24l69 -18q20 -6 23.5 -18.5t-12.5 -24.5l-122 -92q-23 -20 -44 -15l-44 10q-18 4 -20.5 15t8.5 23zM33 445q0 131 80.5 205.5t227.5 74.5
q146 0 226.5 -74.5t80.5 -205.5v-180q0 -131 -80.5 -205.5t-226.5 -74.5q-147 0 -227.5 74.5t-80.5 205.5v180zM450 454q0 47 -28.5 71.5t-80.5 24.5q-53 0 -81.5 -24.5t-28.5 -71.5v-198q0 -47 28.5 -71.5t81.5 -24.5q52 0 80.5 24.5t28.5 71.5v198z" />
    <glyph glyph-name="ohungarumlaut" unicode="&#x151;" horiz-adv-x="552" 
d="M173 698q22 31 60 24l61 -14q18 -4 21 -15.5t-11 -23.5l-103 -87q-14 -11 -22 -14t-19 0l-41 7q-32 7 -12 36zM355 698q25 31 61 22l64 -17q19 -5 21.5 -17t-11.5 -22l-112 -84q-14 -11 -21 -14t-20 0l-41 9q-16 3 -18.5 13.5t8.5 21.5zM28 316q0 103 64 161t184 58
q121 0 184.5 -57.5t63.5 -161.5v-112q0 -104 -63.5 -161.5t-184.5 -57.5q-120 0 -184 58t-64 161v112zM339 321q0 54 -63 54q-62 0 -62 -54v-122q0 -53 62 -53q63 0 63 53v122z" />
    <glyph glyph-name="OE" unicode="&#x152;" horiz-adv-x="884" 
d="M817 175q24 0 33 -9t9 -33v-91q0 -23 -9 -32.5t-33 -9.5h-352q-49 -15 -124 -15q-147 0 -227.5 74.5t-80.5 205.5v180q0 131 80.5 205.5t227.5 74.5q65 0 116 -15h352q23 0 32.5 -9.5t9.5 -32.5v-90q0 -24 -9.5 -33.5t-32.5 -9.5h-210v-89h156q24 0 33.5 -9.5t9.5 -32.5
v-90q0 -24 -9.5 -33.5t-33.5 -9.5h-156v-96h218zM231 256q0 -47 28.5 -71.5t81.5 -24.5q35 0 60 12v366q-25 12 -60 12q-53 0 -81.5 -24.5t-28.5 -71.5v-198z" />
    <glyph glyph-name="oe" unicode="&#x153;" horiz-adv-x="803" 
d="M402 494q57 41 139 41q121 0 180.5 -61t59.5 -158v-55q0 -52 -54 -52h-242v-19q0 -65 57 -65q42 0 67 35q12 18 22 21.5t38 -7.5l67 -33q41 -19 19 -58q-55 -98 -215 -98q-81 0 -139 42q-54 -42 -138 -42q-116 0 -175.5 57.5t-59.5 161.5v112q0 104 59.5 161.5
t175.5 57.5q82 0 139 -41zM595 343q0 31 -12.5 45.5t-41.5 14.5q-55 0 -55 -60v-13h109v13zM314 324q0 51 -51 51q-49 0 -49 -51v-128q0 -50 49 -50q51 0 51 50v128z" />
    <glyph glyph-name="Racute" unicode="&#x154;" horiz-adv-x="661" 
d="M329 914q41 23 66 -3l51 -58q9 -10 11.5 -17t-1.5 -13t-16 -10l-181 -56q-17 -6 -28 -5.5t-19 10.5l-27 33q-12 14 -11.5 22t14.5 16zM378 710q115 0 182 -63t67 -178q0 -146 -108 -206q16 -20 27 -43l90 -171q11 -20 4.5 -34.5t-30.5 -14.5h-108q-39 0 -59.5 10.5
t-32.5 37.5l-64 137q-14 27 -30 39t-45 12h-23v-194q0 -23 -9 -32.5t-33 -9.5h-113q-24 0 -33.5 9.5t-9.5 32.5v626q0 23 9.5 32.5t33.5 9.5h285zM422 470q0 30 -17 47.5t-49 17.5h-108v-132h108q31 0 48.5 18t17.5 49z" />
    <glyph glyph-name="racute" unicode="&#x155;" horiz-adv-x="362" 
d="M206 734q41 25 66 -2l53 -56q26 -29 -5 -40l-180 -60q-35 -12 -46 3l-29 33q-11 14 -11 22.5t13 15.5zM285 535h31q22 0 30 -8.5t8 -29.5v-85q0 -22 -8 -30.5t-30 -8.5h-38q-27 0 -46 -4q-5 0 -5 -6v-325q0 -21 -8.5 -29.5t-30.5 -8.5h-109q-22 0 -30.5 8.5t-8.5 29.5
v405q0 25 8.5 37.5t33.5 22.5q73 28 203 32z" />
    <glyph glyph-name="Rcommaaccent" unicode="&#x156;" horiz-adv-x="661" 
d="M378 710q115 0 182 -63t67 -178q0 -146 -108 -206q16 -20 27 -43l90 -171q11 -20 4.5 -34.5t-30.5 -14.5h-108q-39 0 -59.5 10.5t-32.5 37.5l-64 137q-14 27 -30 39t-45 12h-23v-194q0 -23 -9 -32.5t-33 -9.5h-113q-24 0 -33.5 9.5t-9.5 32.5v626q0 23 9.5 32.5t33.5 9.5
h285zM422 470q0 30 -17 47.5t-49 17.5h-108v-132h108q31 0 48.5 18t17.5 49zM379 -227q-11 -33 -45 -33h-64q-30 0 -26 30l16 140q3 23 12.5 32.5t31.5 9.5h90q49 0 34 -42z" />
    <glyph glyph-name="rcommaaccent" unicode="&#x157;" horiz-adv-x="362" 
d="M285 535h31q22 0 30 -8.5t8 -29.5v-85q0 -22 -8 -30.5t-30 -8.5h-38q-27 0 -46 -4q-5 0 -5 -6v-325q0 -21 -8.5 -29.5t-30.5 -8.5h-109q-22 0 -30.5 8.5t-8.5 29.5v405q0 25 8.5 37.5t33.5 22.5q73 28 203 32zM173 -192q-7 -21 -18.5 -28t-33.5 -7h-58q-18 0 -23 6t-3 23
l10 115q2 25 12.5 34.5t36.5 9.5h85q49 0 32 -44z" />
    <glyph glyph-name="Rcaron" unicode="&#x158;" horiz-adv-x="661" 
d="M494 920q23 0 25 -11.5t-12 -23.5l-100 -102q-20 -20 -32 -24.5t-43 -4.5h-27q-29 0 -41.5 4.5t-31.5 24.5l-101 102q-14 12 -12.5 23.5t23.5 11.5h84q30 0 42.5 -4t23.5 -18l31 -34l29 34q12 14 25 18t41 4h76zM378 710q115 0 182 -63t67 -178q0 -146 -108 -206
q16 -20 27 -43l90 -171q11 -20 4.5 -34.5t-30.5 -14.5h-108q-39 0 -59.5 10.5t-32.5 37.5l-64 137q-14 27 -30 39t-45 12h-23v-194q0 -23 -9 -32.5t-33 -9.5h-113q-24 0 -33.5 9.5t-9.5 32.5v626q0 23 9.5 32.5t33.5 9.5h285zM422 470q0 30 -17 47.5t-49 17.5h-108v-132h108
q31 0 48.5 18t17.5 49z" />
    <glyph glyph-name="rcaron" unicode="&#x159;" horiz-adv-x="362" 
d="M359 723q21 0 22.5 -10.5t-10.5 -21.5l-92 -94q-18 -19 -29.5 -23.5t-38.5 -4.5h-25q-27 0 -38 4.5t-29 23.5l-93 94q-12 11 -11 21.5t22 10.5h77q27 0 38.5 -3.5t21.5 -16.5l28 -32l27 31q11 13 22.5 17t38.5 4h69zM285 535h31q22 0 30 -8.5t8 -29.5v-85q0 -22 -8 -30.5
t-30 -8.5h-38q-27 0 -46 -4q-5 0 -5 -6v-325q0 -21 -8.5 -29.5t-30.5 -8.5h-109q-22 0 -30.5 8.5t-8.5 29.5v405q0 25 8.5 37.5t33.5 22.5q73 28 203 32z" />
    <glyph glyph-name="Sacute" unicode="&#x15a;" horiz-adv-x="647" 
d="M334 924q42 24 66 -3l51 -58q9 -10 11.5 -17t-1.5 -13t-16 -10l-181 -56q-18 -6 -28.5 -5.5t-17.5 10.5l-28 33q-11 14 -10.5 22.5t13.5 15.5zM28 501q0 101 78.5 162.5t218.5 61.5q110 0 177 -34t102 -106q19 -39 -24 -56l-100 -43q-20 -9 -31 -5t-23 26q-26 52 -101 52
q-95 0 -95 -52q0 -29 32 -41t99 -20q44 -6 73 -12t69.5 -22.5t64.5 -39.5t41.5 -64t17.5 -95q0 -107 -86.5 -167.5t-223.5 -60.5q-234 0 -291 155q-8 23 -1.5 35t28.5 20l94 34q22 8 35 3.5t24 -25.5q27 -53 113 -53q107 0 107 57q0 27 -29 39t-88 20q-28 4 -41 6t-41 7.5
t-43.5 10.5t-39.5 15t-38 21t-31 28t-25.5 37.5t-15 47t-6.5 58.5z" />
    <glyph glyph-name="sacute" unicode="&#x15b;" horiz-adv-x="518" 
d="M262 734q41 25 66 -2l53 -56q9 -11 11.5 -17.5t-1 -12.5t-15.5 -10l-181 -60q-34 -12 -46 3l-28 33q-12 14 -11.5 22.5t13.5 15.5zM26 364q0 79 57 125t166 46q172 0 231 -107q20 -37 -21 -55l-76 -33q-12 -5 -19 -7t-14 2.5t-8.5 6.5t-10.5 12q-23 28 -72 28
q-36 0 -49.5 -6t-13.5 -21q0 -16 16.5 -22.5t65.5 -10.5q120 -10 170.5 -45.5t50.5 -114.5q0 -82 -61 -129.5t-174 -47.5q-192 0 -238 119q-15 37 24 52l79 28q25 7 34.5 3.5t18.5 -18.5q19 -32 75 -32q39 0 55.5 7t16.5 24q0 19 -18.5 26t-76.5 11q-102 7 -155 42t-53 117z
" />
    <glyph glyph-name="Scircumflex" unicode="&#x15c;" horiz-adv-x="647" 
d="M344 930q27 0 39 -5t32 -25l103 -102q13 -12 10.5 -23t-25.5 -11h-84q-31 0 -43.5 3.5t-23.5 17.5l-28 36l-32 -35q-12 -15 -23.5 -18.5t-41.5 -3.5h-78q-23 0 -26 11t10 23l102 102q20 20 32.5 25t44.5 5h32zM28 501q0 101 78.5 162.5t218.5 61.5q110 0 177 -34
t102 -106q19 -39 -24 -56l-100 -43q-20 -9 -31 -5t-23 26q-26 52 -101 52q-95 0 -95 -52q0 -29 32 -41t99 -20q44 -6 73 -12t69.5 -22.5t64.5 -39.5t41.5 -64t17.5 -95q0 -107 -86.5 -167.5t-223.5 -60.5q-234 0 -291 155q-8 23 -1.5 35t28.5 20l94 34q22 8 35 3.5t24 -25.5
q27 -53 113 -53q107 0 107 57q0 27 -29 39t-88 20q-28 4 -41 6t-41 7.5t-43.5 10.5t-39.5 15t-38 21t-31 28t-25.5 37.5t-15 47t-6.5 58.5z" />
    <glyph glyph-name="scircumflex" unicode="&#x15d;" horiz-adv-x="518" 
d="M273 735q27 0 38.5 -4.5t31.5 -24.5l100 -99q13 -12 10.5 -23t-25.5 -11h-82q-29 0 -41.5 4t-23.5 17l-28 35l-30 -34q-12 -14 -24 -18t-40 -4h-72q-23 0 -25.5 11t10.5 23l100 99q20 20 32 24.5t43 4.5h26zM26 364q0 79 57 125t166 46q172 0 231 -107q20 -37 -21 -55
l-76 -33q-12 -5 -19 -7t-14 2.5t-8.5 6.5t-10.5 12q-23 28 -72 28q-36 0 -49.5 -6t-13.5 -21q0 -16 16.5 -22.5t65.5 -10.5q120 -10 170.5 -45.5t50.5 -114.5q0 -82 -61 -129.5t-174 -47.5q-192 0 -238 119q-15 37 24 52l79 28q25 7 34.5 3.5t18.5 -18.5q19 -32 75 -32
q39 0 55.5 7t16.5 24q0 19 -18.5 26t-76.5 11q-102 7 -155 42t-53 117z" />
    <glyph glyph-name="Scedilla" unicode="&#x15e;" horiz-adv-x="646" 
d="M361 446q44 -6 73 -12t69.5 -22.5t64.5 -39.5t41.5 -64t17.5 -95q0 -94 -66.5 -152t-177.5 -72l-14 -35h10q41 -1 64 -29.5t18 -69.5q-11 -100 -150 -100q-44 0 -75 11q-26 10 -26 31l-1 42q0 33 32 16q28 -15 55 -15q34 0 34 23q0 12 -9 16.5t-33 5.5h-20q-27 0 -14 30
l32 71q-207 9 -260 154q-15 40 26 55l95 34q22 8 34.5 3.5t24.5 -25.5q26 -53 112 -53q108 0 108 57q0 27 -29.5 39t-87.5 20q-28 4 -41 6t-41 7.5t-43.5 10.5t-39.5 15t-38 21t-31 28t-25.5 37.5t-15 47t-6.5 58.5q0 101 78 162.5t218 61.5q110 0 177 -33.5t103 -106.5
q19 -39 -24 -56l-100 -43q-21 -9 -32 -5t-22 26q-27 52 -102 52q-94 0 -94 -52q0 -29 32 -41t99 -20z" />
    <glyph glyph-name="scedilla" unicode="&#x15f;" horiz-adv-x="518" 
d="M26 364q0 79 57 125t166 46q172 0 231 -107q20 -37 -21 -55l-76 -33q-12 -5 -19 -7t-14 2.5t-8.5 6.5t-10.5 12q-23 28 -72 28q-36 0 -49.5 -6t-13.5 -21q0 -16 16.5 -22.5t65.5 -10.5q120 -10 170.5 -45.5t50.5 -114.5q0 -71 -46.5 -117t-133.5 -57l-17 -41h10
q40 -1 62.5 -28t17.5 -67q-11 -96 -146 -96q-43 0 -74 10q-25 10 -25 30l-1 40q0 32 31 16q26 -14 54 -14q33 0 33 22q0 20 -41 21h-20q-26 0 -13 28l35 78q-158 11 -199 117q-15 37 24 52l79 28q25 7 34.5 3.5t18.5 -18.5q19 -32 75 -32q39 0 55.5 7t16.5 24q0 19 -18.5 26
t-76.5 11q-102 7 -155 42t-53 117z" />
    <glyph glyph-name="Scaron" unicode="&#x160;" horiz-adv-x="647" 
d="M499 930q23 0 25 -11.5t-12 -23.5l-100 -102q-20 -20 -32 -24.5t-43 -4.5h-27q-29 0 -41 4.5t-32 24.5l-101 102q-14 12 -12.5 23.5t24.5 11.5h84q30 0 42 -4t23 -18l31 -34l29 34q12 14 25 18t41 4h76zM28 501q0 101 78.5 162.5t218.5 61.5q110 0 177 -34t102 -106
q19 -39 -24 -56l-100 -43q-20 -9 -31 -5t-23 26q-26 52 -101 52q-95 0 -95 -52q0 -29 32 -41t99 -20q44 -6 73 -12t69.5 -22.5t64.5 -39.5t41.5 -64t17.5 -95q0 -107 -86.5 -167.5t-223.5 -60.5q-234 0 -291 155q-8 23 -1.5 35t28.5 20l94 34q22 8 35 3.5t24 -25.5
q27 -53 113 -53q107 0 107 57q0 27 -29 39t-88 20q-28 4 -41 6t-41 7.5t-43.5 10.5t-39.5 15t-38 21t-31 28t-25.5 37.5t-15 47t-6.5 58.5z" />
    <glyph glyph-name="scaron" unicode="&#x161;" horiz-adv-x="518" 
d="M413 719q20 0 21.5 -10.5t-10.5 -21.5l-90 -92q-18 -18 -29.5 -22.5t-38.5 -4.5h-25q-26 0 -37 4.5t-29 22.5l-91 92q-12 11 -11 21.5t22 10.5h75q27 0 38.5 -3.5t21.5 -16.5l28 -31l26 31q11 13 22.5 16.5t37.5 3.5h69zM26 364q0 79 57 125t166 46q172 0 231 -107
q20 -37 -21 -55l-76 -33q-12 -5 -19 -7t-14 2.5t-8.5 6.5t-10.5 12q-23 28 -72 28q-36 0 -49.5 -6t-13.5 -21q0 -16 16.5 -22.5t65.5 -10.5q120 -10 170.5 -45.5t50.5 -114.5q0 -82 -61 -129.5t-174 -47.5q-192 0 -238 119q-15 37 24 52l79 28q25 7 34.5 3.5t18.5 -18.5
q19 -32 75 -32q39 0 55.5 7t16.5 24q0 19 -18.5 26t-76.5 11q-102 7 -155 42t-53 117z" />
    <glyph glyph-name="Tcaron" unicode="&#x164;" horiz-adv-x="603" 
d="M478 920q22 0 24 -11.5t-12 -23.5l-100 -102q-20 -20 -32 -24.5t-43 -4.5h-27q-29 0 -41 4.5t-32 24.5l-101 102q-14 12 -12.5 23.5t24.5 11.5h84q30 0 42 -4t24 -18l30 -34l30 34q12 14 24.5 18t41.5 4h76zM549 710q24 0 33.5 -9.5t9.5 -32.5v-90q0 -24 -9.5 -33.5
t-33.5 -9.5h-148v-493q0 -23 -9.5 -32.5t-33.5 -9.5h-113q-24 0 -33 9.5t-9 32.5v493h-149q-24 0 -33 9.5t-9 33.5v90q0 23 9 32.5t33 9.5h495z" />
    <glyph glyph-name="tcaron" unicode="&#x165;" horiz-adv-x="401" 
d="M445 589q-7 -20 -18 -27t-32 -7h-57q-17 0 -21.5 5.5t-3.5 22.5l9 115q2 24 12.5 33t34.5 9h87q51 0 33 -42zM236 640q22 0 30.5 -8.5t8.5 -29.5v-82h69q22 0 30 -8.5t8 -29.5v-75q0 -22 -8 -30.5t-30 -8.5h-69v-147q0 -40 15 -55t53 -15q23 0 31 -8.5t8 -30.5v-86
q0 -22 -8 -30.5t-31 -8.5q-133 -2 -194 48t-61 173v160h-43q-22 0 -30 8.5t-8 30.5v75q0 21 8 29.5t30 8.5h43v82q0 21 8.5 29.5t30.5 8.5h109z" />
    <glyph glyph-name="Tbar" unicode="&#x166;" horiz-adv-x="614" 
d="M555 710q24 0 33 -9.5t9 -32.5v-90q0 -24 -9 -33.5t-33 -9.5h-149v-163h96q14 0 19.5 -5.5t5.5 -20.5v-67q0 -16 -5 -21.5t-20 -5.5h-96v-210q0 -23 -9 -32.5t-33 -9.5h-113q-24 0 -33.5 9.5t-9.5 32.5v210h-95q-15 0 -20 5.5t-5 21.5v67q0 26 25 26h95v163h-148
q-24 0 -33.5 9.5t-9.5 33.5v90q0 23 9.5 32.5t33.5 9.5h495z" />
    <glyph glyph-name="tbar" unicode="&#x167;" horiz-adv-x="402" 
d="M237 640q22 0 30 -8t8 -30v-82h70q21 0 29.5 -8t8.5 -30v-75q0 -22 -8.5 -30t-29.5 -8h-70v-53h69q14 0 19 -5.5t5 -20.5v-46q0 -16 -5 -21.5t-19 -5.5h-69v-5q0 -37 15.5 -48.5t52.5 -11.5q23 0 31.5 -9t8.5 -31v-86q0 -22 -9 -30.5t-31 -8.5q-133 -2 -193.5 48
t-60.5 174v8h-44q-14 0 -19 5.5t-5 21.5v46q0 15 5.5 20.5t18.5 5.5h44v53h-44q-22 0 -30 8t-8 30v75q0 22 8 30t30 8h44v82q0 22 8 30t30 8h110z" />
    <glyph glyph-name="Utilde" unicode="&#x168;" horiz-adv-x="692" 
d="M493 909q23 0 23 -23q0 -67 -24 -95t-74 -28q-42 0 -82 21t-51 21q-14 0 -14 -22q0 -20 -20 -20h-61q-23 0 -23 23q0 68 24.5 95.5t71.5 27.5q43 0 84 -20.5t51 -20.5q15 0 15 22q0 19 19 19h61zM243 252q0 -92 103 -92q104 0 104 92v416q0 23 9 32.5t33 9.5h113
q24 0 33.5 -9.5t9.5 -32.5v-407q0 -128 -78 -202t-224 -74q-145 0 -223 74t-78 202v407q0 23 9 32.5t33 9.5h113q24 0 33.5 -9.5t9.5 -32.5v-416z" />
    <glyph glyph-name="utilde" unicode="&#x169;" 
d="M423 731q23 0 23 -23q0 -68 -24 -95.5t-74 -27.5q-42 0 -81.5 20.5t-50.5 20.5q-15 0 -15 -22q0 -19 -19 -19h-62q-23 0 -23 23q0 67 24.5 95t71.5 28q43 0 84 -21t52 -21q14 0 14 22q0 20 20 20h60zM478 520q22 0 30 -8.5t8 -29.5v-400q0 -25 -8 -37.5t-33 -22.5
q-94 -37 -213 -37q-113 0 -169 56t-56 160v281q0 21 8 29.5t30 8.5h110q22 0 30 -8.5t8 -29.5v-274q0 -55 60 -55q20 0 40 4q7 1 7 9v316q0 21 8.5 29.5t29.5 8.5h110z" />
    <glyph glyph-name="Umacron" unicode="&#x16a;" horiz-adv-x="692" 
d="M468 892q22 0 29 -7t7 -29v-42q0 -22 -7 -29t-29 -7h-244q-21 0 -28.5 7t-7.5 29v42q0 21 8 28.5t28 7.5h244zM243 252q0 -92 103 -92q104 0 104 92v416q0 23 9 32.5t33 9.5h113q24 0 33.5 -9.5t9.5 -32.5v-407q0 -128 -78 -202t-224 -74q-145 0 -223 74t-78 202v407
q0 23 9 32.5t33 9.5h113q24 0 33.5 -9.5t9.5 -32.5v-416z" />
    <glyph glyph-name="umacron" unicode="&#x16b;" 
d="M398 710q22 0 29.5 -7t7.5 -29v-42q0 -22 -7.5 -29t-29.5 -7h-244q-21 0 -28 7t-7 29v42q0 21 8 28.5t27 7.5h244zM478 520q22 0 30 -8.5t8 -29.5v-400q0 -25 -8 -37.5t-33 -22.5q-94 -37 -213 -37q-113 0 -169 56t-56 160v281q0 21 8 29.5t30 8.5h110q22 0 30 -8.5
t8 -29.5v-274q0 -55 60 -55q20 0 40 4q7 1 7 9v316q0 21 8.5 29.5t29.5 8.5h110z" />
    <glyph glyph-name="Ubreve" unicode="&#x16c;" horiz-adv-x="692" 
d="M524 860q-41 -106 -178 -106q-135 0 -176 106q-9 24 17 35l66 25q17 6 24 3.5t15 -15.5q18 -33 54 -33t55 33q8 13 14 15t21 -2l70 -26q15 -5 19 -13t-1 -22zM243 252q0 -92 103 -92q104 0 104 92v416q0 23 9 32.5t33 9.5h113q24 0 33.5 -9.5t9.5 -32.5v-407
q0 -128 -78 -202t-224 -74q-145 0 -223 74t-78 202v407q0 23 9 32.5t33 9.5h113q24 0 33.5 -9.5t9.5 -32.5v-416z" />
    <glyph glyph-name="ubreve" unicode="&#x16d;" 
d="M454 680q-40 -106 -177 -106q-66 0 -111.5 27t-64.5 79q-10 24 17 35l66 25q16 6 23 3t15 -15q17 -33 55 -33q35 0 54 33q8 12 14 14.5t21 -2.5l71 -25q26 -11 17 -35zM478 520q22 0 30 -8.5t8 -29.5v-400q0 -25 -8 -37.5t-33 -22.5q-94 -37 -213 -37q-113 0 -169 56
t-56 160v281q0 21 8 29.5t30 8.5h110q22 0 30 -8.5t8 -29.5v-274q0 -55 60 -55q20 0 40 4q7 1 7 9v316q0 21 8.5 29.5t29.5 8.5h110z" />
    <glyph glyph-name="Uring" unicode="&#x16e;" horiz-adv-x="692" 
d="M217 855q0 54 36.5 85.5t94.5 31.5q57 0 92 -32t35 -85t-35.5 -84.5t-91.5 -31.5q-58 0 -94.5 31t-36.5 85zM382 855q0 16 -9.5 26t-24.5 10q-38 0 -38 -36q0 -15 10 -24.5t28 -9.5q15 0 24.5 9t9.5 25zM243 252q0 -92 103 -92q104 0 104 92v416q0 23 9 32.5t33 9.5h113
q24 0 33.5 -9.5t9.5 -32.5v-407q0 -128 -78 -202t-224 -74q-145 0 -223 74t-78 202v407q0 23 9 32.5t33 9.5h113q24 0 33.5 -9.5t9.5 -32.5v-416z" />
    <glyph glyph-name="uring" unicode="&#x16f;" 
d="M145 651q0 54 36 85.5t94 31.5q57 0 92.5 -32t35.5 -85t-35.5 -84.5t-92.5 -31.5t-93.5 31t-36.5 85zM310 651q0 16 -9.5 25.5t-25.5 9.5q-17 0 -27.5 -9.5t-10.5 -25.5q0 -15 10.5 -25t27.5 -10q16 0 25.5 9.5t9.5 25.5zM478 520q22 0 30 -8.5t8 -29.5v-400
q0 -25 -8 -37.5t-33 -22.5q-94 -37 -213 -37q-113 0 -169 56t-56 160v281q0 21 8 29.5t30 8.5h110q22 0 30 -8.5t8 -29.5v-274q0 -55 60 -55q20 0 40 4q7 1 7 9v316q0 21 8.5 29.5t29.5 8.5h110z" />
    <glyph glyph-name="Uhungarumlaut" unicode="&#x170;" horiz-adv-x="692" 
d="M234 897q24 34 65 26l67 -15q20 -4 23 -16.5t-12 -25.5l-113 -95q-15 -13 -22.5 -15.5t-21.5 0.5l-44 8q-35 7 -13 38zM433 897q27 34 65 24l70 -18q20 -6 23 -18.5t-13 -24.5l-121 -92q-25 -20 -45 -15l-44 10q-17 4 -19.5 15t8.5 23zM243 252q0 -92 103 -92
q104 0 104 92v416q0 23 9 32.5t33 9.5h113q24 0 33.5 -9.5t9.5 -32.5v-407q0 -128 -78 -202t-224 -74q-145 0 -223 74t-78 202v407q0 23 9 32.5t33 9.5h113q24 0 33.5 -9.5t9.5 -32.5v-416z" />
    <glyph glyph-name="uhungarumlaut" unicode="&#x171;" 
d="M164 713q26 34 66 26l67 -14q13 -3 18.5 -10t3.5 -15.5t-11 -17.5l-113 -95q-15 -12 -23.5 -15.5t-21.5 0.5l-44 8q-36 7 -12 38zM363 713q26 35 66 24l69 -18q20 -6 23 -18.5t-12 -24.5l-122 -91q-15 -12 -23 -15.5t-21 0.5l-44 9q-36 7 -12 39zM478 520q22 0 30 -8.5
t8 -29.5v-400q0 -25 -8 -37.5t-33 -22.5q-94 -37 -213 -37q-113 0 -169 56t-56 160v281q0 21 8 29.5t30 8.5h110q22 0 30 -8.5t8 -29.5v-274q0 -55 60 -55q20 0 40 4q7 1 7 9v316q0 21 8.5 29.5t29.5 8.5h110z" />
    <glyph glyph-name="Uogonek" unicode="&#x172;" horiz-adv-x="692" 
d="M605 710q24 0 33.5 -9.5t9.5 -32.5v-407q0 -135 -86 -209q-53 -52 -78.5 -99.5t-22.5 -68.5q3 -18 19 -18q8 0 18 6q16 10 24 -6l20 -47q8 -20 -5 -30q-46 -35 -112 -35q-88 0 -100 64q-8 38 10 83t54 86q-14 -2 -43 -2q-145 0 -223 74t-78 202v407q0 23 9 32.5t33 9.5
h113q24 0 33.5 -9.5t9.5 -32.5v-416q0 -92 103 -92q104 0 104 92v416q0 23 9 32.5t33 9.5h113z" />
    <glyph glyph-name="uogonek" unicode="&#x173;" horiz-adv-x="557" 
d="M478 520q22 0 30 -8.5t8 -29.5v-400q0 -28 -10 -41q-41 -52 -57.5 -93t-13.5 -61q3 -18 18 -18q9 0 19 6q16 11 23 -6l21 -50q8 -20 -6 -30q-45 -35 -111 -35q-94 0 -107 67q-16 81 67 171q-49 -7 -97 -7q-113 0 -169 56t-56 160v281q0 21 8 29.5t30 8.5h110
q22 0 30 -8.5t8 -29.5v-274q0 -55 60 -55q20 0 40 4q7 1 7 9v316q0 21 8.5 29.5t29.5 8.5h110z" />
    <glyph glyph-name="Wcircumflex" unicode="&#x174;" horiz-adv-x="939" 
d="M496 920q27 0 39 -5t33 -25l102 -102q13 -12 10.5 -23t-25.5 -11h-84q-31 0 -43.5 3.5t-22.5 17.5l-29 36l-31 -35q-12 -15 -24 -18.5t-42 -3.5h-78q-23 0 -26 11t11 23l102 102q19 20 31.5 25t44.5 5h32zM899 710q22 0 27.5 -10t-0.5 -31l-159 -634q-5 -21 -16.5 -28
t-34.5 -7h-117q-44 0 -52 33l-54 233q-17 84 -19 180h-8q-3 -93 -22 -180l-53 -231q-6 -21 -17.5 -28t-34.5 -7h-115q-45 0 -52 33l-158 636q-6 21 -0.5 31t27.5 10h123q28 0 40 -7.5t16 -29.5l44 -262q14 -81 14 -177h7q0 92 19 177l62 262q5 23 17.5 30t38.5 7h108
q25 0 38 -7.5t18 -29.5l61 -262q16 -74 19 -177h8q3 98 15 177l42 262q4 22 16.5 29.5t40.5 7.5h111z" />
    <glyph glyph-name="wcircumflex" unicode="&#x175;" horiz-adv-x="775" 
d="M410 735q27 0 38.5 -4.5t31.5 -24.5l100 -99q13 -12 10.5 -23t-25.5 -11h-82q-30 0 -42 4t-23 17l-28 35l-31 -34q-12 -14 -23.5 -18t-39.5 -4h-73q-22 0 -24.5 11t10.5 23l99 99q20 20 32 24.5t43 4.5h27zM729 520q27 0 34 -9t-2 -35l-118 -442q-9 -34 -52 -34h-98
q-45 0 -53 34l-32 134q-6 27 -10.5 62.5t-5.5 57.5l-2 22h-7q-7 -82 -21 -142l-33 -134q-9 -34 -52 -34h-91q-43 0 -53 34l-119 442q-9 26 -2 35t34 9h94q35 0 47.5 -7t16.5 -31l24 -133q4 -23 7 -62t4 -67l1 -27h8q5 103 16 156l30 132q4 24 16.5 31.5t47.5 7.5h64
q34 0 46 -7t17 -31l31 -133q5 -24 9 -63t5 -66l2 -27h8q2 98 12 156l24 132q4 24 16 31.5t47 7.5h90z" />
    <glyph glyph-name="Ycircumflex" unicode="&#x176;" horiz-adv-x="675" 
d="M361 920q27 0 39 -5t32 -25l103 -102q13 -12 10.5 -23t-25.5 -11h-84q-31 0 -43.5 3.5t-23.5 17.5l-28 36l-32 -35q-12 -15 -23.5 -18.5t-41.5 -3.5h-78q-23 0 -26 11t10 23l102 102q20 20 32.5 25t44.5 5h32zM646 710q22 0 27 -12.5t-6 -29.5l-231 -393v-233
q0 -23 -9 -32.5t-33 -9.5h-113q-24 0 -33.5 9.5t-9.5 32.5v233l-230 393q-11 17 -6 29.5t27 12.5h120q40 0 54.5 -6t28.5 -31l107 -204l110 204q14 25 28.5 31t53.5 6h115z" />
    <glyph glyph-name="ycircumflex" unicode="&#x177;" horiz-adv-x="558" 
d="M297 735q26 0 38 -4.5t31 -24.5l100 -99q13 -12 10.5 -23t-24.5 -11h-82q-30 0 -42.5 4t-22.5 17l-29 35l-30 -34q-12 -15 -23.5 -18.5t-40.5 -3.5h-72q-22 0 -25 11t10 23l100 99q20 20 32 24.5t43 4.5h27zM478 520q22 0 30 -8.5t8 -29.5v-481q0 -106 -58 -168.5
t-182 -62.5q-160 0 -223 99q-24 36 19 58l84 41q24 9 33.5 6t21.5 -19q24 -33 63 -33q56 0 56 58v39q-27 -4 -68 -4q-113 0 -169 56t-56 160v251q0 21 8 29.5t30 8.5h110q22 0 30 -8.5t8 -29.5v-244q0 -55 60 -55q28 0 47 4v295q0 21 8.5 29.5t29.5 8.5h110z" />
    <glyph glyph-name="Ydieresis" unicode="&#x178;" horiz-adv-x="675" 
d="M237 914q41 0 57 -15.5t16 -55.5v-13q0 -40 -16 -55.5t-57 -15.5h-8q-42 0 -57 15.5t-15 55.5v13q0 41 15 56t57 15h8zM452 914q41 0 56.5 -15t15.5 -56v-13q0 -40 -15.5 -55.5t-56.5 -15.5h-7q-42 0 -58 15.5t-16 55.5v13q0 40 16 55.5t58 15.5h7zM646 710
q22 0 27 -12.5t-6 -29.5l-231 -393v-233q0 -23 -9 -32.5t-33 -9.5h-113q-24 0 -33.5 9.5t-9.5 32.5v233l-230 393q-11 17 -6 29.5t27 12.5h120q40 0 54.5 -6t28.5 -31l107 -204l110 204q14 25 28.5 31t53.5 6h115z" />
    <glyph glyph-name="Zacute" unicode="&#x179;" horiz-adv-x="611" 
d="M321 914q42 24 66 -3l51 -58q26 -29 -5 -40l-182 -56q-17 -6 -27.5 -5.5t-18.5 10.5l-27 33q-21 25 2 38zM537 710q24 0 33 -9.5t9 -32.5v-60q0 -25 -13 -44l-277 -389h253q24 0 33 -9t9 -33v-91q0 -23 -9 -32.5t-33 -9.5h-474q-23 0 -32.5 9.5t-9.5 32.5v61q0 23 14 42
l277 390h-244q-23 0 -32.5 9.5t-9.5 33.5v90q0 23 9.5 32.5t32.5 9.5h464z" />
    <glyph glyph-name="zacute" unicode="&#x17a;" horiz-adv-x="493" 
d="M255 734q41 25 66 -2l53 -56q26 -29 -5 -40l-180 -60q-35 -12 -46 3l-29 33q-21 25 2 38zM430 158q22 0 30 -8t8 -29v-83q0 -21 -8 -29.5t-30 -8.5h-366q-22 0 -30.5 8.5t-8.5 29.5v78q0 24 15 40l185 206h-156q-22 0 -30 8t-8 29v83q0 21 8 29.5t30 8.5h356
q21 0 29.5 -8.5t8.5 -29.5v-78q0 -23 -20 -46l-190 -200h177z" />
    <glyph glyph-name="Zdotaccent" unicode="&#x17b;" horiz-adv-x="611" 
d="M314 915q44 0 59.5 -15.5t15.5 -59.5v-8q0 -44 -15.5 -59.5t-59.5 -15.5h-6q-44 0 -59.5 15.5t-15.5 59.5v8q0 44 15.5 59.5t59.5 15.5h6zM537 710q24 0 33 -9.5t9 -32.5v-60q0 -25 -13 -44l-277 -389h253q24 0 33 -9t9 -33v-91q0 -23 -9 -32.5t-33 -9.5h-474
q-23 0 -32.5 9.5t-9.5 32.5v61q0 23 14 42l277 390h-244q-23 0 -32.5 9.5t-9.5 33.5v90q0 23 9.5 32.5t32.5 9.5h464z" />
    <glyph glyph-name="zdotaccent" unicode="&#x17c;" horiz-adv-x="493" 
d="M250 736q43 0 58.5 -15.5t15.5 -59.5v-8q0 -44 -15.5 -59.5t-58.5 -15.5h-6q-44 0 -59.5 16t-15.5 59v8q0 43 15.5 59t59.5 16h6zM430 158q22 0 30 -8t8 -29v-83q0 -21 -8 -29.5t-30 -8.5h-366q-22 0 -30.5 8.5t-8.5 29.5v78q0 24 15 40l185 206h-156q-22 0 -30 8t-8 29
v83q0 21 8 29.5t30 8.5h356q21 0 29.5 -8.5t8.5 -29.5v-78q0 -23 -20 -46l-190 -200h177z" />
    <glyph glyph-name="Zcaron" unicode="&#x17d;" horiz-adv-x="611" 
d="M487 920q22 0 24 -11.5t-11 -23.5l-101 -102q-20 -20 -32 -24.5t-42 -4.5h-28q-29 0 -41 4.5t-32 24.5l-101 102q-8 9 -11 16.5t2.5 13t20.5 5.5h84q30 0 42 -4t24 -18l30 -34l30 34q12 14 24.5 18t41.5 4h76zM537 710q24 0 33 -9.5t9 -32.5v-60q0 -25 -13 -44l-277 -389
h253q24 0 33 -9t9 -33v-91q0 -23 -9 -32.5t-33 -9.5h-474q-23 0 -32.5 9.5t-9.5 32.5v61q0 23 14 42l277 390h-244q-23 0 -32.5 9.5t-9.5 33.5v90q0 23 9.5 32.5t32.5 9.5h464z" />
    <glyph glyph-name="zcaron" unicode="&#x17e;" horiz-adv-x="493" 
d="M405 718q20 0 22 -10t-11 -21l-90 -92q-18 -18 -29 -22.5t-38 -4.5h-25q-26 0 -37 4.5t-29 22.5l-91 92q-8 8 -10.5 14.5t2.5 11.5t19 5h76q27 0 38 -3.5t21 -15.5l27 -31l27 31q11 12 22 15.5t37 3.5h69zM430 158q22 0 30 -8t8 -29v-83q0 -21 -8 -29.5t-30 -8.5h-366
q-22 0 -30.5 8.5t-8.5 29.5v78q0 24 15 40l185 206h-156q-22 0 -30 8t-8 29v83q0 21 8 29.5t30 8.5h356q21 0 29.5 -8.5t8.5 -29.5v-78q0 -23 -20 -46l-190 -200h177z" />
    <glyph glyph-name="longs" unicode="&#x17f;" horiz-adv-x="333" 
d="M85 523q0 112 63.5 164.5t190.5 52.5q22 0 31 -8.5t9 -30.5v-73q0 -22 -8.5 -31t-31.5 -9q-68 0 -68 -68v-482q0 -21 -8.5 -29.5t-30.5 -8.5h-108q-22 0 -30.5 8.5t-8.5 29.5v330h-32q-22 0 -30.5 8.5t-8.5 30.5v75q0 21 8.5 29.5t30.5 8.5h32v3z" />
    <glyph glyph-name="florin" unicode="&#x192;" horiz-adv-x="482" 
d="M156 504q12 113 79.5 174.5t192.5 61.5q22 0 30.5 -8.5t8.5 -30.5v-85q0 -22 -8.5 -31t-30.5 -9q-45 0 -63.5 -17.5t-23.5 -59.5l-8 -75h75q22 0 30.5 -8.5t8.5 -30.5v-87q0 -22 -8.5 -30t-30.5 -8h-91l-26 -244q-12 -113 -79.5 -174.5t-192.5 -61.5q-22 0 -30.5 8.5
t-8.5 30.5v85q0 22 8.5 31t30.5 9q44 0 63 18.5t24 58.5l24 239h-65q-22 0 -30 8t-8 30v87q0 22 8 30.5t30 8.5h82z" />
    <glyph glyph-name="Aringacute" unicode="&#x1fa;" horiz-adv-x="687" 
d="M361 982q40 18 62 -1l46 -45q24 -22 -5 -29l-169 -42q-33 -7 -44 3l-26 26q-20 19 11 32zM199 721q0 61 40.5 96t105.5 35q64 0 103.5 -36t39.5 -95q0 -47 -34 -75l229 -605q17 -41 -29 -41h-108q-38 0 -53.5 9t-21.5 33l-23 72h-216l-23 -72q-8 -24 -22.5 -33t-50.5 -9
h-105q-44 0 -27 41l230 605q-35 29 -35 75zM385 723q0 18 -11 29.5t-28 11.5q-20 0 -32 -11t-12 -30q0 -18 12 -29.5t32 -11.5q17 0 28 11.5t11 29.5zM366 388q-9 30 -14.5 65t-6.5 55l-1 20h-10q1 -72 -19 -139l-37 -118h125z" />
    <glyph glyph-name="aringacute" unicode="&#x1fb;" horiz-adv-x="529" 
d="M271 917q39 18 62 -2l49 -41q25 -22 -4 -30l-169 -45q-31 -9 -43 3l-27 24q-8 7 -10 12t1 8.5t11 7.5zM134 671q0 53 35 83.5t92 30.5q55 0 89 -31t34 -83t-34 -82t-89 -30q-57 0 -92 30t-35 82zM294 671q0 16 -9.5 25.5t-23.5 9.5q-17 0 -27 -9.5t-10 -25.5
q0 -15 10 -24t27 -9q15 0 24 9t9 24zM40 431q54 104 222 104q126 0 179.5 -56.5t53.5 -159.5v-246q0 -27 -7.5 -39t-30.5 -21q-66 -28 -198 -28q-136 0 -187 39t-51 127q0 95 55.5 131t187.5 36q9 0 24.5 -0.5t20.5 -0.5v25q0 51 -56 51q-40 0 -65 -34q-11 -15 -20.5 -18
t-34.5 5l-72 30q-21 9 -26 21t5 34zM309 191q-13 1 -53 1q-53 0 -53 -40q0 -19 11 -29.5t40 -10.5q35 0 50 3q5 0 5 5v71z" />
    <glyph glyph-name="AEacute" unicode="&#x1fc;" horiz-adv-x="905" 
d="M652 914q42 24 66 -3l51 -58q9 -10 12 -17t-1.5 -13t-16.5 -10l-181 -56q-18 -6 -28.5 -5.5t-17.5 10.5l-28 33q-20 25 3 38zM838 175q24 0 33 -9t9 -33v-91q0 -23 -9 -32.5t-33 -9.5h-345q-24 0 -33.5 9.5t-9.5 32.5v63h-200l-43 -68q-13 -22 -27 -29.5t-51 -7.5h-103
q-23 0 -30.5 11t3.5 30l414 634q13 21 22.5 28t29.5 7h365q24 0 33 -9.5t9 -32.5v-90q0 -24 -9 -33.5t-33 -9.5h-196v-89h143q23 0 32.5 -9.5t9.5 -32.5v-90q0 -24 -9.5 -33.5t-32.5 -9.5h-143v-96h204zM450 419l-103 -163h103v163z" />
    <glyph glyph-name="aeacute" unicode="&#x1fd;" horiz-adv-x="781" 
d="M389 734q41 25 66 -2l53 -56q26 -29 -5 -40l-180 -60q-35 -12 -46 3l-29 33q-21 25 2 38zM41 431q54 104 210 104q80 0 132 -38q56 38 135 38q122 0 181.5 -61t59.5 -158v-55q0 -52 -55 -52h-242v-24q0 -60 57 -60q43 0 70 38q11 16 21.5 19t35.5 -8l67 -33
q41 -19 19 -58q-55 -98 -215 -98q-65 0 -116 27q-64 -27 -153 -27q-92 0 -142 19t-67 53t-17 94q0 96 50.5 131.5t179.5 35.5q8 0 21.5 -0.5t17.5 -0.5v31q0 23 -10.5 34t-37.5 11q-33 0 -56 -36q-9 -15 -17.5 -17.5t-32.5 6.5l-75 30q-21 9 -26 21t5 34zM572 343
q0 31 -12.5 45.5t-41.5 14.5q-55 0 -55 -60v-13h109v13zM292 191q-11 1 -45 1q-25 0 -34 -10t-9 -30q0 -21 8 -30.5t33 -9.5l47 4v33v42z" />
    <glyph glyph-name="Oslashacute" unicode="&#x1fe;" horiz-adv-x="682" 
d="M352 924q41 23 66 -3l51 -58q9 -10 11.5 -17t-1.5 -13t-16 -10l-181 -56q-17 -6 -28 -5.5t-19 10.5l-27 33q-12 14 -11.5 22t14.5 16zM654 753q20 0 9 -18l-72 -109q57 -69 57 -181v-180q0 -131 -80 -205t-227 -75q-90 0 -153 27l-25 -38q-8 -11 -13 -13.5t-22 -2.5h-94
q-9 0 -11.5 6t3.5 13l67 103q-60 72 -60 185v180q0 131 80.5 205.5t227.5 74.5q90 0 156 -29l27 41q7 11 13 13.5t21 2.5h96zM400 538q-24 12 -59 12q-53 0 -81.5 -24.5t-28.5 -71.5v-146q0 -8 2 -26zM285 170q27 -10 56 -10q52 0 80.5 24.5t28.5 71.5v142q0 17 -1 24z" />
    <glyph glyph-name="oslashacute" unicode="&#x1ff;" horiz-adv-x="552" 
d="M284 734q41 25 66 -2l53 -56q9 -11 11.5 -17.5t-1 -12.5t-15.5 -10l-180 -60q-35 -12 -47 3l-28 33q-12 14 -11.5 22.5t13.5 15.5zM494 552q19 0 8 -18l-38 -60q60 -57 60 -158v-112q0 -104 -63.5 -161.5t-184.5 -57.5q-60 0 -110 16l-15 -22q-9 -14 -32 -14h-57
q-20 0 -9 18l39 60q-64 57 -64 161v112q0 103 64 161t184 58q66 0 115 -18l13 21q9 14 32 14h58zM317 387q-15 12 -41 12q-62 0 -62 -54v-104v-16zM236 132q14 -10 40 -10q63 0 63 53v102q0 3 -0.5 8t-0.5 8z" />
    <glyph glyph-name="Scommaaccent" unicode="&#x218;" horiz-adv-x="647" 
d="M28 501q0 101 78.5 162.5t218.5 61.5q110 0 177 -34t102 -106q19 -39 -24 -56l-100 -43q-20 -9 -31 -5t-23 26q-26 52 -101 52q-95 0 -95 -52q0 -29 32 -41t99 -20q44 -6 73 -12t69.5 -22.5t64.5 -39.5t41.5 -64t17.5 -95q0 -107 -86.5 -167.5t-223.5 -60.5
q-234 0 -291 155q-8 23 -1.5 35t28.5 20l94 34q22 8 35 3.5t24 -25.5q27 -53 113 -53q107 0 107 57q0 27 -29 39t-88 20q-28 4 -41 6t-41 7.5t-43.5 10.5t-39.5 15t-38 21t-31 28t-25.5 37.5t-15 47t-6.5 58.5zM371 -227q-11 -33 -46 -33h-63q-17 0 -23 7t-4 23l16 140
q3 23 12.5 32.5t31.5 9.5h90q50 0 34 -42z" />
    <glyph glyph-name="scommaaccent" unicode="&#x219;" horiz-adv-x="518" 
d="M26 364q0 79 57 125t166 46q172 0 231 -107q20 -37 -21 -55l-76 -33q-12 -5 -19 -7t-14 2.5t-8.5 6.5t-10.5 12q-23 28 -72 28q-36 0 -49.5 -6t-13.5 -21q0 -16 16.5 -22.5t65.5 -10.5q120 -10 170.5 -45.5t50.5 -114.5q0 -82 -61 -129.5t-174 -47.5q-192 0 -238 119
q-15 37 24 52l79 28q25 7 34.5 3.5t18.5 -18.5q19 -32 75 -32q39 0 55.5 7t16.5 24q0 19 -18.5 26t-76.5 11q-102 7 -155 42t-53 117zM307 -186q-8 -21 -19 -28t-33 -7h-58q-18 0 -23 5.5t-3 23.5l10 107q2 26 12.5 35.5t36.5 9.5h85q49 0 32 -45z" />
    <glyph glyph-name="uni021A" unicode="&#x21a;" horiz-adv-x="603" 
d="M549 710q24 0 33.5 -9.5t9.5 -32.5v-90q0 -24 -9.5 -33.5t-33.5 -9.5h-148v-493q0 -23 -9.5 -32.5t-33.5 -9.5h-113q-24 0 -33 9.5t-9 32.5v493h-149q-24 0 -33 9.5t-9 33.5v90q0 23 9 32.5t33 9.5h495zM335 -227q-11 -33 -48 -33h-67q-17 0 -23.5 7t-5.5 23l18 140
q3 23 13 32.5t34 9.5h95q52 0 36 -42z" />
    <glyph glyph-name="uni021B" unicode="&#x21b;" horiz-adv-x="402" 
d="M236 640q22 0 30.5 -8.5t8.5 -29.5v-82h69q22 0 30 -8.5t8 -29.5v-75q0 -22 -8 -30.5t-30 -8.5h-69v-147q0 -40 15 -55t53 -15q23 0 31 -8.5t8 -30.5v-86q0 -22 -8 -30.5t-31 -8.5q-133 -2 -194 48t-61 173v160h-43q-22 0 -30 8.5t-8 30.5v75q0 21 8 29.5t30 8.5h43v82
q0 21 8.5 29.5t30.5 8.5h109zM261 -227q-11 -33 -45 -33h-64q-16 0 -22.5 6.5t-4.5 23.5l16 140q3 23 12.5 32.5t32.5 9.5h89q50 0 34 -42z" />
    <glyph glyph-name="dotlessj" unicode="&#x237;" horiz-adv-x="271" 
d="M189 520q22 0 31 -8.5t9 -29.5v-492q0 -113 -63.5 -166.5t-191.5 -53.5q-22 0 -30.5 8.5t-8.5 30.5v85q0 22 8.5 31t30.5 9q68 0 68 68v480q0 21 9 29.5t31 8.5h107z" />
    <glyph glyph-name="circumflex" unicode="&#x2c6;" horiz-adv-x="401" 
d="M214 740q27 0 39 -5t32 -25l102 -102q14 -12 11 -23t-26 -11h-84q-31 0 -43 3.5t-23 17.5l-29 36l-31 -35q-12 -14 -24 -18t-41 -4h-74q-23 0 -26 11t11 23l102 102q19 20 31.5 25t44.5 5h28z" />
    <glyph glyph-name="caron" unicode="&#x2c7;" horiz-adv-x="419" 
d="M384 739q22 0 24 -11t-11 -23l-101 -102q-20 -21 -32 -25.5t-42 -4.5h-28q-29 0 -41 5t-32 25l-101 102q-8 9 -11 16t2.5 12.5t20.5 5.5h84q30 0 42 -4t24 -17l30 -35l30 34q12 14 24.5 18t41.5 4h76z" />
    <glyph glyph-name="breve" unicode="&#x2d8;" horiz-adv-x="287" 
d="M315 680q-40 -106 -177 -106q-136 0 -176 106q-9 24 17 35l66 25q17 5 23.5 3t14.5 -15q17 -33 55 -33q35 0 54 33q8 12 14.5 14.5t21.5 -2.5l70 -25q27 -11 17 -35z" />
    <glyph glyph-name="dotaccent" unicode="&#x2d9;" horiz-adv-x="220" 
d="M113 736q44 0 59.5 -15.5t15.5 -59.5v-8q0 -44 -15.5 -59.5t-59.5 -15.5h-6q-43 0 -59 16t-16 59v8q0 43 16 59t59 16h6z" />
    <glyph glyph-name="ring" unicode="&#x2da;" horiz-adv-x="240" 
d="M-9 658q0 55 36 86.5t94 31.5q57 0 92.5 -32.5t35.5 -85.5t-35.5 -84t-92.5 -31q-58 0 -94 30.5t-36 84.5zM156 658q0 16 -9.5 26t-25.5 10q-17 0 -27.5 -10t-10.5 -26q0 -15 10.5 -24.5t27.5 -9.5q16 0 25.5 9t9.5 25z" />
    <glyph glyph-name="ogonek" unicode="&#x2db;" horiz-adv-x="252" 
d="M214 4q-66 -72 -59 -120q3 -18 19 -18q8 0 18 6q16 10 24 -6l20 -47q8 -20 -5 -30q-45 -35 -112 -35q-93 0 -106 67q-16 84 78 180z" />
    <glyph glyph-name="tilde" unicode="&#x2dc;" horiz-adv-x="305" 
d="M303 731q23 0 23 -23q0 -68 -24 -95.5t-74 -27.5q-42 0 -82 20.5t-51 20.5q-14 0 -14 -22q0 -19 -20 -19h-61q-23 0 -23 23q0 67 24.5 95t71.5 28q43 0 84 -21t51 -21q15 0 15 22q0 20 19 20h61z" />
    <glyph glyph-name="hungarumlaut" unicode="&#x2dd;" horiz-adv-x="395" 
d="M87 713q24 34 65 26l67 -14q20 -5 23 -17.5t-12 -25.5l-113 -95q-16 -12 -23.5 -15.5t-20.5 0.5l-44 8q-35 7 -13 38zM285 713q27 34 66 24l70 -18q20 -6 23 -18.5t-13 -24.5l-121 -91q-15 -12 -23.5 -15.5t-21.5 0.5l-44 9q-18 4 -20 15t9 24z" />
    <glyph glyph-name="uni0326" unicode="&#x326;" horiz-adv-x="0" 
d="M183 -227q-11 -33 -45 -33h-64q-16 0 -22.5 6.5t-4.5 23.5l16 140q3 23 12.5 32.5t32.5 9.5h89q50 0 34 -42z" />
    <glyph glyph-name="pi" unicode="&#x3c0;" horiz-adv-x="679" 
d="M620 520q22 0 30 -8t8 -30v-85q0 -22 -8 -30.5t-30 -8.5h-21v-181q0 -48 16 -81q18 -40 -22 -56l-98 -40q-21 -9 -32.5 -5.5t-21.5 24.5q-28 64 -28 147v192h-100v-320q0 -21 -8 -29.5t-30 -8.5h-110q-21 0 -29.5 8.5t-8.5 29.5v320q-16 -1 -42 -12q-19 -8 -30.5 -5
t-19.5 22l-35 78q-9 19 -5 30t23 20q69 29 155 29h447z" />
    <glyph glyph-name="uni0401" unicode="&#x401;" horiz-adv-x="588" 
d="M195 906q41 0 57 -15.5t16 -55.5v-13q0 -40 -16 -56t-57 -16h-8q-41 0 -56.5 16t-15.5 56v13q0 41 15.5 56t56.5 15h8zM410 906q41 0 56.5 -15t15.5 -56v-13q0 -40 -15.5 -56t-56.5 -16h-7q-42 0 -58 16t-16 56v13q0 40 16 55.5t58 15.5h7zM512 710q24 0 33.5 -9.5
t9.5 -32.5v-90q0 -24 -9.5 -33.5t-33.5 -9.5h-264v-89h211q24 0 33.5 -9.5t9.5 -32.5v-90q0 -24 -9.5 -33.5t-33.5 -9.5h-211v-96h273q23 0 32.5 -9t9.5 -33v-91q0 -23 -9.5 -32.5t-32.5 -9.5h-428q-24 0 -33.5 9.5t-9.5 32.5v626q0 23 9.5 32.5t33.5 9.5h419z" />
    <glyph glyph-name="uni0410" unicode="&#x410;" horiz-adv-x="688" 
d="M684 41q15 -41 -29 -41h-108q-38 0 -53.5 9t-21.5 33l-23 72h-216l-23 -72q-8 -24 -22.5 -33t-50.5 -9h-105q-42 0 -27 41l230 634q7 21 18 28t34 7h114q22 0 33.5 -7t18.5 -26zM367 388q-9 30 -14.5 65t-6.5 55l-1 20h-10q1 -72 -19 -139l-37 -118h125z" />
    <glyph glyph-name="uni0411" unicode="&#x411;" horiz-adv-x="641" 
d="M534 711q23 0 32.5 -9.5t9.5 -33.5v-78q0 -24 -9.5 -33t-32.5 -9h-286v-89h143q106 0 169.5 -61.5t63.5 -168.5q0 -105 -63.5 -167t-169.5 -62h-299q-23 0 -32.5 9t-9.5 31v628q0 24 9.5 33.5t33.5 9.5h441zM422 230q0 66 -73 66h-101v-133h101q73 0 73 67z" />
    <glyph glyph-name="uni0412" unicode="&#x412;" horiz-adv-x="658" 
d="M386 711q104 0 162.5 -49.5t58.5 -140.5q0 -98 -72 -147v-4q101 -44 101 -172q0 -94 -68.5 -146t-177.5 -52h-297q-24 0 -33.5 9.5t-9.5 32.5v626q0 24 9.5 33.5t33.5 9.5h293zM406 494q0 56 -61 56h-97v-110h97q61 0 61 54zM428 221q0 58 -64 58h-116v-117h116
q64 0 64 59z" />
    <glyph glyph-name="uni0413" unicode="&#x413;" horiz-adv-x="531" 
d="M477 710q24 0 33.5 -9.5t9.5 -32.5v-90q0 -24 -9.5 -33.5t-33.5 -9.5h-229v-493q0 -23 -9 -32.5t-33 -9.5h-113q-24 0 -33.5 9.5t-9.5 32.5v626q0 23 9.5 32.5t33.5 9.5h384z" />
    <glyph glyph-name="uni0414" unicode="&#x414;" horiz-adv-x="789" 
d="M640 710q24 0 33.5 -9.5t9.5 -32.5v-493h48q24 0 33 -9t9 -32v-245q0 -23 -9 -32.5t-33 -9.5h-110q-24 0 -33.5 9.5t-9.5 32.5v111h-366v-111q0 -23 -9.5 -32.5t-32.5 -9.5h-111q-23 0 -32.5 9.5t-9.5 32.5v245q0 23 9.5 32t32.5 9h22q41 35 60.5 93.5t19.5 171.5v228
q0 23 9.5 32.5t33.5 9.5h436zM355 535v-94q0 -167 -47 -266h177v360h-130z" />
    <glyph glyph-name="uni0415" unicode="&#x415;" horiz-adv-x="588" 
d="M512 710q24 0 33.5 -9.5t9.5 -32.5v-90q0 -24 -9.5 -33.5t-33.5 -9.5h-264v-89h211q24 0 33.5 -9.5t9.5 -32.5v-90q0 -24 -9.5 -33.5t-33.5 -9.5h-211v-96h273q23 0 32.5 -9t9.5 -33v-91q0 -23 -9.5 -32.5t-32.5 -9.5h-428q-24 0 -33.5 9.5t-9.5 32.5v626q0 23 9.5 32.5
t33.5 9.5h419z" />
    <glyph glyph-name="uni0416" unicode="&#x416;" horiz-adv-x="978" 
d="M931 710q22 0 28.5 -12t-4.5 -32l-160 -300q24 -26 45 -67l126 -250q11 -20 4.5 -34.5t-30.5 -14.5h-108q-41 0 -59 8t-30 34l-82 184q-12 26 -24.5 36t-40.5 10h-8v-230q0 -23 -9.5 -32.5t-32.5 -9.5h-114q-23 0 -32.5 9.5t-9.5 32.5v230h-8q-27 0 -40 -10t-25 -36
l-82 -184q-12 -26 -30 -34t-59 -8h-108q-24 0 -30.5 14.5t4.5 34.5l126 250q21 41 45 67l-160 300q-21 44 24 44h115q40 0 54 -6.5t26 -30.5l118 -228q9 1 22 1h8v222q0 23 9.5 32.5t32.5 9.5h114q23 0 32.5 -9.5t9.5 -32.5v-222h8q14 0 22 -1l118 228q12 24 26 30.5t54 6.5
h115z" />
    <glyph glyph-name="uni0417" unicode="&#x417;" horiz-adv-x="649" 
d="M600 517q0 -102 -78 -145q58 -27 80 -68.5t22 -101.5q0 -217 -283 -217q-254 0 -320 175q-8 22 -1.5 34.5t28.5 19.5l98 35q23 8 34.5 2t19.5 -29q26 -65 125 -65q50 0 70.5 14t20.5 45t-15 45t-47 14h-95q-24 0 -33.5 9.5t-9.5 32.5v83q0 24 9.5 33.5t33.5 9.5h79
q31 0 46 13t15 42q0 55 -78 55q-93 0 -118 -65q-9 -23 -20.5 -29t-33.5 2l-99 35q-41 14 -26 54q64 175 316 175q260 0 260 -208z" />
    <glyph glyph-name="uni0418" unicode="&#x418;" horiz-adv-x="705" 
d="M612 711q24 0 33.5 -9.5t9.5 -33.5v-626q0 -23 -9.5 -32.5t-33.5 -9.5h-112q-24 0 -33.5 9.5t-9.5 33.5v170q0 24 0.5 42.5t2.5 37.5t3 29.5t5.5 31t7 29.5t9.5 37t10 41h-8q-28 -77 -44.5 -114t-49.5 -92l-138 -235q-11 -20 -41 -20h-121q-24 0 -33.5 9.5t-9.5 32.5v626
q0 23 9.5 32.5t33.5 9.5h113q24 0 33 -9.5t9 -32.5v-171q0 -81 -6.5 -124t-30.5 -123h7q54 137 96 208l136 233q13 20 42 20h120z" />
    <glyph glyph-name="uni0419" unicode="&#x419;" horiz-adv-x="705" 
d="M559 859q-46 -112 -202 -112q-154 0 -200 112q-6 15 -1.5 22.5t21.5 14.5l75 26q18 6 26.5 3.5t16.5 -16.5q21 -34 62 -34q40 0 62 34q9 14 16 16.5t24 -2.5l80 -27q17 -6 21.5 -14t-1.5 -23zM612 711q24 0 33.5 -9.5t9.5 -33.5v-626q0 -23 -9.5 -32.5t-33.5 -9.5h-112
q-24 0 -33.5 9.5t-9.5 33.5v170q0 24 0.5 42.5t2.5 37.5t3 29.5t5.5 31t7 29.5t9.5 37t10 41h-8q-28 -77 -44.5 -114t-49.5 -92l-138 -235q-11 -20 -41 -20h-121q-24 0 -33.5 9.5t-9.5 32.5v626q0 23 9.5 32.5t33.5 9.5h113q24 0 33 -9.5t9 -32.5v-171q0 -81 -6.5 -124
t-30.5 -123h7q54 137 96 208l136 233q13 20 42 20h120z" />
    <glyph glyph-name="uni041A" unicode="&#x41a;" horiz-adv-x="655" 
d="M644 49q11 -20 4.5 -34.5t-30.5 -14.5h-108q-41 0 -59 8t-30 34l-87 179q-13 27 -27 38.5t-41 11.5h-18v-229q0 -23 -9 -32.5t-33 -9.5h-113q-24 0 -33.5 9.5t-9.5 32.5v626q0 23 9.5 32.5t33.5 9.5h113q24 0 33 -9.5t9 -32.5v-222h14h8l144 227q15 24 28.5 30.5
t51.5 6.5h115q23 0 29.5 -12t-5.5 -32l-182 -290q35 -25 61 -77z" />
    <glyph glyph-name="uni041B" unicode="&#x41b;" horiz-adv-x="698" 
d="M605 710q24 0 33.5 -9.5t9.5 -32.5v-626q0 -23 -9.5 -32.5t-33.5 -9.5h-113q-24 0 -33 9.5t-9 32.5v493h-120v-94q0 -106 -15 -183.5t-45.5 -128t-65 -81.5t-83.5 -55q-21 -11 -33 -6.5t-24 26.5l-57 102q-11 21 -6.5 33.5t26.5 24.5q26 15 42.5 30.5t33 44.5t24.5 76.5
t8 115.5v228q0 23 9.5 32.5t33.5 9.5h427z" />
    <glyph glyph-name="uni041C" unicode="&#x41c;" horiz-adv-x="825" 
d="M732 711q24 0 33.5 -9t9.5 -33v-628q0 -23 -9.5 -32t-33.5 -9h-109q-24 0 -33 9t-9 32v143q0 108 44 262h-11q-8 -26 -30 -81t-37 -84l-56 -113q-9 -16 -19 -22.5t-29 -6.5h-67q-20 0 -30 6t-18 23l-59 113q-31 56 -62 165h-10q41 -164 41 -263v-142q0 -23 -9.5 -32
t-33.5 -9h-102q-24 0 -33.5 9t-9.5 32v628q0 24 9.5 33t33.5 9h94q26 0 37 -6t22 -25l165 -324l165 323q10 20 20.5 26t35.5 6h100z" />
    <glyph glyph-name="uni041D" unicode="&#x41d;" horiz-adv-x="690" 
d="M598 711q23 0 32.5 -9.5t9.5 -33.5v-626q0 -23 -9.5 -32.5t-32.5 -9.5h-114q-23 0 -32.5 9.5t-9.5 32.5v230h-194v-230q0 -23 -9 -32.5t-33 -9.5h-113q-24 0 -33.5 9.5t-9.5 32.5v626q0 24 9.5 33.5t33.5 9.5h113q24 0 33 -9.5t9 -33.5v-221h194v221q0 24 9.5 33.5
t32.5 9.5h114z" />
    <glyph glyph-name="uni041E" unicode="&#x41e;" horiz-adv-x="682" 
d="M33 445q0 131 80.5 205.5t227.5 74.5q146 0 226.5 -74.5t80.5 -205.5v-180q0 -131 -80.5 -205.5t-226.5 -74.5q-147 0 -227.5 74.5t-80.5 205.5v180zM450 454q0 47 -28.5 71.5t-80.5 24.5q-53 0 -81.5 -24.5t-28.5 -71.5v-198q0 -47 28.5 -71.5t81.5 -24.5
q52 0 80.5 24.5t28.5 71.5v198z" />
    <glyph glyph-name="uni041F" unicode="&#x41f;" horiz-adv-x="685" 
d="M593 710q23 0 32.5 -9.5t9.5 -32.5v-626q0 -23 -9.5 -32.5t-32.5 -9.5h-114q-23 0 -32.5 9.5t-9.5 32.5v493h-189v-493q0 -23 -9 -32.5t-33 -9.5h-113q-24 0 -33.5 9.5t-9.5 32.5v626q0 23 9.5 32.5t33.5 9.5h500z" />
    <glyph glyph-name="uni0420" unicode="&#x420;" horiz-adv-x="647" 
d="M369 710q118 0 188 -66t70 -184q0 -117 -69 -182t-187 -65h-123v-171q0 -23 -9 -32.5t-33 -9.5h-113q-24 0 -33.5 9.5t-9.5 32.5v626q0 23 9.5 32.5t33.5 9.5h276zM347 388q35 0 55 20t20 53t-20 53.5t-55 20.5h-99v-147h99z" />
    <glyph glyph-name="uni0421" unicode="&#x421;" horiz-adv-x="651" 
d="M33 445q0 131 80.5 205.5t227.5 74.5q226 0 292 -175q8 -22 1.5 -34.5t-28.5 -19.5l-107 -38q-23 -7 -34.5 -1.5t-19.5 28.5q-26 65 -104 65q-58 0 -84 -25.5t-26 -78.5v-182q0 -53 26 -78.5t84 -25.5q80 0 104 65q9 24 20 29.5t34 -2.5l107 -38q22 -7 28.5 -19.5
t-1.5 -34.5q-66 -175 -292 -175q-147 0 -227.5 74.5t-80.5 205.5v180z" />
    <glyph glyph-name="uni0422" unicode="&#x422;" horiz-adv-x="603" 
d="M549 710q24 0 33.5 -9.5t9.5 -32.5v-90q0 -24 -9.5 -33.5t-33.5 -9.5h-148v-493q0 -23 -9.5 -32.5t-33.5 -9.5h-113q-24 0 -33 9.5t-9 32.5v493h-149q-24 0 -33 9.5t-9 33.5v90q0 23 9 32.5t33 9.5h495z" />
    <glyph glyph-name="uni0423" unicode="&#x423;" horiz-adv-x="628" 
d="M599 710q39 0 21 -42l-264 -631q-10 -23 -23 -30t-46 -7h-127q-40 0 -21 42l75 168l-212 458q-20 42 24 42h118q38 0 52.5 -6t24.5 -31l97 -222l92 222q9 25 22 31t48 6h119z" />
    <glyph glyph-name="uni0424" unicode="&#x424;" horiz-adv-x="862" 
d="M487 735q24 0 33.5 -9.5t9.5 -32.5v-43h30q139 0 212.5 -69.5t73.5 -196.5v-54q0 -126 -74 -195.5t-212 -69.5h-30v-43q0 -24 -9.5 -33.5t-33.5 -9.5h-112q-24 0 -33.5 9.5t-9.5 33.5v43h-30q-139 0 -212.5 69.5t-73.5 195.5v54q0 127 73.5 196.5t212.5 69.5h30v43
q0 23 9.5 32.5t33.5 9.5h112zM311 480q-93 0 -93 -88v-69q0 -88 93 -88h21v245h-21zM644 392q0 88 -93 88h-21v-245h21q93 0 93 88v69z" />
    <glyph glyph-name="uni0425" unicode="&#x425;" horiz-adv-x="664" 
d="M655 42q13 -16 7.5 -29t-28.5 -13h-129q-39 0 -53.5 6t-28.5 31l-95 164l-92 -164q-15 -24 -29 -30.5t-54 -6.5h-123q-22 0 -27.5 12t6.5 30l205 320l-196 308q-11 16 -5.5 28t26.5 12h119q40 0 54.5 -6t28.5 -29l90 -154l89 154q14 24 27.5 29.5t49.5 5.5h128
q20 0 25.5 -12t-5.5 -28l-198 -308z" />
    <glyph glyph-name="uni0426" unicode="&#x426;" horiz-adv-x="732" 
d="M673 175q24 0 33.5 -9t9.5 -32v-245q0 -24 -9.5 -33.5t-33.5 -9.5h-103q-24 0 -33 9.5t-9 33.5v111h-435q-24 0 -33.5 9.5t-9.5 32.5v626q0 23 9.5 32.5t33.5 9.5h113q24 0 33 -9.5t9 -32.5v-493h186v493q0 23 9.5 32.5t33.5 9.5h113q24 0 33 -9.5t9 -32.5v-493h41z" />
    <glyph glyph-name="uni0427" unicode="&#x427;" horiz-adv-x="658" 
d="M565 710q24 0 33 -9.5t9 -32.5v-626q0 -23 -9 -32.5t-33 -9.5h-113q-24 0 -33.5 9.5t-9.5 32.5v195q-47 -7 -102 -7q-145 0 -212 69.5t-67 208.5v160q0 23 9 32.5t33 9.5h113q24 0 33.5 -9.5t9.5 -32.5v-160q0 -92 111 -92q42 0 72 7v245q0 23 9.5 32.5t33.5 9.5h113z
" />
    <glyph glyph-name="uni0428" unicode="&#x428;" horiz-adv-x="950" 
d="M858 710q23 0 32.5 -9.5t9.5 -32.5v-626q0 -23 -9.5 -32.5t-32.5 -9.5h-765q-24 0 -33.5 9.5t-9.5 32.5v626q0 23 9.5 32.5t33.5 9.5h113q24 0 33 -9.5t9 -32.5v-493h128v493q0 23 9.5 32.5t33.5 9.5h113q24 0 33 -9.5t9 -32.5v-493h128v493q0 23 9.5 32.5t32.5 9.5h114z
" />
    <glyph glyph-name="uni0429" unicode="&#x429;" horiz-adv-x="1000" 
d="M941 175q24 0 33 -9t9 -32v-246q0 -24 -9 -33t-33 -9h-103q-24 0 -33.5 9t-9.5 33v112h-702q-24 0 -33.5 9.5t-9.5 32.5v626q0 23 9.5 32.5t33.5 9.5h113q24 0 33 -9.5t9 -32.5v-493h128v493q0 23 9.5 32.5t33.5 9.5h113q24 0 33 -9.5t9 -32.5v-493h128v493
q0 23 9.5 32.5t32.5 9.5h114q23 0 32.5 -9.5t9.5 -32.5v-493h41z" />
    <glyph glyph-name="uni042A" unicode="&#x42a;" horiz-adv-x="781" 
d="M505 497q118 0 187 -65t69 -182q0 -118 -69.5 -184t-187.5 -66h-277q-24 0 -33 9.5t-9 32.5v493h-131q-23 0 -32.5 9t-9.5 33v91q0 23 9.5 32.5t32.5 9.5h286q24 0 33.5 -9.5t9.5 -32.5v-171h122zM481 175q35 0 55 20t20 54q0 33 -20 53t-55 20h-98v-147h98z" />
    <glyph glyph-name="uni042B" unicode="&#x42b;" horiz-adv-x="939" 
d="M93 0q-24 0 -33.5 9.5t-9.5 32.5v626q0 23 9.5 32.5t33.5 9.5h113q24 0 33 -9.5t9 -32.5v-171h123q118 0 187 -65t69 -182q0 -118 -70 -184t-188 -66h-276zM690 670q0 22 9 31t31 9h118q22 0 31 -9t9 -31v-630q0 -22 -9 -31t-31 -9h-118q-22 0 -31 9t-9 31v630zM248 322
v-147h99q35 0 55 20.5t20 53.5t-20 53t-55 20h-99z" />
    <glyph glyph-name="uni042C" unicode="&#x42c;" horiz-adv-x="647" 
d="M93 0q-24 0 -33.5 9.5t-9.5 32.5v626q0 23 9.5 32.5t33.5 9.5h113q24 0 33 -9.5t9 -32.5v-171h123q118 0 187 -65t69 -182q0 -118 -70 -184t-188 -66h-276zM248 322v-147h99q35 0 55 20.5t20 53.5t-20 53t-55 20h-99z" />
    <glyph glyph-name="uni042D" unicode="&#x42d;" horiz-adv-x="655" 
d="M22 550q66 175 292 175q147 0 227.5 -74.5t80.5 -205.5v-180q0 -131 -80.5 -205.5t-227.5 -74.5q-226 0 -292 175q-8 22 -1.5 34.5t28.5 19.5l98 35q23 8 34.5 2t19.5 -29q26 -65 113 -65q110 0 110 96v21h-167q-24 0 -33 9.5t-9 33.5v84q0 24 9 33.5t33 9.5h167v17
q0 92 -110 92q-87 0 -113 -65q-8 -23 -19.5 -29t-34.5 2l-98 35q-22 7 -28.5 19.5t1.5 34.5z" />
    <glyph glyph-name="uni042E" unicode="&#x42e;" horiz-adv-x="969" 
d="M338 467q0 121 79 189.5t218 68.5q144 0 222 -74.5t78 -205.5v-180q0 -131 -78 -205.5t-222 -74.5q-139 0 -218.5 71t-79.5 194v22h-89v-230q0 -23 -9 -32.5t-33 -9.5h-113q-24 0 -33.5 9.5t-9.5 32.5v626q0 23 9.5 32.5t33.5 9.5h113q24 0 33 -9.5t9 -32.5v-221h90v20z
M737 455q0 95 -102 95q-48 0 -74 -24.5t-26 -70.5v-200q0 -46 26 -70.5t74 -24.5q102 0 102 95v200z" />
    <glyph glyph-name="uni042F" unicode="&#x42f;" horiz-adv-x="660" 
d="M34 469q0 115 66.5 178t181.5 63h286q23 0 32.5 -9.5t9.5 -32.5v-626q0 -23 -9.5 -32.5t-32.5 -9.5h-114q-23 0 -32.5 9.5t-9.5 32.5v194h-27q-34 0 -49.5 -11t-27.5 -40l-59 -143q-11 -26 -29 -34t-59 -8h-109q-49 0 -26 49l82 171q14 26 28 46q-102 60 -102 203z
M305 535q-32 0 -49 -17.5t-17 -47.5q0 -64 66 -64h107v129h-107z" />
    <glyph glyph-name="uni0430" unicode="&#x430;" horiz-adv-x="529" 
d="M40 431q54 104 222 104q126 0 179.5 -56.5t53.5 -159.5v-246q0 -27 -7.5 -39t-30.5 -21q-66 -28 -198 -28q-136 0 -187 39t-51 127q0 95 55.5 131t187.5 36q9 0 24.5 -0.5t20.5 -0.5v25q0 51 -56 51q-40 0 -65 -34q-11 -15 -20.5 -18t-34.5 5l-72 30q-21 9 -26 21t5 34z
M309 191q-13 1 -53 1q-53 0 -53 -40q0 -19 11 -29.5t40 -10.5q35 0 50 3q5 0 5 5v71z" />
    <glyph glyph-name="uni0431" unicode="&#x431;" horiz-adv-x="560" 
d="M361 729q44 0 72 12q23 10 34.5 4t19.5 -30l26 -73q6 -23 1 -33.5t-25 -21.5q-33 -16 -116 -16h-41q-59 0 -86.5 -20t-27.5 -65v-9q37 28 93 28q101 0 161.5 -59t60.5 -160v-82q0 -104 -64 -161.5t-185 -57.5q-120 0 -184 58t-64 161v193q0 178 66.5 255t226.5 77h32z
M347 291q0 54 -63 54q-62 0 -62 -54v-92q0 -53 62 -53q63 0 63 53v92z" />
    <glyph glyph-name="uni0432" unicode="&#x432;" horiz-adv-x="541" 
d="M499 372q0 -64 -41 -100q62 -40 62 -122q0 -70 -46.5 -110t-126.5 -40h-267q-22 0 -30.5 8.5t-8.5 29.5v444q0 21 8.5 29.5t30.5 8.5h252q79 0 123 -39.5t44 -108.5zM281 324q38 0 38 36t-38 36h-58v-72h58zM289 123q21 0 32 11.5t11 30.5q0 39 -43 39h-66v-81h66z" />
    <glyph glyph-name="uni0433" unicode="&#x433;" horiz-adv-x="438" 
d="M389 520q21 0 29.5 -8.5t8.5 -29.5v-87q0 -22 -8.5 -30.5t-29.5 -8.5h-162v-318q0 -21 -8 -29.5t-30 -8.5h-110q-21 0 -29.5 8.5t-8.5 29.5v444q0 21 8.5 29.5t29.5 8.5h310z" />
    <glyph glyph-name="uni0434" unicode="&#x434;" horiz-adv-x="648" 
d="M595 152q22 0 30 -8.5t8 -30.5v-214q0 -21 -8 -29.5t-30 -8.5h-104q-22 0 -31 8.5t-9 29.5v90h-249v-90q0 -21 -8.5 -29.5t-30.5 -8.5h-105q-22 0 -30 8.5t-8 29.5v214q0 22 8 30.5t30 8.5h15q46 44 46 162v168q0 21 8 29.5t29 8.5h366q22 0 30.5 -8.5t8.5 -29.5v-330h34
zM294 314q0 -98 -24 -162h104v204h-80v-42z" />
    <glyph glyph-name="uni0435" unicode="&#x435;" horiz-adv-x="549" 
d="M27 304q0 112 64 171.5t186 59.5q124 0 187.5 -61.5t63.5 -157.5v-55q0 -52 -55 -52h-260v-19q0 -65 65 -65q51 0 80 37q10 15 20.5 17.5t35.5 -7.5l69 -30q40 -19 19 -58q-57 -99 -226 -99q-128 0 -188.5 63t-60.5 168v88zM341 343q0 60 -64 60t-64 -60v-13h128v13z" />
    <glyph glyph-name="uni0436" unicode="&#x436;" horiz-adv-x="792" 
d="M450 520q22 0 30.5 -8.5t8.5 -30.5v-141h10h5l66 144q10 22 24.5 29t47.5 7h89q56 0 31 -49l-98 -202q13 -14 24 -37l82 -181q13 -26 6 -38.5t-37 -12.5h-92q-35 0 -50 7.5t-23 30.5l-39 120q-10 26 -37 29q-3 1 -9 1v-149q0 -22 -8.5 -30.5t-30.5 -8.5h-108
q-22 0 -30.5 8.5t-8.5 30.5v149q-6 0 -8 -1q-28 -1 -38 -29l-39 -120q-8 -23 -23 -30.5t-50 -7.5h-92q-31 0 -37.5 12.5t6.5 38.5l82 181q12 23 24 37l-99 202q-23 49 32 49h89q33 0 48 -7t24 -29l66 -144h6h9v141q0 22 8.5 30.5t30.5 8.5h108z" />
    <glyph glyph-name="uni0437" unicode="&#x437;" horiz-adv-x="524" 
d="M25 397q22 62 82.5 100t159.5 38q221 0 221 -161q0 -79 -54 -103v-6q66 -31 66 -120q0 -75 -51 -117.5t-175 -42.5q-201 0 -258 138q-18 43 27 55l73 22q25 7 34.5 2t16.5 -23q22 -50 93 -50q36 0 49 9t13 28q0 31 -40 31h-65q-19 0 -26.5 7.5t-7.5 26.5v61
q0 19 7.5 26.5t26.5 7.5h62q39 0 39 30q0 18 -10.5 26.5t-39.5 8.5q-74 0 -95 -49q-8 -19 -15.5 -23.5t-32.5 0.5l-73 23q-42 14 -27 55z" />
    <glyph glyph-name="uni0438" unicode="&#x438;" horiz-adv-x="564" 
d="M189 520q22 0 30.5 -8.5t8.5 -29.5v-81q0 -63 -27 -171h6q18 49 51 122l77 142q11 26 40 26h110q21 0 29.5 -8.5t8.5 -29.5v-444q0 -21 -8.5 -29.5t-29.5 -8.5h-110q-22 0 -30 8.5t-8 29.5v81q0 65 27 171h-6q-23 -63 -55 -132l-73 -132q-12 -26 -41 -26h-109
q-22 0 -30.5 8.5t-8.5 29.5v444q0 21 8.5 29.5t30.5 8.5h109z" />
    <glyph glyph-name="uni0439" unicode="&#x439;" horiz-adv-x="564" 
d="M467 680q-41 -106 -178 -106q-135 0 -176 106q-5 15 -1.5 22.5t18.5 12.5l66 25q17 6 24 3.5t15 -15.5q18 -33 54 -33q35 0 55 33q8 13 14 15.5t21 -2.5l70 -26q27 -9 18 -35zM189 520q22 0 30.5 -8.5t8.5 -29.5v-81q0 -63 -27 -171h6q18 49 51 122l77 142q11 26 40 26
h110q21 0 29.5 -8.5t8.5 -29.5v-444q0 -21 -8.5 -29.5t-29.5 -8.5h-110q-22 0 -30 8.5t-8 29.5v81q0 65 27 171h-6q-23 -63 -55 -132l-73 -132q-12 -26 -41 -26h-109q-22 0 -30.5 8.5t-8.5 29.5v444q0 21 8.5 29.5t30.5 8.5h109z" />
    <glyph glyph-name="uni043A" unicode="&#x43a;" horiz-adv-x="552" 
d="M533 51q13 -26 6 -38.5t-38 -12.5h-92q-35 0 -49 7t-23 31l-46 120q-12 30 -43 30h-21v-149q0 -22 -8 -30.5t-30 -8.5h-109q-22 0 -30.5 8.5t-8.5 30.5v442q0 22 8.5 30.5t30.5 8.5h109q22 0 30 -8.5t8 -30.5v-141h15h7l83 144q12 22 26 29t46 7h89q60 0 32 -49
l-113 -194q16 -14 32 -45z" />
    <glyph glyph-name="uni043B" unicode="&#x43b;" horiz-adv-x="563" 
d="M483 520q22 0 30.5 -8.5t8.5 -29.5v-444q0 -21 -8.5 -29.5t-30.5 -8.5h-109q-22 0 -30.5 8.5t-8.5 29.5v318h-72v-36q0 -70 -10 -124.5t-24 -87t-38 -58t-42 -37t-46 -24.5q-30 -13 -48 20l-52 92q-15 26 15 44q24 14 36.5 28t24.5 59.5t12 120.5v129q0 21 8.5 29.5
t29.5 8.5h354z" />
    <glyph glyph-name="uni043C" unicode="&#x43c;" horiz-adv-x="663" 
d="M580 520q25 0 33.5 -9t8.5 -32v-441q0 -22 -8.5 -30t-30.5 -8h-89q-22 0 -31 8.5t-9 30.5v78q0 73 32 182h-7q-20 -62 -39 -98l-39 -73q-8 -17 -18 -23t-30 -6h-46q-20 0 -29.5 6t-18.5 24l-38 72q-17 31 -37 98h-7q31 -123 31 -183v-77q0 -21 -9.5 -30t-30.5 -9h-88
q-23 0 -31 7.5t-8 30.5v441q0 23 9 32t34 9h86q23 0 34 -6.5t21 -24.5l106 -199l105 198q10 18 20.5 25t32.5 7h91z" />
    <glyph glyph-name="uni043D" unicode="&#x43d;" horiz-adv-x="558" 
d="M479 520q22 0 30 -8.5t8 -29.5v-444q0 -21 -8 -29.5t-30 -8.5h-110q-21 0 -29.5 8.5t-8.5 29.5v144h-104v-144q0 -21 -8 -29.5t-30 -8.5h-110q-22 0 -30 8.5t-8 29.5v444q0 21 8 29.5t30 8.5h110q22 0 30 -8.5t8 -29.5v-136h104v136q0 21 8.5 29.5t29.5 8.5h110z" />
    <glyph glyph-name="uni043E" unicode="&#x43e;" horiz-adv-x="552" 
d="M28 316q0 103 64 161t184 58q121 0 184.5 -57.5t63.5 -161.5v-112q0 -104 -63.5 -161.5t-184.5 -57.5q-120 0 -184 58t-64 161v112zM339 321q0 54 -63 54q-62 0 -62 -54v-122q0 -53 62 -53q63 0 63 53v122z" />
    <glyph glyph-name="uni043F" unicode="&#x43f;" horiz-adv-x="554" 
d="M475 520q21 0 29.5 -8.5t8.5 -29.5v-444q0 -21 -8.5 -29.5t-29.5 -8.5h-110q-21 0 -29.5 8.5t-8.5 29.5v318h-100v-318q0 -21 -8 -29.5t-30 -8.5h-110q-21 0 -29.5 8.5t-8.5 29.5v444q0 21 8.5 29.5t29.5 8.5h396z" />
    <glyph glyph-name="uni0440" unicode="&#x440;" horiz-adv-x="548" 
d="M82 501q86 34 209 34q115 0 172 -56t57 -160v-108q0 -111 -59 -168.5t-174 -57.5q-13 0 -60 5v-171q0 -22 -8.5 -30t-30.5 -8h-109q-22 0 -30.5 8t-8.5 30v624q0 25 8 36t34 22zM334 324q0 49 -57 49q-29 0 -46 -5q-4 -1 -4 -6v-211q23 -5 45 -5q62 0 62 55v123z" />
    <glyph glyph-name="uni0441" unicode="&#x441;" horiz-adv-x="522" 
d="M28 315q0 104 61.5 162t186.5 58q89 0 146 -38.5t79 -100.5q7 -23 1 -34.5t-28 -19.5l-93 -31q-23 -7 -34.5 -1.5t-20.5 28.5q-16 41 -59 41q-53 0 -53 -54v-130q0 -54 53 -54q43 0 59 41q9 22 20.5 27.5t34.5 -2.5l96 -29q43 -13 26 -55q-57 -138 -238 -138
q-120 0 -178.5 57.5t-58.5 163.5v109z" />
    <glyph glyph-name="uni0442" unicode="&#x442;" horiz-adv-x="496" 
d="M446 520q22 0 30 -8.5t8 -29.5v-87q0 -22 -8 -30.5t-30 -8.5h-105v-318q0 -21 -8 -29.5t-30 -8.5h-110q-22 0 -30 8.5t-8 29.5v318h-105q-22 0 -30 8.5t-8 30.5v87q0 21 8 29.5t30 8.5h396z" />
    <glyph glyph-name="uni0443" unicode="&#x443;" horiz-adv-x="558" 
d="M478 520q22 0 30 -8.5t8 -29.5v-481q0 -106 -58 -168.5t-182 -62.5q-160 0 -223 99q-24 36 19 58l84 41q24 9 33.5 6t21.5 -19q24 -33 63 -33q56 0 56 58v39q-27 -4 -68 -4q-113 0 -169 56t-56 160v251q0 21 8 29.5t30 8.5h110q22 0 30 -8.5t8 -29.5v-244q0 -55 60 -55
q28 0 47 4v295q0 21 8.5 29.5t29.5 8.5h110z" />
    <glyph glyph-name="uni0444" unicode="&#x444;" horiz-adv-x="761" 
d="M474 534q8 1 25 1q235 0 235 -239v-73q0 -238 -235 -238q-17 0 -25 1v-168q0 -21 -8.5 -29.5t-30.5 -8.5h-109q-22 0 -30.5 8.5t-8.5 29.5v168q-8 -1 -25 -1q-235 0 -235 238v73q0 239 235 239q17 0 25 -1v167q0 22 8.5 30.5t30.5 8.5h109q22 0 30.5 -8.5t8.5 -30.5v-167
zM213 213q0 -67 57 -67q4 0 11.5 0.5t10.5 0.5v225q-7 1 -22 1q-57 0 -57 -66v-94zM549 307q0 66 -58 66q-15 0 -22 -1v-225q3 0 10.5 -0.5t11.5 -0.5q58 0 58 67v94z" />
    <glyph glyph-name="uni0445" unicode="&#x445;" horiz-adv-x="553" 
d="M503 520q57 0 26 -45l-137 -207l146 -223q16 -23 10 -34t-38 -11h-100q-34 0 -46 5.5t-24 27.5l-64 114l-62 -114q-11 -22 -24 -27.5t-45 -5.5h-100q-33 0 -39 11t10 34l147 222l-140 208q-31 45 30 45h98q32 0 45.5 -6t25.5 -27l56 -97l56 97q12 22 23.5 27.5t42.5 5.5
h103z" />
    <glyph glyph-name="uni0446" unicode="&#x446;" horiz-adv-x="596" 
d="M541 164q22 0 30.5 -9t8.5 -31v-225q0 -21 -8.5 -29.5t-30.5 -8.5h-104q-22 0 -30.5 8.5t-8.5 29.5v101h-318q-22 0 -30.5 8.5t-8.5 29.5v444q0 21 8.5 29.5t30.5 8.5h109q22 0 30.5 -8.5t8.5 -29.5v-318h95v318q0 21 8 29.5t30 8.5h110q21 0 29.5 -8.5t8.5 -29.5v-318
h32z" />
    <glyph glyph-name="uni0447" unicode="&#x447;" horiz-adv-x="531" 
d="M23 482q0 21 8.5 29.5t30.5 8.5h109q22 0 30.5 -8.5t8.5 -29.5v-125q0 -48 50 -48q13 0 23.5 1.5t14.5 3.5l5 2v166q0 21 8.5 29.5t30.5 8.5h109q22 0 30.5 -8.5t8.5 -29.5v-444q0 -21 -8.5 -29.5t-30.5 -8.5h-109q-22 0 -30.5 8.5t-8.5 29.5v112q-33 -5 -81 -5
q-199 0 -199 196v141z" />
    <glyph glyph-name="uni0448" unicode="&#x448;" horiz-adv-x="788" 
d="M709 520q21 0 29.5 -8.5t8.5 -29.5v-444q0 -21 -8.5 -29.5t-29.5 -8.5h-630q-21 0 -29.5 8.5t-8.5 29.5v444q0 21 8.5 29.5t29.5 8.5h110q22 0 30 -8.5t8 -29.5v-318h74v318q0 21 8.5 29.5t29.5 8.5h110q22 0 30 -8.5t8 -29.5v-318h74v318q0 21 8.5 29.5t29.5 8.5h110z
" />
    <glyph glyph-name="uni0449" unicode="&#x449;" horiz-adv-x="834" 
d="M779 164q22 0 30.5 -9t8.5 -31v-225q0 -21 -8.5 -29.5t-30.5 -8.5h-104q-21 0 -30 8.5t-9 29.5v101h-557q-21 0 -29.5 8.5t-8.5 29.5v444q0 21 8.5 29.5t29.5 8.5h110q22 0 30 -8.5t8 -29.5v-318h74v318q0 21 8.5 29.5t29.5 8.5h110q22 0 30 -8.5t8 -29.5v-318h74v318
q0 21 8.5 29.5t29.5 8.5h110q21 0 29.5 -8.5t8.5 -29.5v-318h32z" />
    <glyph glyph-name="uni044A" unicode="&#x44a;" horiz-adv-x="627" 
d="M409 385q95 0 148 -50.5t53 -142.5q0 -93 -53 -142.5t-148 -49.5h-232q-21 0 -29.5 8.5t-8.5 29.5v324h-89q-22 0 -30 8.5t-8 30.5v81q0 21 8 29.5t30 8.5h237q21 0 29.5 -8.5t8.5 -29.5v-97h84zM377 147q47 0 47 45q0 44 -47 44h-52v-89h52z" />
    <glyph glyph-name="uni044B" unicode="&#x44b;" horiz-adv-x="763" 
d="M311 385q95 0 148.5 -50.5t53.5 -142.5q0 -93 -53 -142.5t-149 -49.5h-232q-21 0 -29.5 8.5t-8.5 29.5v444q0 21 8.5 29.5t29.5 8.5h110q22 0 30 -8.5t8 -29.5v-97h84zM683 520q22 0 30 -8.5t8 -29.5v-444q0 -21 -8 -29.5t-30 -8.5h-110q-22 0 -30 8.5t-8 29.5v444
q0 21 8 29.5t30 8.5h110zM279 147q47 0 47 45q0 44 -47 44h-52v-89h52z" />
    <glyph glyph-name="uni044C" unicode="&#x44c;" horiz-adv-x="529" 
d="M311 385q95 0 148.5 -50.5t53.5 -142.5q0 -93 -53 -142.5t-149 -49.5h-232q-21 0 -29.5 8.5t-8.5 29.5v444q0 21 8.5 29.5t29.5 8.5h110q22 0 30 -8.5t8 -29.5v-97h84zM279 147q47 0 47 45q0 44 -47 44h-52v-89h52z" />
    <glyph glyph-name="uni044D" unicode="&#x44d;" horiz-adv-x="523" 
d="M19 397q21 62 80 100t149 38q124 0 185.5 -58t61.5 -162v-109q0 -106 -58.5 -163.5t-178.5 -57.5q-180 0 -239 138q-16 41 27 56l73 22q24 6 34.5 1.5t17.5 -20.5q9 -16 15.5 -25t22.5 -18t39 -9q65 0 65 57v8l-97 1q-19 0 -26.5 7.5t-7.5 26.5v64q0 19 7.5 26.5
t26.5 7.5h97v7q0 56 -66 56q-31 0 -47 -13.5t-28 -38.5q-17 -32 -53 -20l-73 23q-41 14 -27 55z" />
    <glyph glyph-name="uni044E" unicode="&#x44e;" horiz-adv-x="789" 
d="M273 351q11 89 72 136.5t170 47.5q120 0 183 -57.5t63 -161.5v-112q0 -104 -63 -161.5t-183 -57.5q-111 0 -172.5 48.5t-69.5 140.5l-1 8h-45v-144q0 -21 -8 -29.5t-30 -8.5h-110q-22 0 -30 8.5t-8 29.5v444q0 21 8 29.5t30 8.5h110q22 0 30 -8.5t8 -29.5v-136h46v5z
M575 321q0 54 -60 54t-60 -54v-122q0 -53 60 -53t60 53v122z" />
    <glyph glyph-name="uni044F" unicode="&#x44f;" horiz-adv-x="548" 
d="M467 520q22 0 30.5 -8.5t8.5 -29.5v-444q0 -21 -8.5 -29.5t-30.5 -8.5h-109q-22 0 -30.5 8.5t-8.5 29.5v116h-42l-52 -117q-10 -23 -24.5 -30t-49.5 -7h-94q-33 0 -39.5 13t8.5 38l78 135q-73 46 -73 151q0 87 51 135t139 48h246zM257 376q-18 0 -28 -10.5t-10 -28.5
q0 -17 10 -27.5t28 -10.5h62v77h-62z" />
    <glyph glyph-name="uni0451" unicode="&#x451;" horiz-adv-x="549" 
d="M173 733q42 0 58 -15.5t16 -55.5v-13q0 -40 -16 -56t-58 -16h-7q-41 0 -56.5 16t-15.5 56v13q0 41 15 56t57 15h7zM388 733q42 0 57.5 -15t15.5 -56v-13q0 -40 -15.5 -56t-57.5 -16h-7q-41 0 -57 16t-16 56v13q0 40 16 55.5t57 15.5h7zM27 304q0 112 64 171.5t186 59.5
q124 0 187.5 -61.5t63.5 -157.5v-55q0 -52 -55 -52h-260v-19q0 -65 65 -65q51 0 80 37q10 15 20.5 17.5t35.5 -7.5l69 -30q40 -19 19 -58q-57 -99 -226 -99q-128 0 -188.5 63t-60.5 168v88zM341 343q0 60 -64 60t-64 -60v-13h128v13z" />
    <glyph glyph-name="Wgrave" unicode="&#x1e80;" horiz-adv-x="939" 
d="M403 914q23 27 66 3l141 -83q24 -13 2 -38l-27 -34q-13 -15 -46 -4l-182 56q-12 4 -15.5 9.5t-1 12.5t11.5 18zM899 710q22 0 27.5 -10t-0.5 -31l-159 -634q-5 -21 -16.5 -28t-34.5 -7h-117q-44 0 -52 33l-54 233q-17 84 -19 180h-8q-3 -93 -22 -180l-53 -231
q-6 -21 -17.5 -28t-34.5 -7h-115q-45 0 -52 33l-158 636q-6 21 -0.5 31t27.5 10h123q28 0 40 -7.5t16 -29.5l44 -262q14 -81 14 -177h7q0 92 19 177l62 262q5 23 17.5 30t38.5 7h108q25 0 38 -7.5t18 -29.5l61 -262q16 -74 19 -177h8q3 98 15 177l42 262q4 22 16.5 29.5
t40.5 7.5h111z" />
    <glyph glyph-name="wgrave" unicode="&#x1e81;" horiz-adv-x="775" 
d="M320 732q25 27 66 2l139 -84q13 -7 13 -15.5t-11 -22.5l-29 -33q-11 -15 -46 -3l-180 60q-31 11 -5 40zM729 520q27 0 34 -9t-2 -35l-118 -442q-9 -34 -52 -34h-98q-45 0 -53 34l-32 134q-6 27 -10.5 62.5t-5.5 57.5l-2 22h-7q-7 -82 -21 -142l-33 -134q-9 -34 -52 -34
h-91q-43 0 -53 34l-119 442q-9 26 -2 35t34 9h94q35 0 47.5 -7t16.5 -31l24 -133q4 -23 7 -62t4 -67l1 -27h8q5 103 16 156l30 132q4 24 16.5 31.5t47.5 7.5h64q34 0 46 -7t17 -31l31 -133q5 -24 9 -63t5 -66l2 -27h8q2 98 12 156l24 132q4 24 16 31.5t47 7.5h90z" />
    <glyph glyph-name="Wacute" unicode="&#x1e82;" horiz-adv-x="939" 
d="M486 914q42 24 66 -3l51 -58q9 -10 12 -17t-1.5 -13t-16.5 -10l-181 -56q-18 -6 -28.5 -5.5t-17.5 10.5l-28 33q-20 25 3 38zM899 710q22 0 27.5 -10t-0.5 -31l-159 -634q-5 -21 -16.5 -28t-34.5 -7h-117q-44 0 -52 33l-54 233q-17 84 -19 180h-8q-3 -93 -22 -180
l-53 -231q-6 -21 -17.5 -28t-34.5 -7h-115q-45 0 -52 33l-158 636q-6 21 -0.5 31t27.5 10h123q28 0 40 -7.5t16 -29.5l44 -262q14 -81 14 -177h7q0 92 19 177l62 262q5 23 17.5 30t38.5 7h108q25 0 38 -7.5t18 -29.5l61 -262q16 -74 19 -177h8q3 98 15 177l42 262
q4 22 16.5 29.5t40.5 7.5h111z" />
    <glyph glyph-name="wacute" unicode="&#x1e83;" horiz-adv-x="775" 
d="M399 734q41 25 66 -2l52 -56q9 -11 12 -17.5t-1 -12.5t-16 -10l-180 -60q-18 -7 -28 -6.5t-18 9.5l-29 33q-11 14 -11 22.5t13 15.5zM729 520q27 0 34 -9t-2 -35l-118 -442q-9 -34 -52 -34h-98q-45 0 -53 34l-32 134q-6 27 -10.5 62.5t-5.5 57.5l-2 22h-7
q-7 -82 -21 -142l-33 -134q-9 -34 -52 -34h-91q-43 0 -53 34l-119 442q-9 26 -2 35t34 9h94q35 0 47.5 -7t16.5 -31l24 -133q4 -23 7 -62t4 -67l1 -27h8q5 103 16 156l30 132q4 24 16.5 31.5t47.5 7.5h64q34 0 46 -7t17 -31l31 -133q5 -24 9 -63t5 -66l2 -27h8q2 98 12 156
l24 132q4 24 16 31.5t47 7.5h90z" />
    <glyph glyph-name="Wdieresis" unicode="&#x1e84;" horiz-adv-x="939" 
d="M372 914q41 0 57 -15.5t16 -55.5v-13q0 -40 -16 -55.5t-57 -15.5h-8q-41 0 -56.5 15.5t-15.5 55.5v13q0 41 15.5 56t56.5 15h8zM587 914q41 0 56.5 -15t15.5 -56v-13q0 -40 -15.5 -55.5t-56.5 -15.5h-7q-42 0 -58 15.5t-16 55.5v13q0 40 16 55.5t58 15.5h7zM899 710
q22 0 27.5 -10t-0.5 -31l-159 -634q-5 -21 -16.5 -28t-34.5 -7h-117q-44 0 -52 33l-54 233q-17 84 -19 180h-8q-3 -93 -22 -180l-53 -231q-6 -21 -17.5 -28t-34.5 -7h-115q-45 0 -52 33l-158 636q-6 21 -0.5 31t27.5 10h123q28 0 40 -7.5t16 -29.5l44 -262q14 -81 14 -177h7
q0 92 19 177l62 262q5 23 17.5 30t38.5 7h108q25 0 38 -7.5t18 -29.5l61 -262q16 -74 19 -177h8q3 98 15 177l42 262q4 22 16.5 29.5t40.5 7.5h111z" />
    <glyph glyph-name="wdieresis" unicode="&#x1e85;" horiz-adv-x="775" 
d="M286 733q42 0 58 -15.5t16 -55.5v-13q0 -40 -16 -56t-58 -16h-7q-41 0 -56.5 16t-15.5 56v13q0 41 15 56t57 15h7zM501 733q42 0 57.5 -15t15.5 -56v-13q0 -40 -15.5 -56t-57.5 -16h-7q-41 0 -57 16t-16 56v13q0 40 16 55.5t57 15.5h7zM729 520q27 0 34 -9t-2 -35
l-118 -442q-9 -34 -52 -34h-98q-45 0 -53 34l-32 134q-6 27 -10.5 62.5t-5.5 57.5l-2 22h-7q-7 -82 -21 -142l-33 -134q-9 -34 -52 -34h-91q-43 0 -53 34l-119 442q-9 26 -2 35t34 9h94q35 0 47.5 -7t16.5 -31l24 -133q4 -23 7 -62t4 -67l1 -27h8q5 103 16 156l30 132
q4 24 16.5 31.5t47.5 7.5h64q34 0 46 -7t17 -31l31 -133q5 -24 9 -63t5 -66l2 -27h8q2 98 12 156l24 132q4 24 16 31.5t47 7.5h90z" />
    <glyph glyph-name="Ygrave" unicode="&#x1ef2;" horiz-adv-x="675" 
d="M268 914q23 27 66 3l141 -83q24 -13 2 -38l-27 -34q-13 -15 -46 -4l-182 56q-12 4 -15.5 9.5t-1 12.5t11.5 18zM646 710q22 0 27 -12.5t-6 -29.5l-231 -393v-233q0 -23 -9 -32.5t-33 -9.5h-113q-24 0 -33.5 9.5t-9.5 32.5v233l-230 393q-11 17 -6 29.5t27 12.5h120
q40 0 54.5 -6t28.5 -31l107 -204l110 204q14 25 28.5 31t53.5 6h115z" />
    <glyph glyph-name="ygrave" unicode="&#x1ef3;" horiz-adv-x="558" 
d="M206 732q25 27 66 2l139 -84q13 -7 13.5 -15.5t-11.5 -22.5l-28 -33q-12 -15 -47 -3l-180 60q-12 4 -15.5 10t-1 12.5t11.5 17.5zM478 520q22 0 30 -8.5t8 -29.5v-481q0 -106 -58 -168.5t-182 -62.5q-160 0 -223 99q-24 36 19 58l84 41q24 9 33.5 6t21.5 -19
q24 -33 63 -33q56 0 56 58v39q-27 -4 -68 -4q-113 0 -169 56t-56 160v251q0 21 8 29.5t30 8.5h110q22 0 30 -8.5t8 -29.5v-244q0 -55 60 -55q28 0 47 4v295q0 21 8.5 29.5t29.5 8.5h110z" />
    <glyph glyph-name="endash" unicode="&#x2013;" horiz-adv-x="568" 
d="M481 351q24 0 33.5 -9t9.5 -33v-85q0 -24 -9.5 -33t-33.5 -9h-395q-23 0 -32.5 9t-9.5 33v85q0 24 9.5 33t32.5 9h395z" />
    <glyph glyph-name="emdash" unicode="&#x2014;" horiz-adv-x="779" 
d="M693 352q24 0 33 -9.5t9 -33.5v-86q0 -24 -9 -33t-33 -9h-607q-24 0 -33 9t-9 33v86q0 24 9 33.5t33 9.5h607z" />
    <glyph glyph-name="quoteleft" unicode="&#x2018;" horiz-adv-x="262" 
d="M98 672q8 21 19 29.5t34 8.5h56q18 0 23.5 -6t4.5 -23l-28 -228q-3 -28 -14.5 -39.5t-37.5 -11.5h-92q-57 0 -39 51z" />
    <glyph glyph-name="quoteright" unicode="&#x2019;" horiz-adv-x="258" 
d="M169 441q-8 -21 -19 -29.5t-34 -8.5h-56q-18 0 -23.5 6t-4.5 23l28 228q3 28 14.5 39.5t37.5 11.5h92q57 0 39 -51z" />
    <glyph glyph-name="quotesinglbase" unicode="&#x201a;" horiz-adv-x="230" 
d="M177 -116q-2 -21 -11 -29.5t-31 -8.5h-63q-21 0 -29 8.5t-8 29.5v188q0 21 8 29.5t29 8.5h88q42 0 38 -38z" />
    <glyph glyph-name="quotedblleft" unicode="&#x201c;" horiz-adv-x="470" 
d="M98 672q8 21 19 29.5t34 8.5h56q18 0 23.5 -6t4.5 -23l-28 -228q-3 -28 -14.5 -39.5t-37.5 -11.5h-92q-57 0 -39 51zM306 672q8 21 19 29.5t34 8.5h56q18 0 23.5 -6t4.5 -23l-28 -228q-3 -28 -14.5 -39.5t-37.5 -11.5h-92q-57 0 -39 51z" />
    <glyph glyph-name="quotedblright" unicode="&#x201d;" horiz-adv-x="466" 
d="M169 440q-8 -21 -19 -29.5t-34 -8.5h-56q-18 0 -23.5 6t-4.5 23l28 229q3 27 14.5 38.5t37.5 11.5h92q57 0 39 -50zM377 440q-8 -21 -19 -29.5t-34 -8.5h-56q-18 0 -23.5 6t-4.5 23l28 229q3 27 14.5 38.5t37.5 11.5h92q57 0 39 -50z" />
    <glyph glyph-name="quotedblbase" unicode="&#x201e;" horiz-adv-x="469" 
d="M154 -84q-8 -21 -19 -29.5t-34 -8.5h-56q-19 0 -24.5 6t-3.5 23l28 228q3 28 14 39.5t37 11.5h93q57 0 39 -51zM362 -84q-8 -21 -19 -29.5t-34 -8.5h-56q-19 0 -24.5 6t-3.5 23l28 228q3 28 14 39.5t37 11.5h93q57 0 39 -51z" />
    <glyph glyph-name="dagger" unicode="&#x2020;" horiz-adv-x="541" 
d="M477 531q23 0 32.5 -9.5t9.5 -32.5v-91q0 -24 -9.5 -33t-32.5 -9h-113v-414q0 -23 -9 -32.5t-33 -9.5h-103q-23 0 -32.5 9.5t-9.5 32.5v414h-112q-24 0 -33.5 9t-9.5 33v91q0 23 9.5 32.5t33.5 9.5h112v137q0 24 9.5 33.5t32.5 9.5h103q24 0 33 -9.5t9 -33.5v-137h113z
" />
    <glyph glyph-name="daggerdbl" unicode="&#x2021;" horiz-adv-x="570" 
d="M336 711q24 0 33 -9.5t9 -33.5v-137h113q23 0 32.5 -9.5t9.5 -32.5v-91q0 -24 -9.5 -33t-32.5 -9h-113v-102h113q24 0 33 -9t9 -33v-91q0 -23 -9 -32.5t-33 -9.5h-113v-137q0 -23 -9 -32.5t-33 -9.5h-103q-23 0 -32.5 9.5t-9.5 32.5v137h-112q-24 0 -33 9.5t-9 32.5v91
q0 24 9 33t33 9h112v102h-112q-24 0 -33.5 9t-9.5 33v91q0 23 9.5 32.5t33.5 9.5h112v137q0 24 9.5 33.5t32.5 9.5h103z" />
    <glyph glyph-name="bullet" unicode="&#x2022;" horiz-adv-x="396" 
d="M198 114q-63 0 -105.5 43.5t-42.5 106.5q0 64 42 106.5t106 42.5t106 -42.5t42 -106.5q0 -63 -42.5 -106.5t-105.5 -43.5z" />
    <glyph glyph-name="ellipsis" unicode="&#x2026;" horiz-adv-x="799" 
d="M151 190q44 0 61 -17.5t17 -61.5v-41q0 -44 -17 -61t-61 -17h-38q-45 0 -62 17t-17 61v41q0 44 17 61.5t62 17.5h38zM419 190q44 0 61 -17.5t17 -61.5v-41q0 -44 -17 -61t-61 -17h-38q-45 0 -62 17t-17 61v41q0 44 17 61.5t62 17.5h38zM687 190q44 0 61 -17.5t17 -61.5
v-41q0 -44 -17 -61t-61 -17h-38q-45 0 -62 17t-17 61v41q0 44 17 61.5t62 17.5h38z" />
    <glyph glyph-name="perthousand" unicode="&#x2030;" horiz-adv-x="1284" 
d="M25 569q0 73 46 114.5t132 41.5t132 -41.5t46 -114.5v-76q0 -72 -46 -113t-132 -41t-132 41t-46 113v76zM763 710q21 0 26.5 -12t-6.5 -28l-464 -633q-18 -24 -32 -30.5t-51 -6.5h-91q-22 0 -28 13t7 29l465 633q16 23 29.5 29t48.5 6h96zM245 560q0 36 -42 36
q-43 0 -43 -36v-56q0 -37 43 -37q42 0 42 37v56zM522 215q0 74 46 115.5t132 41.5t132 -41.5t46 -115.5v-75q0 -73 -46 -114t-132 -41t-132 41t-46 114v75zM905 215q0 74 46 115.5t132 41.5t132 -41.5t46 -115.5v-75q0 -73 -46 -114t-132 -41t-132 41t-46 114v75zM743 206
q0 36 -42 36q-43 0 -43 -36v-56q0 -36 43 -36q42 0 42 36v56zM1126 206q0 36 -42 36q-43 0 -43 -36v-56q0 -36 43 -36q42 0 42 36v56z" />
    <glyph glyph-name="guilsinglleft" unicode="&#x2039;" horiz-adv-x="376" 
d="M328 152q23 -23 0 -48l-58 -58q-23 -23 -47 0l-192 192q-13 14 -13 24t13 24l197 199q25 25 48 0l54 -56q14 -13 14 -23t-14 -24l-116 -117z" />
    <glyph glyph-name="guilsinglright" unicode="&#x203a;" horiz-adv-x="376" 
d="M46 382q-14 14 -14 24t14 23l54 56q24 25 48 0l198 -199q23 -24 0 -48l-193 -192q-24 -23 -47 0l-58 58q-23 25 0 48l114 113z" />
    <glyph glyph-name="fraction" unicode="&#x2044;" horiz-adv-x="264" 
d="M268 675q16 23 29.5 29t48.5 6h96q22 0 27 -11.5t-7 -28.5l-465 -633q-18 -24 -32 -30.5t-51 -6.5h-91q-22 0 -28 12.5t7 29.5z" />
    <glyph glyph-name="zerosuperior" unicode="&#x2070;" horiz-adv-x="387" 
d="M27 665q0 69 44 109t123 40t122.5 -40t43.5 -109v-113q0 -69 -43.5 -109t-122.5 -40t-123 40t-44 109v113zM222 667q0 26 -28 26q-29 0 -29 -26v-117q0 -27 29 -27q28 0 28 27v117z" />
    <glyph glyph-name="foursuperior" unicode="&#x2074;" horiz-adv-x="397" 
d="M343 587q21 0 27 -6.5t6 -23.5v-46q0 -18 -6 -24.5t-27 -6.5h-11v-35q0 -18 -7 -26t-25 -8h-63q-18 0 -24.5 8t-6.5 26v35h-159q-21 0 -28.5 8t-7.5 27v31q0 27 14 43l160 192q14 16 24 20.5t34 4.5h49q24 0 32 -8.5t8 -31.5v-179h11zM206 653l-54 -66h54v66z" />
    <glyph glyph-name="fivesuperior" unicode="&#x2075;" horiz-adv-x="376" 
d="M309 806q17 0 23.5 -6t6.5 -23v-45q0 -18 -5.5 -23.5t-24.5 -5.5h-139l-3 -25h31q78 0 117 -35t39 -95q0 -62 -42.5 -103.5t-117.5 -41.5q-69 0 -108.5 22.5t-60.5 70.5q-8 22 -3.5 32t21.5 16l48 19q18 8 29.5 5.5t20.5 -23.5q15 -31 48 -31q37 0 37 35q0 34 -38 34
h-119q-22 0 -29.5 8t-5.5 28l17 157q2 17 11 23.5t31 6.5h216z" />
    <glyph glyph-name="sixsuperior" unicode="&#x2076;" horiz-adv-x="388" 
d="M164 657q23 6 50 6q151 0 151 -127q0 -65 -45 -99t-124 -34q-169 0 -169 148v115q0 148 174 148q113 0 153 -68q15 -26 -14 -41l-58 -29q-21 -12 -37 6q-20 22 -42 22q-20 0 -29.5 -7t-9.5 -27v-13zM164 543q0 -31 32 -31q31 0 31 23t-31 23q-10 0 -32 -6v-9z" />
    <glyph glyph-name="sevensuperior" unicode="&#x2077;" horiz-adv-x="343" 
d="M298 806q20 0 27 -6t7 -24v-34q0 -23 -9 -40l-123 -267q-8 -15 -17 -19.5t-36 -4.5h-60q-25 0 -30.5 10t6.5 33l111 235h-128q-20 0 -26 7.5t-6 27.5v47q0 21 7 28t28 7h249z" />
    <glyph glyph-name="eightsuperior" unicode="&#x2078;" horiz-adv-x="395" 
d="M34 696q0 56 44 87.5t119 31.5q79 0 121 -28.5t42 -79.5q0 -55 -42 -84q54 -35 54 -96q0 -124 -175 -124t-175 108q0 58 58 94q-46 37 -46 91zM228 694q0 22 -32 22q-30 0 -30 -21q0 -16 40 -30q22 13 22 29zM233 523q0 18 -43 34q-29 -16 -29 -33q0 -24 38 -24
q34 0 34 23z" />
    <glyph glyph-name="ninesuperior" unicode="&#x2079;" horiz-adv-x="388" 
d="M224 560q-30 -6 -50 -6q-151 0 -151 128q0 64 44.5 98t124.5 34q169 0 169 -147v-116q0 -148 -174 -148q-114 0 -153 68q-16 25 14 42l58 29q22 11 36 -7q24 -22 43 -22q39 0 39 34v13zM224 674q0 31 -32 31q-31 0 -31 -23q0 -22 31 -22q14 0 32 5v9z" />
    <glyph glyph-name="zeroinferior" unicode="&#x2080;" horiz-adv-x="387" 
d="M27 134q0 69 44 109t123 40t122.5 -40t43.5 -109v-113q0 -69 -43.5 -109t-122.5 -40t-123 40t-44 109v113zM222 136q0 26 -28 26q-29 0 -29 -26v-116q0 -28 29 -28q28 0 28 28v116z" />
    <glyph glyph-name="oneinferior" unicode="&#x2081;" horiz-adv-x="297" 
d="M212 275q29 0 37.5 -8t8.5 -34v-313q0 -22 -9.5 -31t-33.5 -9h-54q-24 0 -32.5 9t-8.5 31v191l-27 -14q-36 -21 -58 14l-24 39q-18 34 16 53l105 61q19 11 47 11h33z" />
    <glyph glyph-name="twoinferior" unicode="&#x2082;" horiz-adv-x="375" 
d="M31 189q38 94 163 94q73 0 114.5 -34.5t41.5 -92.5q0 -108 -95 -136l-43 -12q-21 -5 -21 -10v-2h116q21 0 28.5 -7.5t7.5 -27.5v-47q0 -19 -7 -26.5t-27 -7.5h-247q-20 0 -28 8t-8 26v33q0 57 20 86t75 48l53 19q20 7 27.5 15t7.5 25q0 23 -22 23q-23 0 -35 -23
q-11 -21 -19 -25.5t-31 1.5l-50 18q-20 8 -25 20t4 35z" />
    <glyph glyph-name="threeinferior" unicode="&#x2083;" horiz-adv-x="381" 
d="M26 187q34 96 168 96q73 0 112.5 -30.5t39.5 -86.5q0 -53 -39 -81q51 -25 51 -94q0 -57 -41.5 -88t-122.5 -31q-141 0 -172 95q-12 36 16 46l44 16q23 8 33.5 3t19.5 -24q12 -26 53 -26q34 0 34 19q0 23 -30 23h-29q-17 0 -22.5 5.5t-5.5 23.5v50q0 19 5.5 25t25.5 6h20
q30 0 30 22q0 21 -30 21q-38 0 -52 -31q-9 -19 -19 -23.5t-33 3.5l-38 16q-29 12 -18 45z" />
    <glyph glyph-name="fourinferior" unicode="&#x2084;" horiz-adv-x="399" 
d="M345 56q21 0 27 -6t6 -23v-47q0 -18 -6 -24.5t-27 -6.5h-11v-34q0 -19 -7 -27t-25 -8h-65q-18 0 -24.5 8t-6.5 27v34h-159q-21 0 -28.5 8t-7.5 27v31q0 27 14 43l160 193q14 15 24 19.5t34 4.5h51q24 0 32 -8t8 -31v-180h11zM206 122l-54 -66h54v66z" />
    <glyph glyph-name="fiveinferior" unicode="&#x2085;" horiz-adv-x="377" 
d="M309 275q17 0 23.5 -6t6.5 -23v-45q0 -17 -5.5 -23t-24.5 -6h-139l-3 -25h31q78 0 117 -35t39 -95q0 -62 -42.5 -103.5t-117.5 -41.5q-69 0 -108.5 22.5t-60.5 70.5q-8 22 -3.5 32t21.5 16l48 19q18 8 29.5 5.5t20.5 -22.5q15 -32 48 -32q37 0 37 35q0 34 -38 34h-119
q-22 0 -29.5 8t-5.5 28l17 157q2 18 11 24t31 6h216z" />
    <glyph glyph-name="sixinferior" unicode="&#x2086;" horiz-adv-x="388" 
d="M164 126q22 6 50 6q151 0 151 -127q0 -65 -45 -99t-124 -34q-169 0 -169 148v116q0 147 174 147q113 0 153 -68q15 -26 -14 -41l-58 -29q-21 -12 -37 6q-20 22 -42 22q-20 0 -29.5 -7t-9.5 -27v-13zM164 13q0 -32 32 -32q31 0 31 23t-31 23q-16 0 -32 -6v-8z" />
    <glyph glyph-name="seveninferior" unicode="&#x2087;" horiz-adv-x="343" 
d="M297 275q21 0 28 -6t7 -24v-34q0 -21 -9 -40l-124 -267q-7 -15 -16.5 -19.5t-35.5 -4.5h-60q-26 0 -31 10t7 33l111 235h-128q-20 0 -26 7.5t-6 27.5v48q0 21 7 27.5t27 6.5h249z" />
    <glyph glyph-name="eightinferior" unicode="&#x2088;" horiz-adv-x="395" 
d="M34 166q0 56 44 87.5t119 31.5q78 0 120.5 -29t42.5 -79q0 -55 -42 -84q54 -37 54 -96q0 -125 -175 -125t-175 109q0 58 58 94q-46 37 -46 91zM228 164q0 22 -32 22q-30 0 -30 -21q0 -16 40 -30q22 13 22 29zM233 -7q0 18 -43 34q-29 -18 -29 -33q0 -24 38 -24
q34 0 34 23z" />
    <glyph glyph-name="nineinferior" unicode="&#x2089;" horiz-adv-x="388" 
d="M224 30q-22 -6 -50 -6q-151 0 -151 127q0 64 44.5 98t124.5 34q169 0 169 -147v-116q0 -148 -174 -148q-114 0 -153 69q-16 26 14 41l58 29q21 11 36 -6q23 -23 43 -23q39 0 39 34v14zM224 143q0 32 -32 32q-31 0 -31 -24q0 -22 31 -22q14 0 32 5v9z" />
    <glyph glyph-name="Euro" unicode="&#x20ac;" horiz-adv-x="764" 
d="M145 488q3 109 86.5 173t219.5 64q198 0 270 -129q24 -41 -23 -61l-93 -36q-23 -9 -33.5 -6t-23.5 18l-4 5q-5 4 -8.5 6.5t-9.5 7t-13.5 7.5t-17 6.5t-22 5t-26.5 1.5q-45 0 -73 -16.5t-28 -46.5v-5h164q19 0 24.5 -7.5t0.5 -25.5l-14 -49q-6 -17 -16 -24t-29 -7h-136
v-37h126q19 0 24.5 -7.5t0.5 -25.5l-15 -49q-9 -31 -44 -31h-84v-7q7 -55 96 -55q59 0 97 43q12 16 23 19t35 -6l99 -38q46 -19 23 -62q-66 -128 -270 -128q-133 0 -211 56.5t-93 168.5l-1 9h-98q-19 0 -24.5 7.5t-0.5 25.5l14 49q6 18 15 24.5t29 6.5h63v37h-52
q-19 0 -25 7.5t-1 24.5l15 50q5 18 14.5 24.5t29.5 6.5h20v6z" />
    <glyph glyph-name="uni20BD" unicode="&#x20bd;" horiz-adv-x="702" 
d="M298 206h254q22 0 30 -8.5t8 -29.5v-53q0 -22 -8 -30.5t-30 -8.5h-254v-34q0 -23 -9 -32.5t-33 -9.5h-113q-24 0 -33.5 9.5t-9.5 32.5v34h-36q-21 0 -29.5 8.5t-8.5 30.5v53q0 21 8.5 29.5t29.5 8.5h36v462q0 23 9.5 32.5t33.5 9.5h290q114 0 179 -61t65 -173t-65 -173.5
t-179 -61.5h-135v-35zM298 410h102q72 0 72 66q0 65 -74 65h-100v-131z" />
    <glyph glyph-name="uni2113" unicode="&#x2113;" horiz-adv-x="493" 
d="M115 518q0 114 52.5 164t131.5 50q85 0 127.5 -47t42.5 -130q0 -86 -42.5 -166.5t-154.5 -166.5v-25q0 -25 12.5 -37.5t32.5 -12.5q21 0 41 17q22 18 39 -3l62 -73q19 -22 -2 -41q-58 -53 -149 -53q-75 0 -122.5 28t-60.5 99l-1 5l-11 -6q-16 -9 -26 -7t-20 17l-43 75
q-21 30 7 47q47 28 84 54v212zM315 556q0 30 -17 30q-26 0 -26 -69v-83q43 52 43 122z" />
    <glyph glyph-name="uni2116" unicode="&#x2116;" horiz-adv-x="1075" 
d="M1038 493q0 -73 -46 -114t-132 -41t-132.5 41t-46.5 114v75q0 74 46.5 115.5t132.5 41.5t132 -41.5t46 -115.5v-75zM607 710q24 0 33 -9.5t9 -32.5v-626q0 -23 -9 -32.5t-33 -9.5h-113q-27 0 -41 20l-154 237q-31 48 -47.5 89t-40.5 117h-7q13 -59 18.5 -87.5t9.5 -73
t4 -97.5v-163q0 -23 -9 -32.5t-33 -9.5h-102q-24 0 -33 9.5t-9 32.5v626q0 23 9 32.5t33 9.5h119q28 0 41 -20l164 -256q16 -24 28 -48t18.5 -39t18 -46.5t19.5 -49.5h8q-26 85 -35.5 133t-9.5 120v164q0 23 9.5 32.5t32.5 9.5h102zM817 503q0 -36 43 -36q42 0 42 36v56
q0 36 -42 36q-43 0 -43 -36v-56zM997 311q23 0 32.5 -9.5t9.5 -32.5v-64q0 -24 -9.5 -33t-32.5 -9h-274q-24 0 -33.5 9t-9.5 33v64q0 23 9.5 32.5t33.5 9.5h274z" />
    <glyph glyph-name="uni2117" unicode="&#x2117;" horiz-adv-x="777" 
d="M29 350q0 151 104.5 255.5t255.5 104.5t255 -104.5t104 -255.5t-104 -255t-255 -104q-150 0 -255 105t-105 254zM142 350q0 -104 71 -175.5t176 -71.5q104 0 175 71.5t71 175.5q0 106 -70.5 176.5t-175.5 70.5t-176 -70.5t-71 -176.5zM422 539q65 0 102.5 -35t37.5 -98
t-38 -100t-102 -37h-56v-78q0 -17 -5.5 -22.5t-22.5 -5.5h-50q-18 0 -23 5.5t-5 22.5v321q0 17 5 22t23 5h134zM411 370q37 0 37 35q0 33 -37 33h-45v-68h45z" />
    <glyph glyph-name="trademark" unicode="&#x2122;" horiz-adv-x="629" 
d="M244 695q23 0 29.5 -5.5t6.5 -27.5v-21q0 -22 -6 -27.5t-30 -5.5h-40v-136q0 -17 -6.5 -23t-27.5 -6h-32q-20 0 -26.5 6t-6.5 23v136h-48q-18 0 -23.5 5.5t-5.5 21.5v33q0 16 6 21.5t23 5.5h187zM547 695q22 0 28 -5.5t6 -27.5v-190q0 -18 -5.5 -23.5t-25.5 -5.5h-24
q-19 0 -25 5.5t-6 23.5v33q0 11 2 39l-10 -18l-9 -13q-12 -17 -36 -17h-10q-23 0 -35 15l-9 13q-7 8 -10 15q1 -13 1 -34v-33q0 -18 -5 -23.5t-25 -5.5h-24q-20 0 -26 5.5t-6 23.5v190q0 21 6.5 27t28.5 6h19q16 0 23 -4t17 -16l51 -85l49 84q16 21 39 21h21z" />
    <glyph glyph-name="Omega" unicode="&#x2126;" horiz-adv-x="814" 
d="M45 394q0 145 101.5 237.5t259.5 92.5q159 0 261 -92t102 -236q0 -150 -110 -218h76q24 0 33.5 -9.5t9.5 -33.5v-93q0 -23 -9.5 -32.5t-33.5 -9.5h-269q-20 0 -29 9t-9 29v81q0 21 23 35q57 33 91.5 88.5t34.5 121.5q0 84 -45 137.5t-126 53.5q-78 0 -123.5 -54
t-45.5 -137q0 -66 32.5 -123t92.5 -88q23 -11 23 -35v-80q0 -20 -9 -29t-29 -9h-269q-24 0 -33 9.5t-9 32.5v93q0 24 9 33.5t33 9.5h74q-107 80 -107 216z" />
    <glyph glyph-name="estimated" unicode="&#x212e;" horiz-adv-x="794" 
d="M771 331q0 -25 -26 -25h-521v-169q76 -62 177 -62q153 0 240 133q8 13 15 16t25 3h43q14 0 17 -5t-3 -19q-44 -98 -135 -158t-202 -60q-153 0 -261.5 108.5t-108.5 261.5t108.5 261.5t261.5 108.5t261.5 -108.5t108.5 -261.5v-24zM578 571q-77 64 -177 64t-177 -64v-175
h354v175z" />
    <glyph glyph-name="uni2153" unicode="&#x2153;" horiz-adv-x="876" 
d="M714 710q22 0 27 -11.5t-7 -28.5l-465 -633q-18 -24 -32 -30.5t-51 -6.5h-67q-22 0 -28 12.5t7 29.5l466 633q16 23 29.5 29t48.5 6h72zM228 706q29 0 37.5 -8t8.5 -35v-312q0 -22 -9 -31t-33 -9h-54q-24 0 -33 9t-9 31v191l-26 -15q-36 -21 -58 14l-24 40q-19 33 16 53
l104 60q20 12 48 12h32zM517 307q35 96 168 96q72 0 112 -31t40 -86q0 -29 -8.5 -47t-30.5 -34q51 -32 51 -98q0 -115 -164 -115q-142 0 -173 95q-11 36 17 46l44 15q23 8 33 3.5t19 -24.5q12 -26 54 -26q34 0 34 20q0 23 -31 23h-28q-17 0 -22.5 5.5t-5.5 23.5v50
q0 19 5.5 25t25.5 6h19q31 0 31 21q0 22 -31 22q-36 0 -52 -31q-8 -19 -18 -23.5t-34 3.5l-37 16q-29 12 -18 45z" />
    <glyph glyph-name="uni2154" unicode="&#x2154;" horiz-adv-x="933" 
d="M35 630q39 94 164 94q73 0 114 -34.5t41 -93.5q0 -53 -21.5 -86.5t-73.5 -48.5l-43 -12q-21 -5 -21 -10v-2h117q20 0 27.5 -7.5t7.5 -27.5v-47q0 -19 -7 -26.5t-27 -7.5h-247q-20 0 -28 7.5t-8 26.5v33q0 57 20 86t75 48l53 18q19 7 27 15.5t8 25.5q0 23 -22 23
q-23 0 -35 -23q-11 -21 -19 -26t-31 2l-50 18q-20 8 -25 20t4 35zM777 710q22 0 27 -11.5t-7 -28.5l-465 -633q-18 -24 -31.5 -30.5t-50.5 -6.5h-67q-23 0 -29 12.5t7 29.5l466 633q17 23 30 29t48 6h72zM578 307q34 96 167 96q73 0 112.5 -30.5t39.5 -86.5q0 -29 -8.5 -47
t-30.5 -34q51 -31 51 -98q0 -115 -164 -115q-141 0 -172 95q-12 36 17 46l44 15q23 8 33 3.5t19 -24.5q12 -26 53 -26q34 0 34 20q0 23 -30 23h-29q-17 0 -22 5.5t-5 23.5v50q0 19 5.5 25t24.5 6h20q30 0 30 21q0 22 -30 22q-37 0 -52 -31q-9 -19 -18.5 -23.5t-33.5 3.5
l-37 16q-31 12 -18 45z" />
    <glyph glyph-name="oneeighth" unicode="&#x215b;" horiz-adv-x="893" 
d="M228 710q29 0 37.5 -8t8.5 -34v-313q0 -22 -9 -31t-33 -9h-54q-24 0 -33 9t-9 31v191l-26 -15q-21 -11 -33.5 -7.5t-24.5 21.5l-24 40q-19 33 16 53l104 61q21 11 48 11h32zM720 710q22 0 27 -11.5t-7 -28.5l-465 -633q-18 -24 -32 -30.5t-51 -6.5h-67q-22 0 -28 12.5
t7 29.5l466 633q16 23 29.5 29t48.5 6h72zM526 285q0 56 44 87.5t119 31.5q78 0 121 -29t43 -79q0 -54 -43 -84q55 -37 55 -96q0 -125 -176 -125q-175 0 -175 109q0 57 58 94q-46 37 -46 91zM720 283q0 22 -31 22q-30 0 -30 -21q0 -16 39 -30q22 13 22 29zM725 112
q0 18 -43 34q-28 -18 -28 -33q0 -24 37 -24q34 0 34 23z" />
    <glyph glyph-name="threeeighths" unicode="&#x215c;" horiz-adv-x="927" 
d="M33 629q35 96 168 96q72 0 112 -31t40 -86q0 -29 -8.5 -47t-30.5 -34q51 -27 51 -95q0 -56 -41.5 -87t-122.5 -31q-143 0 -173 94q-10 36 17 46l44 16q23 7 33 3t19 -24q12 -26 54 -26q34 0 34 19q0 23 -31 23h-28q-17 0 -22.5 5.5t-5.5 23.5v50q0 19 5.5 25t25.5 6h19
q31 0 31 22q0 21 -31 21q-37 0 -52 -30q-8 -19 -18 -24t-34 3l-37 17q-29 12 -18 45zM764 710q22 0 27.5 -12t-6.5 -28l-465 -633q-19 -25 -32.5 -31t-50.5 -6h-67q-22 0 -28.5 12.5t7.5 29.5l466 633q16 23 29 29t48 6h72zM564 285q0 56 44 87.5t119 31.5q78 0 120.5 -29
t42.5 -79q0 -55 -42 -84q54 -37 54 -96q0 -125 -175 -125t-175 109q0 58 58 94q-46 37 -46 91zM758 283q0 22 -32 22q-30 0 -30 -21q0 -16 40 -30q22 13 22 29zM763 112q0 18 -43 34q-29 -18 -29 -33q0 -24 38 -24q34 0 34 23z" />
    <glyph glyph-name="fiveeighths" unicode="&#x215d;" horiz-adv-x="925" 
d="M312 716q17 0 24 -6.5t7 -23.5v-45q0 -17 -6 -22.5t-25 -5.5h-139l-2 -26h31q77 0 116.5 -35t39.5 -95q0 -62 -43 -103t-117 -41q-70 0 -109.5 22.5t-60.5 69.5q-8 22 -3.5 32t22.5 17l47 18q19 9 30 6t21 -23q14 -31 48 -31q36 0 36 34q0 35 -37 35h-120
q-22 0 -29.5 7.5t-5.5 27.5l18 157q1 18 10.5 24.5t31.5 6.5h215zM756 710q22 0 27 -11.5t-7 -28.5l-465 -633q-18 -24 -32 -30.5t-51 -6.5h-67q-22 0 -28 12.5t7 29.5l466 633q16 23 29.5 29t48.5 6h72zM562 285q0 56 43.5 87.5t118.5 31.5q79 0 121.5 -29t42.5 -79
q0 -55 -43 -84q55 -36 55 -96q0 -125 -176 -125q-174 0 -174 109q0 58 58 94q-46 36 -46 91zM756 283q0 22 -32 22q-30 0 -30 -21q0 -16 40 -30q22 14 22 29zM761 112q0 11 -10.5 18.5t-33.5 15.5q-28 -19 -28 -33q0 -24 37 -24q16 0 25.5 6.5t9.5 16.5z" />
    <glyph glyph-name="seveneighths" unicode="&#x215e;" horiz-adv-x="865" 
d="M308 713q20 0 27.5 -6t7.5 -24v-34q0 -21 -10 -40l-123 -267q-7 -15 -16.5 -19.5t-36.5 -4.5h-59q-26 0 -31 10t7 33l111 235h-129q-19 0 -25 7.5t-6 27.5v47q0 22 6.5 28.5t27.5 6.5h249zM685 710q22 0 27 -11.5t-7 -28.5l-465 -633q-18 -24 -31.5 -30.5t-50.5 -6.5h-67
q-23 0 -29 12.5t7 29.5l466 633q17 23 30 29t48 6h72zM503 285q0 56 44 87.5t119 31.5q78 0 120.5 -29t42.5 -79q0 -55 -42 -84q54 -37 54 -96q0 -125 -175 -125t-175 109q0 58 58 94q-46 36 -46 91zM697 283q0 22 -32 22q-30 0 -30 -21q0 -16 40 -30q22 13 22 29zM702 112
q0 18 -43 34q-29 -18 -29 -33q0 -24 38 -24q34 0 34 23z" />
    <glyph glyph-name="arrowleft" unicode="&#x2190;" horiz-adv-x="745" 
d="M670 403q19 0 26.5 -8t7.5 -26v-71q0 -19 -7.5 -27t-26.5 -8h-380l87 -88q11 -13 11 -21.5t-11 -22.5l-55 -54q-21 -25 -45 0l-227 226q-32 31 0 63l227 226q13 13 23 13.5t22 -13.5l56 -55q11 -14 11.5 -22.5t-11.5 -21.5l-90 -90h382z" />
    <glyph glyph-name="arrowup" unicode="&#x2191;" horiz-adv-x="745" 
d="M630 421q12 -14 12.5 -23.5t-12.5 -22.5l-56 -55q-13 -11 -22 -11.5t-21 11.5l-89 89v-382q0 -19 -7.5 -26.5t-26.5 -7.5h-73q-19 0 -26.5 7.5t-7.5 26.5v380l-88 -87q-13 -12 -22 -11.5t-22 11.5l-55 55q-13 13 -13 22.5t13 23.5l227 226q30 32 62 0z" />
    <glyph glyph-name="arrowright" unicode="&#x2192;" horiz-adv-x="745" 
d="M694 366q32 -32 0 -63l-226 -226q-14 -14 -23.5 -14t-22.5 14l-54 54q-12 14 -12 22.5t12 21.5l86 88h-380q-19 0 -26.5 8t-7.5 27v71q0 18 7.5 26t26.5 8h383l-90 90q-13 13 -12.5 21.5t12.5 22.5l55 55q13 14 22.5 13.5t23.5 -13.5z" />
    <glyph glyph-name="arrowdown" unicode="&#x2193;" horiz-adv-x="745" 
d="M408 664q19 0 26.5 -7.5t7.5 -26.5v-381l89 88q12 13 21 12.5t22 -12.5l56 -55q23 -20 0 -45l-227 -227q-32 -32 -62 0l-227 227q-24 24 0 45l55 55q13 12 22 12t22 -12l88 -86v379q0 19 7.5 26.5t26.5 7.5h73z" />
    <glyph glyph-name="uni2196" unicode="&#x2196;" horiz-adv-x="745" 
d="M577 603q23 0 33.5 -10.5t10.5 -33.5v-321q0 -17 -6.5 -24t-23.5 -7h-80q-18 0 -24 7t-6 25v122l-269 -269q-14 -13 -24.5 -13t-24.5 14l-51 51q-24 24 0 48l270 270h-125q-18 0 -25 7t-7 24v78q0 18 7 25t25 7h320z" />
    <glyph glyph-name="uni2197" unicode="&#x2197;" horiz-adv-x="745" 
d="M488 603q18 0 25.5 -7t7.5 -25v-78q0 -17 -7.5 -24t-25.5 -7h-124l270 -270q23 -25 0 -48l-52 -51q-24 -25 -48 -1l-269 269v-122q0 -18 -6.5 -25t-23.5 -7h-80q-17 0 -24 7t-7 24v321q0 23 10.5 33.5t33.5 10.5h320z" />
    <glyph glyph-name="uni2198" unicode="&#x2198;" horiz-adv-x="745" 
d="M162 585q25 24 49 1l269 -269v122q0 18 6 25t24 7h80q17 0 23.5 -7t6.5 -25v-321q0 -23 -10.5 -33.5t-33.5 -10.5h-320q-18 0 -25 7t-7 26v78q0 17 7 24t25 7h125l-270 270q-25 23 0 48z" />
    <glyph glyph-name="uni2199" unicode="&#x2199;" horiz-adv-x="745" 
d="M534 586q24 23 49 -1l51 -51q25 -25 0 -48l-270 -270h125q18 0 25 -7t7 -24v-78q0 -19 -7.5 -26t-24.5 -7h-320q-23 0 -33.5 10.5t-10.5 33.5v321q0 18 6.5 25t23.5 7h80q18 0 24 -7t6 -25v-122z" />
    <glyph glyph-name="partialdiff" unicode="&#x2202;" horiz-adv-x="559" 
d="M95 703q0 23 9 32t32 9q215 0 301 -84.5t86 -274.5v-181q0 -103 -63.5 -161t-183.5 -58q-121 0 -185 57.5t-64 161.5v82q0 96 60.5 151.5t161.5 55.5q64 0 102 -23q-11 63 -55 86.5t-158 23.5q-24 0 -33 8.5t-9 31.5zM337 291q0 54 -61 54q-63 0 -63 -54v-92
q0 -53 63 -53q61 0 61 53v92z" />
    <glyph glyph-name="Delta" unicode="&#x2206;" horiz-adv-x="677" 
d="M375 710q22 0 33 -7t19 -26l207 -506q21 -51 21 -79v-50q0 -23 -9 -32.5t-33 -9.5h-548q-24 0 -33.5 9.5t-9.5 32.5v50q0 7 0.5 13.5t1.5 11t3.5 12t3.5 11t5.5 14.5t6.5 17l207 506q8 19 19.5 26t32.5 7h73zM377 366q-31 85 -36 152h-10q-2 -63 -35 -152l-74 -209h230z
" />
    <glyph glyph-name="product" unicode="&#x220f;" horiz-adv-x="731" 
d="M665 710q24 0 33.5 -9.5t9.5 -32.5v-90q0 -24 -9.5 -33.5t-33.5 -9.5h-47v-593q0 -23 -9 -32.5t-33 -9.5h-113q-24 0 -33 9.5t-9 32.5v593h-111v-593q0 -23 -9.5 -32.5t-32.5 -9.5h-113q-24 0 -33 9.5t-9 32.5v593h-47q-24 0 -33.5 9.5t-9.5 33.5v90q0 23 9.5 32.5
t33.5 9.5h599z" />
    <glyph glyph-name="summation" unicode="&#x2211;" horiz-adv-x="618" 
d="M419 357q19 -27 19 -47t-19 -49l-124 -186h249q24 0 33 -9t9 -33v-91q0 -23 -9 -32.5t-33 -9.5h-474q-23 0 -32.5 9.5t-9.5 32.5v61q0 25 14 42l184 263l-179 256q-14 20 -14 44v60q0 23 9.5 32.5t32.5 9.5h464q24 0 33 -9.5t9 -32.5v-90q0 -24 -9 -33.5t-33 -9.5h-239z
" />
    <glyph glyph-name="minus" unicode="&#x2212;" horiz-adv-x="591" 
d="M504 411q23 0 32.5 -9t9.5 -33v-86q0 -24 -9.5 -33t-32.5 -9h-416q-24 0 -33.5 9t-9.5 33v86q0 24 9.5 33t33.5 9h416z" />
    <glyph glyph-name="uni2215" unicode="&#x2215;" horiz-adv-x="666" 
d="M469 675q16 23 29.5 29t48.5 6h96q22 0 27 -11.5t-7 -28.5l-465 -633q-18 -24 -32 -30.5t-51 -6.5h-91q-22 0 -28 12.5t7 29.5z" />
    <glyph glyph-name="uni2219" unicode="&#x2219;" horiz-adv-x="275" 
d="M157 383q44 0 61 -17.5t17 -61.5v-41q0 -44 -17 -61t-61 -17h-38q-45 0 -62 17t-17 61v41q0 44 17 61.5t62 17.5h38z" />
    <glyph glyph-name="radical" unicode="&#x221a;" horiz-adv-x="763" 
d="M733 750q23 0 29 -9.5t-1 -31.5l-248 -780q-7 -20 -18 -27.5t-34 -7.5h-116q-22 0 -33.5 7t-18.5 26l-128 350h-111q-24 0 -33 9.5t-9 33.5v85q0 24 9 33t33 9h189q40 0 54.5 -7t22.5 -30l55 -163q10 -30 16.5 -67.5t7.5 -59.5l1 -23h10q2 82 20 149l132 467
q6 23 18.5 30t47.5 7h105z" />
    <glyph glyph-name="infinity" unicode="&#x221e;" horiz-adv-x="763" 
d="M384 380q66 98 165 98q82 0 133 -53.5t51 -138.5q0 -84 -57 -138.5t-134 -54.5q-105 0 -159 91q-25 -38 -67.5 -64.5t-98.5 -26.5q-78 0 -132.5 54.5t-54.5 135.5q0 85 54 140t138 55q98 0 162 -98zM282 287q-2 2 -9.5 10.5t-10.5 11t-9.5 8.5t-11 8t-11 4t-13.5 2
q-23 0 -35 -12.5t-12 -31.5q0 -20 12.5 -33.5t33.5 -13.5q29 0 66 47zM596 287q0 18 -12 31t-35 13q-31 0 -65 -44q19 -26 33 -36.5t33 -10.5q21 0 33.5 14.5t12.5 32.5z" />
    <glyph glyph-name="integral" unicode="&#x222b;" horiz-adv-x="412" 
d="M112 514q0 226 251 226q22 0 31 -8.5t9 -30.5v-85q0 -22 -8.5 -31t-31.5 -9q-38 0 -51 -16.5t-13 -56.5v-497q0 -226 -252 -226q-22 0 -30.5 8.5t-8.5 30.5v85q0 22 8.5 31t30.5 9q38 0 51.5 15.5t13.5 53.5v501z" />
    <glyph glyph-name="approxequal" unicode="&#x2248;" horiz-adv-x="578" 
d="M52 488q56 52 134 53q37 1 98 -17.5t85 -17.5q29 3 52 21q20 17 32.5 17t25.5 -19l45 -69q15 -22 16.5 -33t-16.5 -29q-56 -53 -133 -54q-43 -2 -100.5 16.5t-78.5 18.5q-32 0 -57 -20q-20 -16 -32.5 -16t-25.5 18l-45 69q-11 16 -14.5 23.5t-1 17.5t15.5 21zM53 269
q58 53 133 54q40 1 99.5 -18t81.5 -18q32 1 55 21q20 16 32.5 16t25.5 -18l46 -69q10 -15 13.5 -23.5t1 -18.5t-14.5 -21q-55 -50 -129 -53q-42 -2 -100.5 16.5t-84.5 18.5q-32 -1 -56 -20q-20 -16 -32 -16.5t-26 18.5l-45 69q-11 16 -14.5 23.5t-1 17.5t15.5 21z" />
    <glyph glyph-name="notequal" unicode="&#x2260;" horiz-adv-x="589" 
d="M332 300h170q24 0 33.5 -9.5t9.5 -32.5v-85q0 -24 -9.5 -33.5t-33.5 -9.5h-257l-31 -61q-4 -9 -8 -10.5t-18 -1.5h-74q-15 0 -6 14l30 59h-52q-24 0 -33 9.5t-9 33.5v85q0 23 9 32.5t33 9.5h139l27 53h-166q-24 0 -33 9.5t-9 32.5v85q0 24 9 33.5t33 9.5h253l31 60
q4 8 8 10t16 2h76q15 0 6 -13l-30 -59h56q24 0 33.5 -9.5t9.5 -33.5v-85q0 -23 -9.5 -32.5t-33.5 -9.5h-142z" />
    <glyph glyph-name="lessequal" unicode="&#x2264;" horiz-adv-x="518" 
d="M470 560q0 -34 -7.5 -47t-30.5 -22l-166 -56v-6l165 -54q24 -9 31.5 -21.5t7.5 -47.5v-66q0 -29 -10 -36.5t-35 4.5l-353 144q-20 10 -26.5 20t-6.5 32v52q0 22 7 33t26 20l353 143q25 12 35 4.5t10 -35.5v-61zM427 183q24 0 33.5 -9t9.5 -33v-66q0 -24 -9.5 -33
t-33.5 -9h-346q-24 0 -33 9t-9 33v66q0 24 9 33t33 9h346z" />
    <glyph glyph-name="greaterequal" unicode="&#x2265;" horiz-adv-x="518" 
d="M49 621q0 29 9.5 36t34.5 -5l353 -143q20 -9 27 -20t7 -33v-52q0 -22 -7 -32t-27 -20l-353 -144q-25 -11 -34.5 -4t-9.5 36v66q0 35 7 47.5t31 21.5l165 54v6l-166 56q-23 9 -30 22t-7 47v61zM437 183q24 0 33.5 -9t9.5 -33v-66q0 -24 -9.5 -33t-33.5 -9h-346
q-24 0 -33 9t-9 33v66q0 24 9 33t33 9h346z" />
    <glyph glyph-name="lozenge" unicode="&#x25ca;" horiz-adv-x="604" 
d="M334 710q20 0 30 -7t23 -27l188 -292q16 -30 0 -58l-188 -292q-13 -20 -23 -27t-30 -7h-64q-20 0 -29 7t-23 27l-189 292q-16 28 0 58l189 292q10 14 15 20t14 10t23 4h64zM302 497l-84 -142l84 -141h4l85 141l-85 142h-4z" />
    <glyph glyph-name="zero.denom" horiz-adv-x="387" 
d="M27 254q0 69 44 109t123 40t122.5 -40t43.5 -109v-113q0 -70 -43.5 -109.5t-122.5 -39.5q-80 0 -123.5 39.5t-43.5 109.5v113zM222 256q0 26 -28 26q-29 0 -29 -26v-117q0 -27 29 -27q28 0 28 27v117z" />
    <glyph glyph-name="one.denom" horiz-adv-x="297" 
d="M212 395q29 0 37.5 -8t8.5 -34v-313q0 -22 -9.5 -31t-33.5 -9h-54q-24 0 -32.5 9t-8.5 31v191l-27 -15q-36 -21 -58 14l-24 40q-18 34 16 53l105 60q19 12 47 12h33z" />
    <glyph glyph-name="two.denom" horiz-adv-x="375" 
d="M31 308q39 95 163 95q73 0 114.5 -34.5t41.5 -93.5q0 -53 -21.5 -86.5t-73.5 -48.5l-43 -13q-21 -3 -21 -10v-1h116q21 0 28.5 -7.5t7.5 -27.5v-47q0 -19 -7 -26.5t-27 -7.5h-247q-20 0 -28 7.5t-8 26.5v33q0 57 20 86t75 48l53 18q19 7 27 15.5t8 25.5q0 22 -22 22
q-23 0 -35 -22q-11 -21 -19 -25.5t-31 1.5l-50 18q-20 8 -25 19.5t4 34.5z" />
    <glyph glyph-name="three.denom" horiz-adv-x="381" 
d="M26 307q35 96 168 96q73 0 112.5 -30.5t39.5 -86.5q0 -29 -8.5 -47t-30.5 -34q51 -25 51 -95q0 -56 -41.5 -87t-122.5 -31q-141 0 -172 95q-12 36 16 46l44 15q23 8 33.5 3.5t19.5 -24.5q12 -26 53 -26q34 0 34 20q0 23 -30 23h-29q-17 0 -22.5 5.5t-5.5 23.5v50
q0 19 5.5 25t25.5 6h20q30 0 30 21q0 22 -30 22q-38 0 -52 -31q-9 -19 -19 -23.5t-33 3.5l-38 16q-29 12 -18 45z" />
    <glyph glyph-name="four.denom" horiz-adv-x="399" 
d="M345 176q21 0 27 -6.5t6 -23.5v-46q0 -19 -6 -25t-27 -6h-11v-35q0 -19 -7 -26.5t-25 -7.5h-65q-18 0 -24.5 7.5t-6.5 26.5v35h-159q-21 0 -28.5 8t-7.5 27v30q0 26 14 44l160 192q14 16 24 20.5t34 4.5h51q24 0 32 -8.5t8 -31.5v-179h11zM206 242l-54 -66h54v66z" />
    <glyph glyph-name="five.denom" horiz-adv-x="377" 
d="M309 395q17 0 23.5 -6t6.5 -23v-45q0 -17 -5.5 -23t-24.5 -6h-139l-3 -26h31q78 0 117 -34.5t39 -95.5q0 -62 -42.5 -103t-117.5 -41q-69 0 -108.5 22.5t-60.5 69.5q-8 23 -4 32.5t22 16.5l48 19q18 8 29.5 5.5t20.5 -23.5q15 -31 48 -31q37 0 37 34q0 35 -38 35h-119
q-22 0 -29.5 8t-5.5 28l17 156q2 18 11 24.5t31 6.5h216z" />
    <glyph glyph-name="six.denom" horiz-adv-x="388" 
d="M164 246q23 6 50 6q151 0 151 -128q0 -64 -45 -98t-124 -34q-169 0 -169 147v116q0 148 174 148q113 0 153 -68q15 -26 -14 -41l-58 -30q-21 -11 -37 7q-22 22 -42 22q-39 0 -39 -34v-13zM164 132q0 -31 32 -31q31 0 31 23t-31 23q-10 0 -32 -6v-9z" />
    <glyph glyph-name="seven.denom" horiz-adv-x="343" 
d="M298 395q20 0 27 -6t7 -24v-34q0 -23 -9 -40l-123 -267q-8 -15 -17 -19.5t-36 -4.5h-60q-25 0 -30 9.5t6 33.5l111 235h-128q-20 0 -26 7.5t-6 27.5v47q0 21 7 28t28 7h249z" />
    <glyph glyph-name="eight.denom" horiz-adv-x="395" 
d="M34 285q0 56 44 87.5t119 31.5q78 0 120.5 -29t42.5 -79q0 -55 -42 -84q54 -37 54 -96q0 -125 -175 -125t-175 109q0 58 58 94q-46 37 -46 91zM228 283q0 22 -32 22q-30 0 -30 -21q0 -16 40 -30q22 13 22 29zM233 112q0 18 -43 34q-29 -18 -29 -33q0 -24 38 -24
q34 0 34 23z" />
    <glyph glyph-name="nine.denom" horiz-adv-x="388" 
d="M224 149q-22 -6 -50 -6q-151 0 -151 128q0 64 44.5 98t124.5 34q169 0 169 -147v-116q0 -148 -174 -148q-115 0 -153 68q-16 26 14 41l58 30q22 11 36 -7q24 -22 43 -22q39 0 39 34v13zM224 263q0 31 -32 31q-31 0 -31 -23t31 -23q10 0 32 6v9z" />
    <glyph glyph-name="zero.num" horiz-adv-x="387" 
d="M27 574q0 69 44 109t123 40t122.5 -40t43.5 -109v-113q0 -70 -43.5 -109.5t-122.5 -39.5q-80 0 -123.5 39.5t-43.5 109.5v113zM222 576q0 26 -28 26q-29 0 -29 -26v-117q0 -27 29 -27q28 0 28 27v117z" />
    <glyph glyph-name="one.num" horiz-adv-x="297" 
d="M212 715q29 0 37.5 -8t8.5 -34v-313q0 -22 -9.5 -31t-33.5 -9h-54q-24 0 -32.5 9t-8.5 31v191l-27 -15q-36 -21 -58 14l-24 40q-18 34 16 53l105 60q19 12 47 12h33z" />
    <glyph glyph-name="two.num" horiz-adv-x="375" 
d="M31 628q39 95 163 95q73 0 114.5 -34.5t41.5 -93.5q0 -53 -21.5 -86.5t-73.5 -48.5l-43 -13q-21 -3 -21 -10v-1h116q21 0 28.5 -7.5t7.5 -27.5v-47q0 -19 -7 -26.5t-27 -7.5h-247q-20 0 -28 7.5t-8 26.5v33q0 57 20 86t75 48l53 18q19 7 27 15.5t8 25.5q0 22 -22 22
q-23 0 -35 -22q-11 -21 -19 -25.5t-31 1.5l-50 18q-20 8 -25 19.5t4 34.5z" />
    </font>
</defs>
</svg>
