<?xml version="1.0" encoding="UTF-8" standalone="no"?><svg xmlns="http://www.w3.org/2000/svg" xmlns:xlink="http://www.w3.org/1999/xlink" contentScriptType="application/ecmascript" contentStyleType="text/css" height="461px" preserveAspectRatio="none" style="width:1477px;height:461px;" version="1.1" viewBox="0 0 1477 461" width="1477px" zoomAndPan="magnify"><defs><filter height="300%" id="f2kz421" width="300%" x="-1" y="-1"><feGaussianBlur result="blurOut" stdDeviation="2.0"/><feColorMatrix in="blurOut" result="blurOut2" type="matrix" values="0 0 0 0 0 0 0 0 0 0 0 0 0 0 0 0 0 0 .4 0"/><feOffset dx="4.0" dy="4.0" in="blurOut2" result="blurOut3"/><feBlend in="SourceGraphic" in2="blurOut3" mode="normal"/></filter></defs><g><!--class common--><rect fill="#FEFECE" filter="url(#f2kz421)" height="270.4531" style="stroke: #A80036; stroke-width: 1.5;" width="108" x="6" y="182"/><text fill="#000000" font-family="sans-serif" font-size="12" lengthAdjust="spacingAndGlyphs" textLength="53" x="33.5" y="198.1387">common</text><line style="stroke: #A80036; stroke-width: 1.5;" x1="7" x2="113" y1="205.9688" y2="205.9688"/><line style="stroke: #A80036; stroke-width: 1.5;" x1="7" x2="113" y1="213.9688" y2="213.9688"/><text fill="#000000" font-family="sans-serif" font-size="11" lengthAdjust="spacingAndGlyphs" textLength="44" x="12" y="228.1792">onblur()</text><text fill="#000000" font-family="sans-serif" font-size="11" lengthAdjust="spacingAndGlyphs" textLength="63" x="12" y="240.9839">onchange()</text><text fill="#000000" font-family="sans-serif" font-size="11" lengthAdjust="spacingAndGlyphs" textLength="46" x="12" y="253.7886">onclick()</text><text fill="#000000" font-family="sans-serif" font-size="11" lengthAdjust="spacingAndGlyphs" textLength="63" x="12" y="266.5933">ondblclick()</text><text fill="#000000" font-family="sans-serif" font-size="11" lengthAdjust="spacingAndGlyphs" textLength="53" x="12" y="279.3979">onfocus()</text><text fill="#000000" font-family="sans-serif" font-size="11" lengthAdjust="spacingAndGlyphs" textLength="71" x="12" y="292.2026">onkeydown()</text><text fill="#000000" font-family="sans-serif" font-size="11" lengthAdjust="spacingAndGlyphs" textLength="74" x="12" y="305.0073">onkeypress()</text><text fill="#000000" font-family="sans-serif" font-size="11" lengthAdjust="spacingAndGlyphs" textLength="55" x="12" y="317.812">onkeyup()</text><text fill="#000000" font-family="sans-serif" font-size="11" lengthAdjust="spacingAndGlyphs" textLength="46" x="12" y="330.6167">onload()</text><text fill="#000000" font-family="sans-serif" font-size="11" lengthAdjust="spacingAndGlyphs" textLength="91" x="12" y="343.4214">onmousedown()</text><text fill="#000000" font-family="sans-serif" font-size="11" lengthAdjust="spacingAndGlyphs" textLength="92" x="12" y="356.2261">onmousemove()</text><text fill="#000000" font-family="sans-serif" font-size="11" lengthAdjust="spacingAndGlyphs" textLength="79" x="12" y="369.0308">onmouseout()</text><text fill="#000000" font-family="sans-serif" font-size="11" lengthAdjust="spacingAndGlyphs" textLength="86" x="12" y="381.8354">onmouseover()</text><text fill="#000000" font-family="sans-serif" font-size="11" lengthAdjust="spacingAndGlyphs" textLength="75" x="12" y="394.6401">onmouseup()</text><text fill="#000000" font-family="sans-serif" font-size="11" lengthAdjust="spacingAndGlyphs" textLength="52" x="12" y="407.4448">onreset()</text><text fill="#000000" font-family="sans-serif" font-size="11" lengthAdjust="spacingAndGlyphs" textLength="56" x="12" y="420.2495">onselect()</text><text fill="#000000" font-family="sans-serif" font-size="11" lengthAdjust="spacingAndGlyphs" textLength="61" x="12" y="433.0542">onsubmit()</text><text fill="#000000" font-family="sans-serif" font-size="11" lengthAdjust="spacingAndGlyphs" textLength="60" x="12" y="445.8589">onunload()</text><!--class table--><rect fill="#FEFECE" filter="url(#f2kz421)" height="206.4297" style="stroke: #A80036; stroke-width: 1.5;" width="82" x="184" y="214"/><text fill="#000000" font-family="sans-serif" font-size="12" lengthAdjust="spacingAndGlyphs" textLength="32" x="209" y="230.1387">table</text><line style="stroke: #A80036; stroke-width: 1.5;" x1="185" x2="265" y1="237.9688" y2="237.9688"/><text fill="#000000" font-family="sans-serif" font-size="11" lengthAdjust="spacingAndGlyphs" textLength="27" x="190" y="252.1792">align</text><text fill="#000000" font-family="sans-serif" font-size="11" lengthAdjust="spacingAndGlyphs" textLength="66" x="190" y="264.9839">background</text><text fill="#000000" font-family="sans-serif" font-size="11" lengthAdjust="spacingAndGlyphs" textLength="42" x="190" y="277.7886">bgcolor</text><text fill="#000000" font-family="sans-serif" font-size="11" lengthAdjust="spacingAndGlyphs" textLength="38" x="190" y="290.5933">border</text><text fill="#000000" font-family="sans-serif" font-size="11" lengthAdjust="spacingAndGlyphs" textLength="66" x="190" y="303.3979">bordercolor</text><text fill="#000000" font-family="sans-serif" font-size="11" lengthAdjust="spacingAndGlyphs" textLength="64" x="190" y="316.2026">cellpadding</text><text fill="#000000" font-family="sans-serif" font-size="11" lengthAdjust="spacingAndGlyphs" textLength="63" x="190" y="329.0073">cellspacing</text><text fill="#000000" font-family="sans-serif" font-size="11" lengthAdjust="spacingAndGlyphs" textLength="23" x="190" y="341.812">cols</text><text fill="#000000" font-family="sans-serif" font-size="11" lengthAdjust="spacingAndGlyphs" textLength="34" x="190" y="354.6167">frame</text><text fill="#000000" font-family="sans-serif" font-size="11" lengthAdjust="spacingAndGlyphs" textLength="35" x="190" y="367.4214">height</text><text fill="#000000" font-family="sans-serif" font-size="11" lengthAdjust="spacingAndGlyphs" textLength="29" x="190" y="380.2261">rules</text><text fill="#000000" font-family="sans-serif" font-size="11" lengthAdjust="spacingAndGlyphs" textLength="54" x="190" y="393.0308">summary</text><text fill="#000000" font-family="sans-serif" font-size="11" lengthAdjust="spacingAndGlyphs" textLength="30" x="190" y="405.8354">width</text><line style="stroke: #A80036; stroke-width: 1.5;" x1="185" x2="265" y1="412.4297" y2="412.4297"/><!--class tr--><rect fill="#FEFECE" filter="url(#f2kz421)" height="116.7969" style="stroke: #A80036; stroke-width: 1.5;" width="82" x="1117" y="258.5"/><text fill="#000000" font-family="sans-serif" font-size="12" lengthAdjust="spacingAndGlyphs" textLength="10" x="1153" y="274.6387">tr</text><line style="stroke: #A80036; stroke-width: 1.5;" x1="1118" x2="1198" y1="282.4688" y2="282.4688"/><text fill="#000000" font-family="sans-serif" font-size="11" lengthAdjust="spacingAndGlyphs" textLength="27" x="1123" y="296.6792">align</text><text fill="#000000" font-family="sans-serif" font-size="11" lengthAdjust="spacingAndGlyphs" textLength="42" x="1123" y="309.4839">bgcolor</text><text fill="#000000" font-family="sans-serif" font-size="11" lengthAdjust="spacingAndGlyphs" textLength="66" x="1123" y="322.2886">bordercolor</text><text fill="#000000" font-family="sans-serif" font-size="11" lengthAdjust="spacingAndGlyphs" textLength="25" x="1123" y="335.0933">char</text><text fill="#000000" font-family="sans-serif" font-size="11" lengthAdjust="spacingAndGlyphs" textLength="40" x="1123" y="347.8979">charoff</text><text fill="#000000" font-family="sans-serif" font-size="11" lengthAdjust="spacingAndGlyphs" textLength="33" x="1123" y="360.7026">valign</text><line style="stroke: #A80036; stroke-width: 1.5;" x1="1118" x2="1198" y1="367.2969" y2="367.2969"/><!--class tbody--><rect fill="#FEFECE" filter="url(#f2kz421)" height="103.9922" style="stroke: #A80036; stroke-width: 1.5;" width="58" x="989" y="265"/><text fill="#000000" font-family="sans-serif" font-size="12" lengthAdjust="spacingAndGlyphs" textLength="35" x="1000.5" y="281.1387">tbody</text><line style="stroke: #A80036; stroke-width: 1.5;" x1="990" x2="1046" y1="288.9688" y2="288.9688"/><text fill="#000000" font-family="sans-serif" font-size="11" lengthAdjust="spacingAndGlyphs" textLength="27" x="995" y="303.1792">align</text><text fill="#000000" font-family="sans-serif" font-size="11" lengthAdjust="spacingAndGlyphs" textLength="25" x="995" y="315.9839">char</text><text fill="#000000" font-family="sans-serif" font-size="11" lengthAdjust="spacingAndGlyphs" textLength="40" x="995" y="328.7886">charoff</text><text fill="#000000" font-family="sans-serif" font-size="11" lengthAdjust="spacingAndGlyphs" textLength="33" x="995" y="341.5933">valign</text><text fill="#000000" font-family="sans-serif" font-size="11" lengthAdjust="spacingAndGlyphs" textLength="42" x="995" y="354.3979">bgcolor</text><line style="stroke: #A80036; stroke-width: 1.5;" x1="990" x2="1046" y1="360.9922" y2="360.9922"/><!--class tfoot--><rect fill="#FEFECE" filter="url(#f2kz421)" height="103.9922" style="stroke: #A80036; stroke-width: 1.5;" width="58" x="896" y="265"/><text fill="#000000" font-family="sans-serif" font-size="12" lengthAdjust="spacingAndGlyphs" textLength="30" x="910" y="281.1387">tfoot</text><line style="stroke: #A80036; stroke-width: 1.5;" x1="897" x2="953" y1="288.9688" y2="288.9688"/><text fill="#000000" font-family="sans-serif" font-size="11" lengthAdjust="spacingAndGlyphs" textLength="27" x="902" y="303.1792">align</text><text fill="#000000" font-family="sans-serif" font-size="11" lengthAdjust="spacingAndGlyphs" textLength="25" x="902" y="315.9839">char</text><text fill="#000000" font-family="sans-serif" font-size="11" lengthAdjust="spacingAndGlyphs" textLength="40" x="902" y="328.7886">charoff</text><text fill="#000000" font-family="sans-serif" font-size="11" lengthAdjust="spacingAndGlyphs" textLength="33" x="902" y="341.5933">valign</text><text fill="#000000" font-family="sans-serif" font-size="11" lengthAdjust="spacingAndGlyphs" textLength="42" x="902" y="354.3979">bgcolor</text><line style="stroke: #A80036; stroke-width: 1.5;" x1="897" x2="953" y1="360.9922" y2="360.9922"/><!--class caption--><rect fill="#FEFECE" filter="url(#f2kz421)" height="65.5781" style="stroke: #A80036; stroke-width: 1.5;" width="53" x="807.5" y="284"/><text fill="#000000" font-family="sans-serif" font-size="12" lengthAdjust="spacingAndGlyphs" textLength="47" x="810.5" y="300.1387">caption</text><line style="stroke: #A80036; stroke-width: 1.5;" x1="808.5" x2="859.5" y1="307.9688" y2="307.9688"/><text fill="#000000" font-family="sans-serif" font-size="11" lengthAdjust="spacingAndGlyphs" textLength="27" x="813.5" y="322.1792">align</text><text fill="#000000" font-family="sans-serif" font-size="11" lengthAdjust="spacingAndGlyphs" textLength="33" x="813.5" y="334.9839">valign</text><line style="stroke: #A80036; stroke-width: 1.5;" x1="808.5" x2="859.5" y1="341.5781" y2="341.5781"/><!--class col--><rect fill="#FEFECE" filter="url(#f2kz421)" height="116.7969" style="stroke: #A80036; stroke-width: 1.5;" width="56" x="716" y="258.5"/><text fill="#000000" font-family="sans-serif" font-size="12" lengthAdjust="spacingAndGlyphs" textLength="18" x="735" y="274.6387">col</text><line style="stroke: #A80036; stroke-width: 1.5;" x1="717" x2="771" y1="282.4688" y2="282.4688"/><text fill="#000000" font-family="sans-serif" font-size="11" lengthAdjust="spacingAndGlyphs" textLength="27" x="722" y="296.6792">align</text><text fill="#000000" font-family="sans-serif" font-size="11" lengthAdjust="spacingAndGlyphs" textLength="25" x="722" y="309.4839">char</text><text fill="#000000" font-family="sans-serif" font-size="11" lengthAdjust="spacingAndGlyphs" textLength="40" x="722" y="322.2886">charoff</text><text fill="#000000" font-family="sans-serif" font-size="11" lengthAdjust="spacingAndGlyphs" textLength="28" x="722" y="335.0933">span</text><text fill="#000000" font-family="sans-serif" font-size="11" lengthAdjust="spacingAndGlyphs" textLength="33" x="722" y="347.8979">valign</text><text fill="#000000" font-family="sans-serif" font-size="11" lengthAdjust="spacingAndGlyphs" textLength="30" x="722" y="360.7026">width</text><line style="stroke: #A80036; stroke-width: 1.5;" x1="717" x2="771" y1="367.2969" y2="367.2969"/><!--class colgroup--><rect fill="#FEFECE" filter="url(#f2kz421)" height="116.7969" style="stroke: #A80036; stroke-width: 1.5;" width="61" x="561.5" y="258.5"/><text fill="#000000" font-family="sans-serif" font-size="12" lengthAdjust="spacingAndGlyphs" textLength="55" x="564.5" y="274.6387">colgroup</text><line style="stroke: #A80036; stroke-width: 1.5;" x1="562.5" x2="621.5" y1="282.4688" y2="282.4688"/><text fill="#000000" font-family="sans-serif" font-size="11" lengthAdjust="spacingAndGlyphs" textLength="27" x="567.5" y="296.6792">align</text><text fill="#000000" font-family="sans-serif" font-size="11" lengthAdjust="spacingAndGlyphs" textLength="25" x="567.5" y="309.4839">char</text><text fill="#000000" font-family="sans-serif" font-size="11" lengthAdjust="spacingAndGlyphs" textLength="40" x="567.5" y="322.2886">charoff</text><text fill="#000000" font-family="sans-serif" font-size="11" lengthAdjust="spacingAndGlyphs" textLength="28" x="567.5" y="335.0933">span</text><text fill="#000000" font-family="sans-serif" font-size="11" lengthAdjust="spacingAndGlyphs" textLength="33" x="567.5" y="347.8979">valign</text><text fill="#000000" font-family="sans-serif" font-size="11" lengthAdjust="spacingAndGlyphs" textLength="30" x="567.5" y="360.7026">width</text><line style="stroke: #A80036; stroke-width: 1.5;" x1="562.5" x2="621.5" y1="367.2969" y2="367.2969"/><!--class th--><rect fill="#FEFECE" filter="url(#f2kz421)" height="244.8438" style="stroke: #A80036; stroke-width: 1.5;" width="82" x="1386" y="194.5"/><text fill="#000000" font-family="sans-serif" font-size="12" lengthAdjust="spacingAndGlyphs" textLength="13" x="1420.5" y="210.6387">th</text><line style="stroke: #A80036; stroke-width: 1.5;" x1="1387" x2="1467" y1="218.4688" y2="218.4688"/><text fill="#000000" font-family="sans-serif" font-size="11" lengthAdjust="spacingAndGlyphs" textLength="26" x="1392" y="232.6792">abbr</text><text fill="#000000" font-family="sans-serif" font-size="11" lengthAdjust="spacingAndGlyphs" textLength="27" x="1392" y="245.4839">align</text><text fill="#000000" font-family="sans-serif" font-size="11" lengthAdjust="spacingAndGlyphs" textLength="23" x="1392" y="258.2886">axis</text><text fill="#000000" font-family="sans-serif" font-size="11" lengthAdjust="spacingAndGlyphs" textLength="66" x="1392" y="271.0933">background</text><text fill="#000000" font-family="sans-serif" font-size="11" lengthAdjust="spacingAndGlyphs" textLength="42" x="1392" y="283.8979">bgcolor</text><text fill="#000000" font-family="sans-serif" font-size="11" lengthAdjust="spacingAndGlyphs" textLength="66" x="1392" y="296.7026">bordercolor</text><text fill="#000000" font-family="sans-serif" font-size="11" lengthAdjust="spacingAndGlyphs" textLength="25" x="1392" y="309.5073">char</text><text fill="#000000" font-family="sans-serif" font-size="11" lengthAdjust="spacingAndGlyphs" textLength="40" x="1392" y="322.312">charoff</text><text fill="#000000" font-family="sans-serif" font-size="11" lengthAdjust="spacingAndGlyphs" textLength="44" x="1392" y="335.1167">colspan</text><text fill="#000000" font-family="sans-serif" font-size="11" lengthAdjust="spacingAndGlyphs" textLength="47" x="1392" y="347.9214">headers</text><text fill="#000000" font-family="sans-serif" font-size="11" lengthAdjust="spacingAndGlyphs" textLength="35" x="1392" y="360.7261">height</text><text fill="#000000" font-family="sans-serif" font-size="11" lengthAdjust="spacingAndGlyphs" textLength="42" x="1392" y="373.5308">nowrap</text><text fill="#000000" font-family="sans-serif" font-size="11" lengthAdjust="spacingAndGlyphs" textLength="49" x="1392" y="386.3354">rowspan</text><text fill="#000000" font-family="sans-serif" font-size="11" lengthAdjust="spacingAndGlyphs" textLength="34" x="1392" y="399.1401">scope</text><text fill="#000000" font-family="sans-serif" font-size="11" lengthAdjust="spacingAndGlyphs" textLength="33" x="1392" y="411.9448">valign</text><text fill="#000000" font-family="sans-serif" font-size="11" lengthAdjust="spacingAndGlyphs" textLength="30" x="1392" y="424.7495">width</text><line style="stroke: #A80036; stroke-width: 1.5;" x1="1387" x2="1467" y1="431.3438" y2="431.3438"/><!--class thead--><rect fill="#FEFECE" filter="url(#f2kz421)" height="103.9922" style="stroke: #A80036; stroke-width: 1.5;" width="58" x="420" y="265"/><text fill="#000000" font-family="sans-serif" font-size="12" lengthAdjust="spacingAndGlyphs" textLength="37" x="430.5" y="281.1387">thead</text><line style="stroke: #A80036; stroke-width: 1.5;" x1="421" x2="477" y1="288.9688" y2="288.9688"/><text fill="#000000" font-family="sans-serif" font-size="11" lengthAdjust="spacingAndGlyphs" textLength="27" x="426" y="303.1792">align</text><text fill="#000000" font-family="sans-serif" font-size="11" lengthAdjust="spacingAndGlyphs" textLength="25" x="426" y="315.9839">char</text><text fill="#000000" font-family="sans-serif" font-size="11" lengthAdjust="spacingAndGlyphs" textLength="40" x="426" y="328.7886">charoff</text><text fill="#000000" font-family="sans-serif" font-size="11" lengthAdjust="spacingAndGlyphs" textLength="33" x="426" y="341.5933">valign</text><text fill="#000000" font-family="sans-serif" font-size="11" lengthAdjust="spacingAndGlyphs" textLength="42" x="426" y="354.3979">bgcolor</text><line style="stroke: #A80036; stroke-width: 1.5;" x1="421" x2="477" y1="360.9922" y2="360.9922"/><!--class td--><rect fill="#FEFECE" filter="url(#f2kz421)" height="244.8438" style="stroke: #A80036; stroke-width: 1.5;" width="82" x="1269" y="194.5"/><text fill="#000000" font-family="sans-serif" font-size="12" lengthAdjust="spacingAndGlyphs" textLength="13" x="1303.5" y="210.6387">td</text><line style="stroke: #A80036; stroke-width: 1.5;" x1="1270" x2="1350" y1="218.4688" y2="218.4688"/><text fill="#000000" font-family="sans-serif" font-size="11" lengthAdjust="spacingAndGlyphs" textLength="26" x="1275" y="232.6792">abbr</text><text fill="#000000" font-family="sans-serif" font-size="11" lengthAdjust="spacingAndGlyphs" textLength="27" x="1275" y="245.4839">align</text><text fill="#000000" font-family="sans-serif" font-size="11" lengthAdjust="spacingAndGlyphs" textLength="23" x="1275" y="258.2886">axis</text><text fill="#000000" font-family="sans-serif" font-size="11" lengthAdjust="spacingAndGlyphs" textLength="66" x="1275" y="271.0933">background</text><text fill="#000000" font-family="sans-serif" font-size="11" lengthAdjust="spacingAndGlyphs" textLength="42" x="1275" y="283.8979">bgcolor</text><text fill="#000000" font-family="sans-serif" font-size="11" lengthAdjust="spacingAndGlyphs" textLength="66" x="1275" y="296.7026">bordercolor</text><text fill="#000000" font-family="sans-serif" font-size="11" lengthAdjust="spacingAndGlyphs" textLength="25" x="1275" y="309.5073">char</text><text fill="#000000" font-family="sans-serif" font-size="11" lengthAdjust="spacingAndGlyphs" textLength="40" x="1275" y="322.312">charoff</text><text fill="#000000" font-family="sans-serif" font-size="11" lengthAdjust="spacingAndGlyphs" textLength="44" x="1275" y="335.1167">colspan</text><text fill="#000000" font-family="sans-serif" font-size="11" lengthAdjust="spacingAndGlyphs" textLength="47" x="1275" y="347.9214">headers</text><text fill="#000000" font-family="sans-serif" font-size="11" lengthAdjust="spacingAndGlyphs" textLength="35" x="1275" y="360.7261">height</text><text fill="#000000" font-family="sans-serif" font-size="11" lengthAdjust="spacingAndGlyphs" textLength="42" x="1275" y="373.5308">nowrap</text><text fill="#000000" font-family="sans-serif" font-size="11" lengthAdjust="spacingAndGlyphs" textLength="49" x="1275" y="386.3354">rowspan</text><text fill="#000000" font-family="sans-serif" font-size="11" lengthAdjust="spacingAndGlyphs" textLength="34" x="1275" y="399.1401">scope</text><text fill="#000000" font-family="sans-serif" font-size="11" lengthAdjust="spacingAndGlyphs" textLength="33" x="1275" y="411.9448">valign</text><text fill="#000000" font-family="sans-serif" font-size="11" lengthAdjust="spacingAndGlyphs" textLength="30" x="1275" y="424.7495">width</text><line style="stroke: #A80036; stroke-width: 1.5;" x1="1270" x2="1350" y1="431.3438" y2="431.3438"/><path d="M134.294,317 C150.816,317 167.339,317 183.861,317 " fill="none" style="stroke: #A80036; stroke-width: 1.0;"/><polygon fill="none" points="134.141,324,114.141,317,134.141,310,134.141,324" style="stroke: #A80036; stroke-width: 1.0;"/><path d="M275.989,264.349 C308.819,234.221 354.183,199.106 402,182 C626.025,101.86 699.11,167.223 937,163 C994.503,161.979 1019.12,147.317 1065,182 C1091.45,201.995 1113.09,231.75 1128.81,258.24 " fill="none" style="stroke: #A80036; stroke-width: 1.0;"/><polygon fill="#A80036" points="266.213,273.514,273.326,272.3285,274.9675,265.3068,267.8545,266.4922,266.213,273.514" style="stroke: #A80036; stroke-width: 1.0;"/><text fill="#000000" font-family="sans-serif" font-size="13" lengthAdjust="spacingAndGlyphs" textLength="70" x="938" y="148.0669">содержит</text><path d="M262.953,202.201 C272.927,186.624 285.413,172.69 301,163 C328.177,146.106 341.004,162.493 373,163 C506.161,165.111 864.944,102.782 972,182 C997.875,201.147 1009.33,235.661 1014.34,264.997 " fill="none" style="stroke: #A80036; stroke-width: 1.0;"/><polygon fill="#A80036" points="256.126,213.797,262.6171,210.656,262.2142,203.4561,255.7232,206.5972,256.126,213.797" style="stroke: #A80036; stroke-width: 1.0;"/><text fill="#000000" font-family="sans-serif" font-size="13" lengthAdjust="spacingAndGlyphs" textLength="70" x="302" y="148.0669">содержит</text><path d="M276.119,264.708 C308.998,234.712 354.366,199.61 402,182 C571.85,119.205 629.546,138.744 809,163 C840.521,167.261 854.775,160.266 878,182 C900.923,203.451 912.667,236.666 918.684,264.781 " fill="none" style="stroke: #A80036; stroke-width: 1.0;"/><polygon fill="#A80036" points="266.328,273.828,273.4447,272.6652,275.1086,265.6487,267.9919,266.8115,266.328,273.828" style="stroke: #A80036; stroke-width: 1.0;"/><text fill="#000000" font-family="sans-serif" font-size="13" lengthAdjust="spacingAndGlyphs" textLength="70" x="738" y="148.0669">содержит</text><path d="M274.513,246.057 C301.101,214.259 336.869,180.116 378,163 C402.571,152.775 734.778,140.564 789,182 C820.211,205.851 830.011,252.152 832.957,283.815 " fill="none" style="stroke: #A80036; stroke-width: 1.0;"/><polygon fill="#A80036" points="266.208,256.273,273.0964,254.1399,273.7768,246.961,266.8884,249.0941,266.208,256.273" style="stroke: #A80036; stroke-width: 1.0;"/><text fill="#000000" font-family="sans-serif" font-size="13" lengthAdjust="spacingAndGlyphs" textLength="70" x="379" y="148.0669">содержит</text><path d="M276.002,265.604 C308.991,235.76 354.518,200.502 402,182 C459.903,159.438 629.405,128.362 681,163 C712.538,184.173 728.299,224.228 736.169,258.181 " fill="none" style="stroke: #A80036; stroke-width: 1.0;"/><polygon fill="#A80036" points="266.178,274.668,273.3002,273.539,274.9973,266.5304,267.8751,267.6595,266.178,274.668" style="stroke: #A80036; stroke-width: 1.0;"/><text fill="#000000" font-family="sans-serif" font-size="13" lengthAdjust="spacingAndGlyphs" textLength="70" x="610" y="148.0669">содержит</text><path d="M275.876,264.382 C319.029,224.731 384.942,175.178 455,163 C486.527,157.52 500.334,145.311 527,163 C558.801,184.095 575.082,224.152 583.397,258.125 " fill="none" style="stroke: #A80036; stroke-width: 1.0;"/><polygon fill="#A80036" points="266.215,273.446,273.3276,272.2583,274.9669,265.236,267.8543,266.4237,266.215,273.446" style="stroke: #A80036; stroke-width: 1.0;"/><text fill="#000000" font-family="sans-serif" font-size="13" lengthAdjust="spacingAndGlyphs" textLength="70" x="456" y="148.0669">содержит</text><path d="M276.023,266.801 C309.175,237.23 354.869,201.835 402,182 C455.82,159.35 473.762,167.233 532,163 C608.926,157.408 1290.83,129.101 1369,182 C1375.23,186.217 1380.8,191.256 1385.77,196.869 " fill="none" style="stroke: #A80036; stroke-width: 1.0;"/><polygon fill="#A80036" points="266.149,275.768,273.2798,274.695,275.032,267.7,267.9012,268.773,266.149,275.768" style="stroke: #A80036; stroke-width: 1.0;"/><text fill="#000000" font-family="sans-serif" font-size="13" lengthAdjust="spacingAndGlyphs" textLength="70" x="533" y="148.0669">содержит</text><path d="M279.25,317 C323.534,317 384.4,317 419.935,317 " fill="none" style="stroke: #A80036; stroke-width: 1.0;"/><polygon fill="#A80036" points="266.085,317,272.085,321,278.085,317,272.085,313,266.085,317" style="stroke: #A80036; stroke-width: 1.0;"/><text fill="#000000" font-family="sans-serif" font-size="13" lengthAdjust="spacingAndGlyphs" textLength="70" x="308" y="310.0669">содержит</text><path d="M1060.32,317 C1079.18,317 1098.04,317 1116.9,317 " fill="none" style="stroke: #A80036; stroke-width: 1.0;"/><polygon fill="#A80036" points="1047.26,317,1053.26,321,1059.26,317,1053.26,313,1047.26,317" style="stroke: #A80036; stroke-width: 1.0;"/><text fill="#000000" font-family="sans-serif" font-size="13" lengthAdjust="spacingAndGlyphs" textLength="8" x="1054.9514" y="312.3488">1</text><text fill="#000000" font-family="sans-serif" font-size="13" lengthAdjust="spacingAndGlyphs" textLength="23" x="1085.8456" y="312.9442">0..*</text><path d="M931.625,251.904 C939.2,217.426 955.317,179.645 989.5,167 C1013.68,158.056 1023.32,158.056 1047.5,167 C1088.45,182.15 1116.94,223.035 1134.73,258.3 " fill="none" style="stroke: #A80036; stroke-width: 1.0;"/><polygon fill="#A80036" points="929.12,264.897,934.1836,259.7628,931.3919,253.114,926.3283,258.2482,929.12,264.897" style="stroke: #A80036; stroke-width: 1.0;"/><text fill="#000000" font-family="sans-serif" font-size="13" lengthAdjust="spacingAndGlyphs" textLength="8" x="921.1361" y="253.9642">1</text><text fill="#000000" font-family="sans-serif" font-size="13" lengthAdjust="spacingAndGlyphs" textLength="23" x="1107.4924" y="247.3192">0..*</text><path d="M475.784,253.132 C494.136,219.17 522.31,181.497 561.5,167 C612.146,148.265 996.854,148.265 1047.5,167 C1088.45,182.15 1116.94,223.035 1134.73,258.3 " fill="none" style="stroke: #A80036; stroke-width: 1.0;"/><polygon fill="#A80036" points="469.701,264.946,476.0041,261.443,475.1948,254.2775,468.8917,257.7805,469.701,264.946" style="stroke: #A80036; stroke-width: 1.0;"/><text fill="#000000" font-family="sans-serif" font-size="13" lengthAdjust="spacingAndGlyphs" textLength="8" x="463.9452" y="254.0198">1</text><text fill="#000000" font-family="sans-serif" font-size="13" lengthAdjust="spacingAndGlyphs" textLength="23" x="1133.2955" y="247.3192">0..*</text><path d="M1212.32,317 C1231.18,317 1250.05,317 1268.91,317 " fill="none" style="stroke: #A80036; stroke-width: 1.0;"/><polygon fill="#A80036" points="1199.27,317,1205.27,321,1211.27,317,1205.27,313,1199.27,317" style="stroke: #A80036; stroke-width: 1.0;"/><text fill="#000000" font-family="sans-serif" font-size="13" lengthAdjust="spacingAndGlyphs" textLength="8" x="1207.0508" y="312.8067">1</text><text fill="#000000" font-family="sans-serif" font-size="13" lengthAdjust="spacingAndGlyphs" textLength="23" x="1237.8572" y="312.9406">0..*</text><path d="M1187.94,246.604 C1206.09,214.445 1232.91,180.536 1269.5,167 C1303.68,154.356 1317.32,154.356 1351.5,167 C1366.27,172.462 1378.16,182.294 1387.74,194.409 " fill="none" style="stroke: #A80036; stroke-width: 1.0;"/><polygon fill="#A80036" points="1181.65,258.332,1188.0138,254.9406,1187.3309,247.7619,1180.9671,251.1533,1181.65,258.332" style="stroke: #A80036; stroke-width: 1.0;"/><text fill="#000000" font-family="sans-serif" font-size="13" lengthAdjust="spacingAndGlyphs" textLength="8" x="1176.0448" y="247.3551">1</text><text fill="#000000" font-family="sans-serif" font-size="13" lengthAdjust="spacingAndGlyphs" textLength="23" x="1361.6468" y="183.5573">0..*</text></g></svg>